<svg width="1014" height="1150" viewBox="0 0 1014 1150" fill="none" xmlns="http://www.w3.org/2000/svg">
<rect width="1014" height="1150" fill="white"/>
<line x1="733.5" y1="848" x2="733.5" y2="1020" stroke="#4B2F83" stroke-width="2" stroke-dasharray="5 8"/>
<path d="M743 1010L733.5 1020.5L724.5 1010" stroke="#4B2F83" stroke-width="2" stroke-linecap="round" stroke-linejoin="round"/>
<circle cx="733" cy="843.5" r="5.5" transform="rotate(90 733 843.5)" stroke="#4B2F83" stroke-width="2"/>
<path d="M597.66 841.763L589.672 834.517C589.029 833.934 588 834.39 588 835.257V849.351C588 850.205 589.002 850.666 589.651 850.11L597.639 843.263C598.096 842.871 598.106 842.168 597.66 841.763Z" fill="#4B2F83"/>
<line x1="439" y1="842.5" x2="588" y2="842.5" stroke="#4B2F83" stroke-width="2"/>
<circle cx="434.5" cy="843" r="5.5" fill="#4B2F83"/>
<g filter="url(#filter0_d)">
<path d="M629 814C629 809.582 632.582 806 637 806H824C828.418 806 832 809.582 832 814V861C832 865.418 828.418 869 824 869H637C632.582 869 629 865.418 629 861V814Z" fill="#EEEEFF"/>
<path d="M666.445 831.625L670.164 840.906L673.883 831.625H675.828V843H674.328V838.57L674.469 833.789L670.734 843H669.586L665.859 833.812L666.008 838.57V843H664.508V831.625H666.445ZM677.867 838.695C677.867 837.867 678.029 837.122 678.352 836.461C678.68 835.799 679.133 835.289 679.711 834.93C680.294 834.57 680.958 834.391 681.703 834.391C682.854 834.391 683.784 834.789 684.492 835.586C685.206 836.383 685.562 837.443 685.562 838.766V838.867C685.562 839.69 685.404 840.43 685.086 841.086C684.773 841.737 684.323 842.245 683.734 842.609C683.151 842.974 682.479 843.156 681.719 843.156C680.573 843.156 679.643 842.758 678.93 841.961C678.221 841.164 677.867 840.109 677.867 838.797V838.695ZM679.32 838.867C679.32 839.805 679.536 840.557 679.969 841.125C680.406 841.693 680.99 841.977 681.719 841.977C682.453 841.977 683.036 841.69 683.469 841.117C683.901 840.539 684.117 839.732 684.117 838.695C684.117 837.768 683.896 837.018 683.453 836.445C683.016 835.867 682.432 835.578 681.703 835.578C680.99 835.578 680.414 835.862 679.977 836.43C679.539 836.997 679.32 837.81 679.32 838.867ZM692.297 840.758C692.297 840.367 692.148 840.065 691.852 839.852C691.56 839.633 691.047 839.445 690.312 839.289C689.583 839.133 689.003 838.945 688.57 838.727C688.143 838.508 687.826 838.247 687.617 837.945C687.414 837.643 687.312 837.284 687.312 836.867C687.312 836.174 687.604 835.589 688.188 835.109C688.776 834.63 689.526 834.391 690.438 834.391C691.396 834.391 692.172 834.638 692.766 835.133C693.365 835.628 693.664 836.26 693.664 837.031H692.211C692.211 836.635 692.042 836.294 691.703 836.008C691.37 835.721 690.948 835.578 690.438 835.578C689.911 835.578 689.5 835.693 689.203 835.922C688.906 836.151 688.758 836.451 688.758 836.82C688.758 837.169 688.896 837.432 689.172 837.609C689.448 837.786 689.945 837.956 690.664 838.117C691.388 838.279 691.974 838.471 692.422 838.695C692.87 838.919 693.201 839.19 693.414 839.508C693.633 839.82 693.742 840.203 693.742 840.656C693.742 841.411 693.44 842.018 692.836 842.477C692.232 842.93 691.448 843.156 690.484 843.156C689.807 843.156 689.208 843.036 688.688 842.797C688.167 842.557 687.758 842.224 687.461 841.797C687.169 841.365 687.023 840.898 687.023 840.398H688.469C688.495 840.883 688.688 841.268 689.047 841.555C689.411 841.836 689.891 841.977 690.484 841.977C691.031 841.977 691.469 841.867 691.797 841.648C692.13 841.424 692.297 841.128 692.297 840.758ZM697.586 832.5V834.547H699.164V835.664H697.586V840.906C697.586 841.245 697.656 841.5 697.797 841.672C697.938 841.839 698.177 841.922 698.516 841.922C698.682 841.922 698.911 841.891 699.203 841.828V843C698.823 843.104 698.453 843.156 698.094 843.156C697.448 843.156 696.961 842.961 696.633 842.57C696.305 842.18 696.141 841.625 696.141 840.906V835.664H694.602V834.547H696.141V832.5H697.586ZM709.227 838.398H706.555V843H705.047V831.625H708.812C710.094 831.625 711.078 831.917 711.766 832.5C712.458 833.083 712.805 833.932 712.805 835.047C712.805 835.755 712.612 836.372 712.227 836.898C711.846 837.424 711.315 837.818 710.633 838.078L713.305 842.906V843H711.695L709.227 838.398ZM706.555 837.172H708.859C709.604 837.172 710.195 836.979 710.633 836.594C711.076 836.208 711.297 835.693 711.297 835.047C711.297 834.344 711.086 833.805 710.664 833.43C710.247 833.055 709.643 832.865 708.852 832.859H706.555V837.172ZM718.195 843.156C717.049 843.156 716.117 842.781 715.398 842.031C714.68 841.276 714.32 840.268 714.32 839.008V838.742C714.32 837.904 714.479 837.156 714.797 836.5C715.12 835.839 715.568 835.323 716.141 834.953C716.719 834.578 717.344 834.391 718.016 834.391C719.115 834.391 719.969 834.753 720.578 835.477C721.188 836.201 721.492 837.237 721.492 838.586V839.188H715.766C715.786 840.021 716.029 840.695 716.492 841.211C716.961 841.721 717.555 841.977 718.273 841.977C718.784 841.977 719.216 841.872 719.57 841.664C719.924 841.456 720.234 841.18 720.5 840.836L721.383 841.523C720.674 842.612 719.612 843.156 718.195 843.156ZM718.016 835.578C717.432 835.578 716.943 835.792 716.547 836.219C716.151 836.641 715.906 837.234 715.812 838H720.047V837.891C720.005 837.156 719.807 836.589 719.453 836.188C719.099 835.781 718.62 835.578 718.016 835.578ZM726.562 841.977C727.078 841.977 727.529 841.82 727.914 841.508C728.299 841.195 728.513 840.805 728.555 840.336H729.922C729.896 840.82 729.729 841.281 729.422 841.719C729.115 842.156 728.703 842.505 728.188 842.766C727.677 843.026 727.135 843.156 726.562 843.156C725.411 843.156 724.495 842.773 723.812 842.008C723.135 841.237 722.797 840.185 722.797 838.852V838.609C722.797 837.786 722.948 837.055 723.25 836.414C723.552 835.773 723.984 835.276 724.547 834.922C725.115 834.568 725.784 834.391 726.555 834.391C727.503 834.391 728.289 834.674 728.914 835.242C729.544 835.81 729.88 836.547 729.922 837.453H728.555C728.513 836.906 728.305 836.458 727.93 836.109C727.56 835.755 727.102 835.578 726.555 835.578C725.82 835.578 725.25 835.844 724.844 836.375C724.443 836.901 724.242 837.664 724.242 838.664V838.938C724.242 839.911 724.443 840.661 724.844 841.188C725.245 841.714 725.818 841.977 726.562 841.977ZM735.055 843.156C733.909 843.156 732.977 842.781 732.258 842.031C731.539 841.276 731.18 840.268 731.18 839.008V838.742C731.18 837.904 731.339 837.156 731.656 836.5C731.979 835.839 732.427 835.323 733 834.953C733.578 834.578 734.203 834.391 734.875 834.391C735.974 834.391 736.828 834.753 737.438 835.477C738.047 836.201 738.352 837.237 738.352 838.586V839.188H732.625C732.646 840.021 732.888 840.695 733.352 841.211C733.82 841.721 734.414 841.977 735.133 841.977C735.643 841.977 736.076 841.872 736.43 841.664C736.784 841.456 737.094 841.18 737.359 840.836L738.242 841.523C737.534 842.612 736.471 843.156 735.055 843.156ZM734.875 835.578C734.292 835.578 733.802 835.792 733.406 836.219C733.01 836.641 732.766 837.234 732.672 838H736.906V837.891C736.865 837.156 736.667 836.589 736.312 836.188C735.958 835.781 735.479 835.578 734.875 835.578ZM741.398 834.547L741.445 835.609C742.091 834.797 742.935 834.391 743.977 834.391C745.763 834.391 746.664 835.398 746.68 837.414V843H745.234V837.406C745.229 836.797 745.089 836.346 744.812 836.055C744.542 835.763 744.117 835.617 743.539 835.617C743.07 835.617 742.659 835.742 742.305 835.992C741.951 836.242 741.674 836.57 741.477 836.977V843H740.031V834.547H741.398ZM750.82 832.5V834.547H752.398V835.664H750.82V840.906C750.82 841.245 750.891 841.5 751.031 841.672C751.172 841.839 751.411 841.922 751.75 841.922C751.917 841.922 752.146 841.891 752.438 841.828V843C752.057 843.104 751.688 843.156 751.328 843.156C750.682 843.156 750.195 842.961 749.867 842.57C749.539 842.18 749.375 841.625 749.375 840.906V835.664H747.836V834.547H749.375V832.5H750.82ZM759.789 838.547V843H758.289V831.625H762.484C763.729 831.625 764.703 831.943 765.406 832.578C766.115 833.214 766.469 834.055 766.469 835.102C766.469 836.206 766.122 837.057 765.43 837.656C764.742 838.25 763.755 838.547 762.469 838.547H759.789ZM759.789 837.32H762.484C763.286 837.32 763.901 837.133 764.328 836.758C764.755 836.378 764.969 835.831 764.969 835.117C764.969 834.44 764.755 833.898 764.328 833.492C763.901 833.086 763.315 832.875 762.57 832.859H759.789V837.32ZM767.664 838.695C767.664 837.867 767.826 837.122 768.148 836.461C768.477 835.799 768.93 835.289 769.508 834.93C770.091 834.57 770.755 834.391 771.5 834.391C772.651 834.391 773.581 834.789 774.289 835.586C775.003 836.383 775.359 837.443 775.359 838.766V838.867C775.359 839.69 775.201 840.43 774.883 841.086C774.57 841.737 774.12 842.245 773.531 842.609C772.948 842.974 772.276 843.156 771.516 843.156C770.37 843.156 769.44 842.758 768.727 841.961C768.018 841.164 767.664 840.109 767.664 838.797V838.695ZM769.117 838.867C769.117 839.805 769.333 840.557 769.766 841.125C770.203 841.693 770.786 841.977 771.516 841.977C772.25 841.977 772.833 841.69 773.266 841.117C773.698 840.539 773.914 839.732 773.914 838.695C773.914 837.768 773.693 837.018 773.25 836.445C772.812 835.867 772.229 835.578 771.5 835.578C770.786 835.578 770.211 835.862 769.773 836.43C769.336 836.997 769.117 837.81 769.117 838.867ZM782.094 840.758C782.094 840.367 781.945 840.065 781.648 839.852C781.357 839.633 780.844 839.445 780.109 839.289C779.38 839.133 778.799 838.945 778.367 838.727C777.94 838.508 777.622 838.247 777.414 837.945C777.211 837.643 777.109 837.284 777.109 836.867C777.109 836.174 777.401 835.589 777.984 835.109C778.573 834.63 779.323 834.391 780.234 834.391C781.193 834.391 781.969 834.638 782.562 835.133C783.161 835.628 783.461 836.26 783.461 837.031H782.008C782.008 836.635 781.839 836.294 781.5 836.008C781.167 835.721 780.745 835.578 780.234 835.578C779.708 835.578 779.297 835.693 779 835.922C778.703 836.151 778.555 836.451 778.555 836.82C778.555 837.169 778.693 837.432 778.969 837.609C779.245 837.786 779.742 837.956 780.461 838.117C781.185 838.279 781.771 838.471 782.219 838.695C782.667 838.919 782.997 839.19 783.211 839.508C783.43 839.82 783.539 840.203 783.539 840.656C783.539 841.411 783.237 842.018 782.633 842.477C782.029 842.93 781.245 843.156 780.281 843.156C779.604 843.156 779.005 843.036 778.484 842.797C777.964 842.557 777.555 842.224 777.258 841.797C776.966 841.365 776.82 840.898 776.82 840.398H778.266C778.292 840.883 778.484 841.268 778.844 841.555C779.208 841.836 779.688 841.977 780.281 841.977C780.828 841.977 781.266 841.867 781.594 841.648C781.927 841.424 782.094 841.128 782.094 840.758ZM787.383 832.5V834.547H788.961V835.664H787.383V840.906C787.383 841.245 787.453 841.5 787.594 841.672C787.734 841.839 787.974 841.922 788.312 841.922C788.479 841.922 788.708 841.891 789 841.828V843C788.62 843.104 788.25 843.156 787.891 843.156C787.245 843.156 786.758 842.961 786.43 842.57C786.102 842.18 785.938 841.625 785.938 840.906V835.664H784.398V834.547H785.938V832.5H787.383ZM795.578 840.758C795.578 840.367 795.43 840.065 795.133 839.852C794.841 839.633 794.328 839.445 793.594 839.289C792.865 839.133 792.284 838.945 791.852 838.727C791.424 838.508 791.107 838.247 790.898 837.945C790.695 837.643 790.594 837.284 790.594 836.867C790.594 836.174 790.885 835.589 791.469 835.109C792.057 834.63 792.807 834.391 793.719 834.391C794.677 834.391 795.453 834.638 796.047 835.133C796.646 835.628 796.945 836.26 796.945 837.031H795.492C795.492 836.635 795.323 836.294 794.984 836.008C794.651 835.721 794.229 835.578 793.719 835.578C793.193 835.578 792.781 835.693 792.484 835.922C792.188 836.151 792.039 836.451 792.039 836.82C792.039 837.169 792.177 837.432 792.453 837.609C792.729 837.786 793.227 837.956 793.945 838.117C794.669 838.279 795.255 838.471 795.703 838.695C796.151 838.919 796.482 839.19 796.695 839.508C796.914 839.82 797.023 840.203 797.023 840.656C797.023 841.411 796.721 842.018 796.117 842.477C795.513 842.93 794.729 843.156 793.766 843.156C793.089 843.156 792.49 843.036 791.969 842.797C791.448 842.557 791.039 842.224 790.742 841.797C790.451 841.365 790.305 840.898 790.305 840.398H791.75C791.776 840.883 791.969 841.268 792.328 841.555C792.693 841.836 793.172 841.977 793.766 841.977C794.312 841.977 794.75 841.867 795.078 841.648C795.411 841.424 795.578 841.128 795.578 840.758Z" fill="#4B2F83"/>
<path d="M637 807H824V805H637V807ZM831 814V861H833V814H831ZM824 868H637V870H824V868ZM630 861V814H628V861H630ZM637 868C633.134 868 630 864.866 630 861H628C628 865.971 632.029 870 637 870V868ZM831 861C831 864.866 827.866 868 824 868V870C828.971 870 833 865.971 833 861H831ZM824 807C827.866 807 831 810.134 831 814H833C833 809.029 828.971 805 824 805V807ZM637 805C632.029 805 628 809.029 628 814H630C630 810.134 633.134 807 637 807V805Z" fill="#4B2F83"/>
</g>
<g clip-path="url(#clip0)">
<path d="M385.237 739.66L392.483 731.672C393.066 731.029 392.61 730 391.743 730H377.649C376.795 730 376.334 731.002 376.89 731.651L383.737 739.639C384.129 740.096 384.832 740.106 385.237 739.66Z" fill="#4B2F83"/>
<line x1="384.5" y1="641" x2="384.5" y2="730" stroke="#4B2F83" stroke-width="2"/>
<circle cx="384" cy="636.5" r="5.5" transform="rotate(90 384 636.5)" fill="#4B2F83"/>
</g>
<line x1="405" y1="601.5" x2="809" y2="601.5" stroke="#4B2F83" stroke-width="2" stroke-dasharray="5 8"/>
<path d="M799 592L809.5 601.5L799 610.5" stroke="#4B2F83" stroke-width="2" stroke-linecap="round" stroke-linejoin="round"/>
<circle cx="400.5" cy="602" r="5.5" stroke="#4B2F83" stroke-width="2"/>
<g clip-path="url(#clip1)">
<path d="M384.237 338.66L391.483 330.672C392.066 330.029 391.61 329 390.743 329H376.649C375.795 329 375.334 330.002 375.89 330.651L382.737 338.639C383.129 339.096 383.832 339.106 384.237 338.66Z" fill="#4B2F83"/>
<line x1="383.5" y1="240" x2="383.5" y2="329" stroke="#4B2F83" stroke-width="2"/>
<circle cx="383" cy="235.5" r="5.5" transform="rotate(90 383 235.5)" fill="#4B2F83"/>
</g>
<g clip-path="url(#clip2)">
<path d="M383.237 497.66L390.483 489.672C391.066 489.029 390.61 488 389.743 488H375.649C374.795 488 374.334 489.002 374.89 489.651L381.737 497.639C382.129 498.096 382.832 498.106 383.237 497.66Z" fill="#4B2F83"/>
<line x1="382.5" y1="399" x2="382.5" y2="488" stroke="#4B2F83" stroke-width="2"/>
<circle cx="382" cy="394.5" r="5.5" transform="rotate(90 382 394.5)" fill="#4B2F83"/>
</g>
<g filter="url(#filter1_d)">
<path d="M291 139C291 134.582 294.582 131 299 131H463C467.418 131 471 134.582 471 139V155H291V139Z" fill="#BEBEFF"/>
<circle cx="303" cy="143" r="4" fill="#4B2F83"/>
<circle cx="317" cy="143" r="4" fill="#4B2F83"/>
<circle cx="331" cy="143" r="4" fill="#4B2F83"/>
<path d="M291.5 139C291.5 134.858 294.858 131.5 299 131.5H463C467.142 131.5 470.5 134.858 470.5 139V154.5H291.5V139Z" stroke="#4B2F83"/>
</g>
<g filter="url(#filter2_d)">
<path d="M291 154H471V249C471 253.418 467.418 257 463 257H299C294.582 257 291 253.418 291 249V154Z" fill="white"/>
<path d="M340 208.07C340 207.57 339.823 207.185 339.469 206.914C339.12 206.643 338.487 206.37 337.57 206.094C336.654 205.818 335.924 205.51 335.383 205.172C334.346 204.521 333.828 203.672 333.828 202.625C333.828 201.708 334.201 200.953 334.945 200.359C335.695 199.766 336.667 199.469 337.859 199.469C338.651 199.469 339.357 199.615 339.977 199.906C340.596 200.198 341.083 200.615 341.438 201.156C341.792 201.693 341.969 202.289 341.969 202.945H340C340 202.352 339.812 201.888 339.438 201.555C339.068 201.216 338.536 201.047 337.844 201.047C337.198 201.047 336.695 201.185 336.336 201.461C335.982 201.737 335.805 202.122 335.805 202.617C335.805 203.034 335.997 203.383 336.383 203.664C336.768 203.94 337.404 204.211 338.289 204.477C339.174 204.737 339.885 205.036 340.422 205.375C340.958 205.708 341.352 206.094 341.602 206.531C341.852 206.964 341.977 207.471 341.977 208.055C341.977 209.003 341.612 209.758 340.883 210.32C340.159 210.878 339.174 211.156 337.93 211.156C337.107 211.156 336.349 211.005 335.656 210.703C334.969 210.396 334.432 209.974 334.047 209.438C333.667 208.901 333.477 208.276 333.477 207.562H335.453C335.453 208.208 335.667 208.708 336.094 209.062C336.521 209.417 337.133 209.594 337.93 209.594C338.617 209.594 339.133 209.456 339.477 209.18C339.826 208.898 340 208.529 340 208.07ZM345.906 200.492V202.547H347.398V203.953H345.906V208.672C345.906 208.995 345.969 209.229 346.094 209.375C346.224 209.516 346.453 209.586 346.781 209.586C347 209.586 347.221 209.56 347.445 209.508V210.977C347.013 211.096 346.596 211.156 346.195 211.156C344.737 211.156 344.008 210.352 344.008 208.742V203.953H342.617V202.547H344.008V200.492H345.906ZM353.977 210.172C353.419 210.828 352.628 211.156 351.602 211.156C350.685 211.156 349.99 210.888 349.516 210.352C349.047 209.815 348.812 209.039 348.812 208.023V202.547H350.711V208C350.711 209.073 351.156 209.609 352.047 209.609C352.969 209.609 353.591 209.279 353.914 208.617V202.547H355.812V211H354.023L353.977 210.172ZM357.391 206.711C357.391 205.409 357.693 204.365 358.297 203.578C358.901 202.786 359.711 202.391 360.727 202.391C361.622 202.391 362.346 202.703 362.898 203.328V199H364.797V211H363.078L362.984 210.125C362.417 210.812 361.659 211.156 360.711 211.156C359.721 211.156 358.919 210.758 358.305 209.961C357.695 209.164 357.391 208.081 357.391 206.711ZM359.289 206.875C359.289 207.734 359.453 208.406 359.781 208.891C360.115 209.37 360.586 209.609 361.195 209.609C361.971 209.609 362.539 209.263 362.898 208.57V204.961C362.549 204.284 361.987 203.945 361.211 203.945C360.596 203.945 360.122 204.19 359.789 204.68C359.456 205.164 359.289 205.896 359.289 206.875ZM369.734 208.281L371.453 202.547H373.477L370.117 212.281C369.602 213.703 368.727 214.414 367.492 214.414C367.216 214.414 366.911 214.367 366.578 214.273V212.805L366.938 212.828C367.417 212.828 367.776 212.74 368.016 212.562C368.26 212.391 368.453 212.099 368.594 211.688L368.867 210.961L365.898 202.547H367.945L369.734 208.281ZM387.461 209.523C387.049 210.06 386.479 210.466 385.75 210.742C385.021 211.018 384.193 211.156 383.266 211.156C382.312 211.156 381.469 210.94 380.734 210.508C380 210.076 379.432 209.458 379.031 208.656C378.635 207.849 378.43 206.909 378.414 205.836V204.945C378.414 203.227 378.826 201.885 379.648 200.922C380.471 199.953 381.62 199.469 383.094 199.469C384.359 199.469 385.365 199.781 386.109 200.406C386.854 201.031 387.302 201.932 387.453 203.109H385.516C385.297 201.74 384.503 201.055 383.133 201.055C382.247 201.055 381.573 201.375 381.109 202.016C380.651 202.651 380.414 203.586 380.398 204.82V205.695C380.398 206.924 380.656 207.88 381.172 208.562C381.693 209.24 382.414 209.578 383.336 209.578C384.346 209.578 385.065 209.349 385.492 208.891V206.664H383.148V205.164H387.461V209.523ZM393.875 204.281C393.625 204.24 393.367 204.219 393.102 204.219C392.232 204.219 391.646 204.552 391.344 205.219V211H389.445V202.547H391.258L391.305 203.492C391.763 202.758 392.398 202.391 393.211 202.391C393.482 202.391 393.706 202.427 393.883 202.5L393.875 204.281ZM394.438 206.695C394.438 205.867 394.602 205.122 394.93 204.461C395.258 203.794 395.719 203.284 396.312 202.93C396.906 202.57 397.589 202.391 398.359 202.391C399.5 202.391 400.424 202.758 401.133 203.492C401.846 204.227 402.232 205.201 402.289 206.414L402.297 206.859C402.297 207.693 402.135 208.438 401.812 209.094C401.495 209.75 401.036 210.258 400.438 210.617C399.844 210.977 399.156 211.156 398.375 211.156C397.182 211.156 396.227 210.76 395.508 209.969C394.794 209.172 394.438 208.112 394.438 206.789V206.695ZM396.336 206.859C396.336 207.729 396.516 208.411 396.875 208.906C397.234 209.396 397.734 209.641 398.375 209.641C399.016 209.641 399.513 209.391 399.867 208.891C400.227 208.391 400.406 207.659 400.406 206.695C400.406 205.841 400.221 205.164 399.852 204.664C399.487 204.164 398.99 203.914 398.359 203.914C397.74 203.914 397.247 204.161 396.883 204.656C396.518 205.146 396.336 205.88 396.336 206.859ZM409.023 210.172C408.466 210.828 407.674 211.156 406.648 211.156C405.732 211.156 405.036 210.888 404.562 210.352C404.094 209.815 403.859 209.039 403.859 208.023V202.547H405.758V208C405.758 209.073 406.203 209.609 407.094 209.609C408.016 209.609 408.638 209.279 408.961 208.617V202.547H410.859V211H409.07L409.023 210.172ZM420.195 206.859C420.195 208.167 419.898 209.211 419.305 209.992C418.711 210.768 417.914 211.156 416.914 211.156C415.987 211.156 415.245 210.852 414.688 210.242V214.25H412.789V202.547H414.539L414.617 203.406C415.174 202.729 415.932 202.391 416.891 202.391C417.922 202.391 418.729 202.776 419.312 203.547C419.901 204.312 420.195 205.378 420.195 206.742V206.859ZM418.305 206.695C418.305 205.852 418.135 205.182 417.797 204.688C417.464 204.193 416.984 203.945 416.359 203.945C415.583 203.945 415.026 204.266 414.688 204.906V208.656C415.031 209.312 415.594 209.641 416.375 209.641C416.979 209.641 417.451 209.398 417.789 208.914C418.133 208.424 418.305 207.685 418.305 206.695ZM426.547 208.703C426.547 208.365 426.406 208.107 426.125 207.93C425.849 207.753 425.388 207.596 424.742 207.461C424.096 207.326 423.557 207.154 423.125 206.945C422.177 206.487 421.703 205.823 421.703 204.953C421.703 204.224 422.01 203.615 422.625 203.125C423.24 202.635 424.021 202.391 424.969 202.391C425.979 202.391 426.794 202.641 427.414 203.141C428.039 203.641 428.352 204.289 428.352 205.086H426.453C426.453 204.721 426.318 204.419 426.047 204.18C425.776 203.935 425.417 203.812 424.969 203.812C424.552 203.812 424.211 203.909 423.945 204.102C423.685 204.294 423.555 204.552 423.555 204.875C423.555 205.167 423.677 205.393 423.922 205.555C424.167 205.716 424.661 205.88 425.406 206.047C426.151 206.208 426.734 206.404 427.156 206.633C427.583 206.857 427.898 207.128 428.102 207.445C428.31 207.763 428.414 208.148 428.414 208.602C428.414 209.362 428.099 209.979 427.469 210.453C426.839 210.922 426.013 211.156 424.992 211.156C424.299 211.156 423.682 211.031 423.141 210.781C422.599 210.531 422.177 210.188 421.875 209.75C421.573 209.312 421.422 208.841 421.422 208.336H423.266C423.292 208.784 423.461 209.13 423.773 209.375C424.086 209.615 424.5 209.734 425.016 209.734C425.516 209.734 425.896 209.641 426.156 209.453C426.417 209.26 426.547 209.01 426.547 208.703Z" fill="#4B2F83"/>
<path d="M291.5 154.5H470.5V249C470.5 253.142 467.142 256.5 463 256.5H299C294.858 256.5 291.5 253.142 291.5 249V154.5Z" stroke="#4B2F83"/>
</g>
<g filter="url(#filter3_d)">
<path d="M292 534C292 529.582 295.582 526 300 526H464C468.418 526 472 529.582 472 534V550H292V534Z" fill="#BEBEFF"/>
<circle cx="304" cy="538" r="4" fill="#4B2F83"/>
<circle cx="318" cy="538" r="4" fill="#4B2F83"/>
<circle cx="332" cy="538" r="4" fill="#4B2F83"/>
<path d="M292.5 534C292.5 529.858 295.858 526.5 300 526.5H464C468.142 526.5 471.5 529.858 471.5 534V549.5H292.5V534Z" stroke="#4B2F83"/>
</g>
<g filter="url(#filter4_d)">
<path d="M292 549H472V644C472 648.418 468.418 652 464 652H300C295.582 652 292 648.418 292 644V549Z" fill="white"/>
<path d="M348.086 601.773V606H346.109V594.625H350.461C351.732 594.625 352.74 594.956 353.484 595.617C354.234 596.279 354.609 597.154 354.609 598.242C354.609 599.357 354.242 600.224 353.508 600.844C352.779 601.464 351.755 601.773 350.438 601.773H348.086ZM348.086 600.188H350.461C351.164 600.188 351.701 600.023 352.07 599.695C352.44 599.362 352.625 598.883 352.625 598.258C352.625 597.643 352.438 597.154 352.062 596.789C351.688 596.419 351.172 596.229 350.516 596.219H348.086V600.188ZM355.695 601.695C355.695 600.867 355.859 600.122 356.188 599.461C356.516 598.794 356.977 598.284 357.57 597.93C358.164 597.57 358.846 597.391 359.617 597.391C360.758 597.391 361.682 597.758 362.391 598.492C363.104 599.227 363.49 600.201 363.547 601.414L363.555 601.859C363.555 602.693 363.393 603.438 363.07 604.094C362.753 604.75 362.294 605.258 361.695 605.617C361.102 605.977 360.414 606.156 359.633 606.156C358.44 606.156 357.484 605.76 356.766 604.969C356.052 604.172 355.695 603.112 355.695 601.789V601.695ZM357.594 601.859C357.594 602.729 357.773 603.411 358.133 603.906C358.492 604.396 358.992 604.641 359.633 604.641C360.273 604.641 360.771 604.391 361.125 603.891C361.484 603.391 361.664 602.659 361.664 601.695C361.664 600.841 361.479 600.164 361.109 599.664C360.745 599.164 360.247 598.914 359.617 598.914C358.997 598.914 358.505 599.161 358.141 599.656C357.776 600.146 357.594 600.88 357.594 601.859ZM369.898 603.703C369.898 603.365 369.758 603.107 369.477 602.93C369.201 602.753 368.74 602.596 368.094 602.461C367.448 602.326 366.909 602.154 366.477 601.945C365.529 601.487 365.055 600.823 365.055 599.953C365.055 599.224 365.362 598.615 365.977 598.125C366.591 597.635 367.372 597.391 368.32 597.391C369.331 597.391 370.146 597.641 370.766 598.141C371.391 598.641 371.703 599.289 371.703 600.086H369.805C369.805 599.721 369.669 599.419 369.398 599.18C369.128 598.935 368.768 598.812 368.32 598.812C367.904 598.812 367.562 598.909 367.297 599.102C367.036 599.294 366.906 599.552 366.906 599.875C366.906 600.167 367.029 600.393 367.273 600.555C367.518 600.716 368.013 600.88 368.758 601.047C369.503 601.208 370.086 601.404 370.508 601.633C370.935 601.857 371.25 602.128 371.453 602.445C371.661 602.763 371.766 603.148 371.766 603.602C371.766 604.362 371.451 604.979 370.82 605.453C370.19 605.922 369.365 606.156 368.344 606.156C367.651 606.156 367.034 606.031 366.492 605.781C365.951 605.531 365.529 605.188 365.227 604.75C364.924 604.312 364.773 603.841 364.773 603.336H366.617C366.643 603.784 366.812 604.13 367.125 604.375C367.438 604.615 367.852 604.734 368.367 604.734C368.867 604.734 369.247 604.641 369.508 604.453C369.768 604.26 369.898 604.01 369.898 603.703ZM375.805 595.492V597.547H377.297V598.953H375.805V603.672C375.805 603.995 375.867 604.229 375.992 604.375C376.122 604.516 376.352 604.586 376.68 604.586C376.898 604.586 377.12 604.56 377.344 604.508V605.977C376.911 606.096 376.495 606.156 376.094 606.156C374.635 606.156 373.906 605.352 373.906 603.742V598.953H372.516V597.547H373.906V595.492H375.805ZM389.477 601.18H384.898V606H382.922V594.625H390.148V596.219H384.898V599.602H389.477V601.18ZM391.008 601.695C391.008 600.867 391.172 600.122 391.5 599.461C391.828 598.794 392.289 598.284 392.883 597.93C393.477 597.57 394.159 597.391 394.93 597.391C396.07 597.391 396.995 597.758 397.703 598.492C398.417 599.227 398.802 600.201 398.859 601.414L398.867 601.859C398.867 602.693 398.706 603.438 398.383 604.094C398.065 604.75 397.607 605.258 397.008 605.617C396.414 605.977 395.727 606.156 394.945 606.156C393.753 606.156 392.797 605.76 392.078 604.969C391.365 604.172 391.008 603.112 391.008 601.789V601.695ZM392.906 601.859C392.906 602.729 393.086 603.411 393.445 603.906C393.805 604.396 394.305 604.641 394.945 604.641C395.586 604.641 396.083 604.391 396.438 603.891C396.797 603.391 396.977 602.659 396.977 601.695C396.977 600.841 396.792 600.164 396.422 599.664C396.057 599.164 395.56 598.914 394.93 598.914C394.31 598.914 393.818 599.161 393.453 599.656C393.089 600.146 392.906 600.88 392.906 601.859ZM404.898 599.281C404.648 599.24 404.391 599.219 404.125 599.219C403.255 599.219 402.669 599.552 402.367 600.219V606H400.469V597.547H402.281L402.328 598.492C402.786 597.758 403.422 597.391 404.234 597.391C404.505 597.391 404.729 597.427 404.906 597.5L404.898 599.281ZM407.883 597.547L407.938 598.43C408.531 597.737 409.344 597.391 410.375 597.391C411.505 597.391 412.279 597.823 412.695 598.688C413.31 597.823 414.174 597.391 415.289 597.391C416.221 597.391 416.914 597.648 417.367 598.164C417.826 598.68 418.06 599.44 418.07 600.445V606H416.172V600.5C416.172 599.964 416.055 599.57 415.82 599.32C415.586 599.07 415.198 598.945 414.656 598.945C414.224 598.945 413.87 599.062 413.594 599.297C413.323 599.526 413.133 599.828 413.023 600.203L413.031 606H411.133V600.438C411.107 599.443 410.599 598.945 409.609 598.945C408.849 598.945 408.31 599.255 407.992 599.875V606H406.094V597.547H407.883Z" fill="#4B2F83"/>
<path d="M292.5 549.5H471.5V644C471.5 648.142 468.142 651.5 464 651.5H300C295.858 651.5 292.5 648.142 292.5 644V549.5Z" stroke="#4B2F83"/>
</g>
<g filter="url(#filter5_d)">
<path d="M294 776C294 771.582 297.582 768 302 768H466C470.418 768 474 771.582 474 776V792H294V776Z" fill="#BEBEFF"/>
<circle cx="306" cy="780" r="4" fill="#4B2F83"/>
<circle cx="320" cy="780" r="4" fill="#4B2F83"/>
<circle cx="334" cy="780" r="4" fill="#4B2F83"/>
<path d="M294.5 776C294.5 771.858 297.858 768.5 302 768.5H466C470.142 768.5 473.5 771.858 473.5 776V791.5H294.5V776Z" stroke="#4B2F83"/>
</g>
<g filter="url(#filter6_d)">
<path d="M294 791H474V886C474 890.418 470.418 894 466 894H302C297.582 894 294 890.418 294 886V791Z" fill="white"/>
<path d="M333.031 845.352H328.625L327.703 848H325.648L329.945 836.625H331.719L336.023 848H333.961L333.031 845.352ZM329.18 843.758H332.477L330.828 839.039L329.18 843.758ZM338.523 839.547L338.578 840.523C339.203 839.768 340.023 839.391 341.039 839.391C342.799 839.391 343.695 840.398 343.727 842.414V848H341.828V842.523C341.828 841.987 341.711 841.591 341.477 841.336C341.247 841.076 340.87 840.945 340.344 840.945C339.578 840.945 339.008 841.292 338.633 841.984V848H336.734V839.547H338.523ZM347.43 839.547L347.484 840.523C348.109 839.768 348.93 839.391 349.945 839.391C351.706 839.391 352.602 840.398 352.633 842.414V848H350.734V842.523C350.734 841.987 350.617 841.591 350.383 841.336C350.154 841.076 349.776 840.945 349.25 840.945C348.484 840.945 347.914 841.292 347.539 841.984V848H345.641V839.547H347.43ZM354.219 843.695C354.219 842.867 354.383 842.122 354.711 841.461C355.039 840.794 355.5 840.284 356.094 839.93C356.688 839.57 357.37 839.391 358.141 839.391C359.281 839.391 360.206 839.758 360.914 840.492C361.628 841.227 362.013 842.201 362.07 843.414L362.078 843.859C362.078 844.693 361.917 845.438 361.594 846.094C361.276 846.75 360.818 847.258 360.219 847.617C359.625 847.977 358.938 848.156 358.156 848.156C356.964 848.156 356.008 847.76 355.289 846.969C354.576 846.172 354.219 845.112 354.219 843.789V843.695ZM356.117 843.859C356.117 844.729 356.297 845.411 356.656 845.906C357.016 846.396 357.516 846.641 358.156 846.641C358.797 846.641 359.294 846.391 359.648 845.891C360.008 845.391 360.188 844.659 360.188 843.695C360.188 842.841 360.003 842.164 359.633 841.664C359.268 841.164 358.771 840.914 358.141 840.914C357.521 840.914 357.029 841.161 356.664 841.656C356.299 842.146 356.117 842.88 356.117 843.859ZM368.805 847.172C368.247 847.828 367.456 848.156 366.43 848.156C365.513 848.156 364.818 847.888 364.344 847.352C363.875 846.815 363.641 846.039 363.641 845.023V839.547H365.539V845C365.539 846.073 365.984 846.609 366.875 846.609C367.797 846.609 368.419 846.279 368.742 845.617V839.547H370.641V848H368.852L368.805 847.172ZM374.336 839.547L374.391 840.523C375.016 839.768 375.836 839.391 376.852 839.391C378.612 839.391 379.508 840.398 379.539 842.414V848H377.641V842.523C377.641 841.987 377.523 841.591 377.289 841.336C377.06 841.076 376.682 840.945 376.156 840.945C375.391 840.945 374.82 841.292 374.445 841.984V848H372.547V839.547H374.336ZM384.953 846.641C385.427 846.641 385.82 846.503 386.133 846.227C386.445 845.951 386.612 845.609 386.633 845.203H388.422C388.401 845.729 388.237 846.221 387.93 846.68C387.622 847.133 387.206 847.492 386.68 847.758C386.154 848.023 385.586 848.156 384.977 848.156C383.794 848.156 382.857 847.773 382.164 847.008C381.471 846.242 381.125 845.185 381.125 843.836V843.641C381.125 842.354 381.469 841.326 382.156 840.555C382.844 839.779 383.781 839.391 384.969 839.391C385.974 839.391 386.792 839.685 387.422 840.273C388.057 840.857 388.391 841.625 388.422 842.578H386.633C386.612 842.094 386.445 841.695 386.133 841.383C385.826 841.07 385.432 840.914 384.953 840.914C384.339 840.914 383.865 841.138 383.531 841.586C383.198 842.029 383.029 842.703 383.023 843.609V843.914C383.023 844.831 383.188 845.516 383.516 845.969C383.849 846.417 384.328 846.641 384.953 846.641ZM393.578 848.156C392.375 848.156 391.398 847.779 390.648 847.023C389.904 846.263 389.531 845.253 389.531 843.992V843.758C389.531 842.914 389.693 842.161 390.016 841.5C390.344 840.833 390.802 840.315 391.391 839.945C391.979 839.576 392.635 839.391 393.359 839.391C394.51 839.391 395.398 839.758 396.023 840.492C396.654 841.227 396.969 842.266 396.969 843.609V844.375H391.445C391.503 845.073 391.734 845.625 392.141 846.031C392.552 846.438 393.068 846.641 393.688 846.641C394.557 846.641 395.266 846.289 395.812 845.586L396.836 846.562C396.497 847.068 396.044 847.461 395.477 847.742C394.914 848.018 394.281 848.156 393.578 848.156ZM393.352 840.914C392.831 840.914 392.409 841.096 392.086 841.461C391.768 841.826 391.565 842.333 391.477 842.984H395.094V842.844C395.052 842.208 394.883 841.729 394.586 841.406C394.289 841.078 393.878 840.914 393.352 840.914ZM400.234 839.547L400.289 840.43C400.883 839.737 401.695 839.391 402.727 839.391C403.857 839.391 404.63 839.823 405.047 840.688C405.661 839.823 406.526 839.391 407.641 839.391C408.573 839.391 409.266 839.648 409.719 840.164C410.177 840.68 410.411 841.44 410.422 842.445V848H408.523V842.5C408.523 841.964 408.406 841.57 408.172 841.32C407.938 841.07 407.549 840.945 407.008 840.945C406.576 840.945 406.221 841.062 405.945 841.297C405.674 841.526 405.484 841.828 405.375 842.203L405.383 848H403.484V842.438C403.458 841.443 402.951 840.945 401.961 840.945C401.201 840.945 400.661 841.255 400.344 841.875V848H398.445V839.547H400.234ZM416.094 848.156C414.891 848.156 413.914 847.779 413.164 847.023C412.419 846.263 412.047 845.253 412.047 843.992V843.758C412.047 842.914 412.208 842.161 412.531 841.5C412.859 840.833 413.318 840.315 413.906 839.945C414.495 839.576 415.151 839.391 415.875 839.391C417.026 839.391 417.914 839.758 418.539 840.492C419.169 841.227 419.484 842.266 419.484 843.609V844.375H413.961C414.018 845.073 414.25 845.625 414.656 846.031C415.068 846.438 415.583 846.641 416.203 846.641C417.073 846.641 417.781 846.289 418.328 845.586L419.352 846.562C419.013 847.068 418.56 847.461 417.992 847.742C417.43 848.018 416.797 848.156 416.094 848.156ZM415.867 840.914C415.346 840.914 414.924 841.096 414.602 841.461C414.284 841.826 414.081 842.333 413.992 842.984H417.609V842.844C417.568 842.208 417.398 841.729 417.102 841.406C416.805 841.078 416.393 840.914 415.867 840.914ZM422.727 839.547L422.781 840.523C423.406 839.768 424.227 839.391 425.242 839.391C427.003 839.391 427.898 840.398 427.93 842.414V848H426.031V842.523C426.031 841.987 425.914 841.591 425.68 841.336C425.451 841.076 425.073 840.945 424.547 840.945C423.781 840.945 423.211 841.292 422.836 841.984V848H420.938V839.547H422.727ZM432.25 837.492V839.547H433.742V840.953H432.25V845.672C432.25 845.995 432.312 846.229 432.438 846.375C432.568 846.516 432.797 846.586 433.125 846.586C433.344 846.586 433.565 846.56 433.789 846.508V847.977C433.357 848.096 432.94 848.156 432.539 848.156C431.081 848.156 430.352 847.352 430.352 845.742V840.953H428.961V839.547H430.352V837.492H432.25ZM439.938 845.703C439.938 845.365 439.797 845.107 439.516 844.93C439.24 844.753 438.779 844.596 438.133 844.461C437.487 844.326 436.948 844.154 436.516 843.945C435.568 843.487 435.094 842.823 435.094 841.953C435.094 841.224 435.401 840.615 436.016 840.125C436.63 839.635 437.411 839.391 438.359 839.391C439.37 839.391 440.185 839.641 440.805 840.141C441.43 840.641 441.742 841.289 441.742 842.086H439.844C439.844 841.721 439.708 841.419 439.438 841.18C439.167 840.935 438.807 840.812 438.359 840.812C437.943 840.812 437.602 840.909 437.336 841.102C437.076 841.294 436.945 841.552 436.945 841.875C436.945 842.167 437.068 842.393 437.312 842.555C437.557 842.716 438.052 842.88 438.797 843.047C439.542 843.208 440.125 843.404 440.547 843.633C440.974 843.857 441.289 844.128 441.492 844.445C441.701 844.763 441.805 845.148 441.805 845.602C441.805 846.362 441.49 846.979 440.859 847.453C440.229 847.922 439.404 848.156 438.383 848.156C437.69 848.156 437.073 848.031 436.531 847.781C435.99 847.531 435.568 847.188 435.266 846.75C434.964 846.312 434.812 845.841 434.812 845.336H436.656C436.682 845.784 436.852 846.13 437.164 846.375C437.477 846.615 437.891 846.734 438.406 846.734C438.906 846.734 439.286 846.641 439.547 846.453C439.807 846.26 439.938 846.01 439.938 845.703Z" fill="#4B2F83"/>
<path d="M294.5 791.5H473.5V886C473.5 890.142 470.142 893.5 466 893.5H302C297.858 893.5 294.5 890.142 294.5 886V791.5Z" stroke="#4B2F83"/>
</g>
<path d="M727.764 169L720.311 147.537H720.17C720.369 150.725 720.469 153.713 720.469 156.502V169H716.654V143.301H722.578L729.715 163.744H729.82L737.168 143.301H743.109V169H739.066V156.291C739.066 155.014 739.096 153.35 739.154 151.299C739.225 149.248 739.283 148.006 739.33 147.572H739.189L731.473 169H727.764ZM761.602 169L760.775 166.293H760.635C759.697 167.477 758.754 168.285 757.805 168.719C756.855 169.141 755.637 169.352 754.148 169.352C752.238 169.352 750.744 168.836 749.666 167.805C748.6 166.773 748.066 165.314 748.066 163.428C748.066 161.424 748.811 159.912 750.299 158.893C751.787 157.873 754.055 157.316 757.102 157.223L760.459 157.117V156.08C760.459 154.838 760.166 153.912 759.58 153.303C759.006 152.682 758.109 152.371 756.891 152.371C755.895 152.371 754.939 152.518 754.025 152.811C753.111 153.104 752.232 153.449 751.389 153.848L750.053 150.895C751.107 150.344 752.262 149.928 753.516 149.646C754.77 149.354 755.953 149.207 757.066 149.207C759.539 149.207 761.402 149.746 762.656 150.824C763.922 151.902 764.555 153.596 764.555 155.904V169H761.602ZM755.449 166.188C756.949 166.188 758.15 165.771 759.053 164.939C759.967 164.096 760.424 162.918 760.424 161.406V159.719L757.928 159.824C755.982 159.895 754.564 160.223 753.674 160.809C752.795 161.383 752.355 162.268 752.355 163.463C752.355 164.33 752.613 165.004 753.129 165.484C753.645 165.953 754.418 166.188 755.449 166.188ZM774.311 158.734L776.648 155.816L782.52 149.559H787.283L779.461 157.908L787.775 169H782.924L776.684 160.475L774.416 162.338V169H770.32V141.648H774.416V154.99L774.205 158.734H774.311ZM795.053 169H790.922V149.559H795.053V169ZM790.676 144.408C790.676 143.67 790.875 143.102 791.273 142.703C791.684 142.305 792.264 142.105 793.014 142.105C793.74 142.105 794.303 142.305 794.701 142.703C795.111 143.102 795.316 143.67 795.316 144.408C795.316 145.111 795.111 145.668 794.701 146.078C794.303 146.477 793.74 146.676 793.014 146.676C792.264 146.676 791.684 146.477 791.273 146.078C790.875 145.668 790.676 145.111 790.676 144.408ZM818.08 169H813.932V157.047C813.932 155.547 813.627 154.428 813.018 153.689C812.42 152.951 811.465 152.582 810.152 152.582C808.406 152.582 807.129 153.098 806.32 154.129C805.512 155.16 805.107 156.889 805.107 159.314V169H800.977V149.559H804.211L804.791 152.107H805.002C805.588 151.182 806.42 150.467 807.498 149.963C808.576 149.459 809.771 149.207 811.084 149.207C815.748 149.207 818.08 151.58 818.08 156.326V169ZM840.246 149.559V151.826L836.924 152.441C837.229 152.852 837.48 153.355 837.68 153.953C837.879 154.551 837.979 155.184 837.979 155.852C837.979 157.855 837.287 159.432 835.904 160.58C834.521 161.729 832.617 162.303 830.191 162.303C829.57 162.303 829.008 162.256 828.504 162.162C827.613 162.713 827.168 163.357 827.168 164.096C827.168 164.541 827.373 164.875 827.783 165.098C828.205 165.32 828.973 165.432 830.086 165.432H833.479C835.623 165.432 837.252 165.889 838.365 166.803C839.479 167.717 840.035 169.035 840.035 170.758C840.035 172.961 839.127 174.66 837.311 175.855C835.494 177.051 832.869 177.648 829.436 177.648C826.787 177.648 824.766 177.18 823.371 176.242C821.977 175.305 821.279 173.969 821.279 172.234C821.279 171.039 821.654 170.031 822.404 169.211C823.166 168.402 824.227 167.84 825.586 167.523C825.035 167.289 824.578 166.914 824.215 166.398C823.863 165.871 823.688 165.32 823.688 164.746C823.688 164.02 823.893 163.404 824.303 162.9C824.713 162.396 825.322 161.898 826.131 161.406C825.123 160.973 824.303 160.27 823.67 159.297C823.049 158.312 822.738 157.164 822.738 155.852C822.738 153.742 823.4 152.107 824.725 150.947C826.061 149.787 827.959 149.207 830.42 149.207C830.971 149.207 831.545 149.248 832.143 149.33C832.752 149.4 833.209 149.477 833.514 149.559H840.246ZM824.971 172.023C824.971 172.914 825.369 173.6 826.166 174.08C826.975 174.561 828.105 174.801 829.559 174.801C831.809 174.801 833.484 174.479 834.586 173.834C835.688 173.189 836.238 172.334 836.238 171.268C836.238 170.424 835.934 169.82 835.324 169.457C834.727 169.105 833.607 168.93 831.967 168.93H828.838C827.654 168.93 826.711 169.205 826.008 169.756C825.316 170.318 824.971 171.074 824.971 172.023ZM826.746 155.852C826.746 157.07 827.057 158.008 827.678 158.664C828.311 159.32 829.213 159.648 830.385 159.648C832.775 159.648 833.971 158.371 833.971 155.816C833.971 154.551 833.672 153.578 833.074 152.898C832.488 152.207 831.592 151.861 830.385 151.861C829.189 151.861 828.281 152.201 827.66 152.881C827.051 153.561 826.746 154.551 826.746 155.852ZM865.383 169L864.557 166.293H864.416C863.479 167.477 862.535 168.285 861.586 168.719C860.637 169.141 859.418 169.352 857.93 169.352C856.02 169.352 854.525 168.836 853.447 167.805C852.381 166.773 851.848 165.314 851.848 163.428C851.848 161.424 852.592 159.912 854.08 158.893C855.568 157.873 857.836 157.316 860.883 157.223L864.24 157.117V156.08C864.24 154.838 863.947 153.912 863.361 153.303C862.787 152.682 861.891 152.371 860.672 152.371C859.676 152.371 858.721 152.518 857.807 152.811C856.893 153.104 856.014 153.449 855.17 153.848L853.834 150.895C854.889 150.344 856.043 149.928 857.297 149.646C858.551 149.354 859.734 149.207 860.848 149.207C863.32 149.207 865.184 149.746 866.438 150.824C867.703 151.902 868.336 153.596 868.336 155.904V169H865.383ZM859.23 166.188C860.73 166.188 861.932 165.771 862.834 164.939C863.748 164.096 864.205 162.918 864.205 161.406V159.719L861.709 159.824C859.764 159.895 858.346 160.223 857.455 160.809C856.576 161.383 856.137 162.268 856.137 163.463C856.137 164.33 856.395 165.004 856.91 165.484C857.426 165.953 858.199 166.188 859.23 166.188ZM891.205 169H887.057V157.047C887.057 155.547 886.752 154.428 886.143 153.689C885.545 152.951 884.59 152.582 883.277 152.582C881.531 152.582 880.254 153.098 879.445 154.129C878.637 155.16 878.232 156.889 878.232 159.314V169H874.102V149.559H877.336L877.916 152.107H878.127C878.713 151.182 879.545 150.467 880.623 149.963C881.701 149.459 882.896 149.207 884.209 149.207C888.873 149.207 891.205 151.58 891.205 156.326V169ZM645.375 217L642.809 209.863H632.982L630.469 217H626.039L635.654 191.195H640.225L649.84 217H645.375ZM641.701 206.242L639.293 199.246C639.117 198.777 638.871 198.039 638.555 197.031C638.25 196.023 638.039 195.285 637.922 194.816C637.605 196.258 637.143 197.834 636.533 199.545L634.213 206.242H641.701ZM669.896 217H665.748V205.047C665.748 203.547 665.443 202.428 664.834 201.689C664.236 200.951 663.281 200.582 661.969 200.582C660.223 200.582 658.945 201.098 658.137 202.129C657.328 203.16 656.924 204.889 656.924 207.314V217H652.793V197.559H656.027L656.607 200.107H656.818C657.404 199.182 658.236 198.467 659.314 197.963C660.393 197.459 661.588 197.207 662.9 197.207C667.564 197.207 669.896 199.58 669.896 204.326V217ZM692.748 217H688.6V205.047C688.6 203.547 688.295 202.428 687.686 201.689C687.088 200.951 686.133 200.582 684.82 200.582C683.074 200.582 681.797 201.098 680.988 202.129C680.18 203.16 679.775 204.889 679.775 207.314V217H675.645V197.559H678.879L679.459 200.107H679.67C680.256 199.182 681.088 198.467 682.166 197.963C683.244 197.459 684.439 197.207 685.752 197.207C690.416 197.207 692.748 199.58 692.748 204.326V217ZM715.74 207.244C715.74 210.42 714.926 212.898 713.297 214.68C711.668 216.461 709.4 217.352 706.494 217.352C704.678 217.352 703.072 216.941 701.678 216.121C700.283 215.301 699.211 214.123 698.461 212.588C697.711 211.053 697.336 209.271 697.336 207.244C697.336 204.092 698.145 201.631 699.762 199.861C701.379 198.092 703.658 197.207 706.6 197.207C709.412 197.207 711.639 198.115 713.279 199.932C714.92 201.736 715.74 204.174 715.74 207.244ZM701.59 207.244C701.59 211.732 703.248 213.977 706.564 213.977C709.846 213.977 711.486 211.732 711.486 207.244C711.486 202.803 709.834 200.582 706.529 200.582C704.795 200.582 703.535 201.156 702.75 202.305C701.977 203.453 701.59 205.1 701.59 207.244ZM734.215 217L733.635 214.451H733.424C732.85 215.354 732.029 216.062 730.963 216.578C729.908 217.094 728.701 217.352 727.342 217.352C724.986 217.352 723.229 216.766 722.068 215.594C720.908 214.422 720.328 212.646 720.328 210.268V197.559H724.494V209.547C724.494 211.035 724.799 212.154 725.408 212.904C726.018 213.643 726.973 214.012 728.273 214.012C730.008 214.012 731.279 213.496 732.088 212.465C732.908 211.422 733.318 209.682 733.318 207.244V197.559H737.467V217H734.215ZM760.459 217H756.311V205.047C756.311 203.547 756.006 202.428 755.396 201.689C754.799 200.951 753.844 200.582 752.531 200.582C750.785 200.582 749.508 201.098 748.699 202.129C747.891 203.16 747.486 204.889 747.486 207.314V217H743.355V197.559H746.59L747.17 200.107H747.381C747.967 199.182 748.799 198.467 749.877 197.963C750.955 197.459 752.15 197.207 753.463 197.207C758.127 197.207 760.459 199.58 760.459 204.326V217ZM774.047 217.352C771.105 217.352 768.867 216.496 767.332 214.785C765.809 213.062 765.047 210.596 765.047 207.385C765.047 204.115 765.844 201.602 767.438 199.844C769.043 198.086 771.357 197.207 774.381 197.207C776.432 197.207 778.277 197.588 779.918 198.35L778.67 201.672C776.924 200.992 775.482 200.652 774.346 200.652C770.982 200.652 769.301 202.885 769.301 207.35C769.301 209.529 769.717 211.17 770.549 212.271C771.393 213.361 772.623 213.906 774.24 213.906C776.08 213.906 777.82 213.449 779.461 212.535V216.139C778.723 216.572 777.932 216.883 777.088 217.07C776.256 217.258 775.242 217.352 774.047 217.352ZM792.521 217.352C789.498 217.352 787.131 216.473 785.42 214.715C783.721 212.945 782.871 210.514 782.871 207.42C782.871 204.244 783.662 201.748 785.244 199.932C786.826 198.115 789 197.207 791.766 197.207C794.332 197.207 796.359 197.986 797.848 199.545C799.336 201.104 800.08 203.248 800.08 205.979V208.211H787.125C787.184 210.098 787.693 211.551 788.654 212.57C789.615 213.578 790.969 214.082 792.715 214.082C793.863 214.082 794.93 213.977 795.914 213.766C796.91 213.543 797.977 213.18 799.113 212.676V216.033C798.105 216.514 797.086 216.854 796.055 217.053C795.023 217.252 793.846 217.352 792.521 217.352ZM791.766 200.336C790.453 200.336 789.398 200.752 788.602 201.584C787.816 202.416 787.348 203.629 787.195 205.223H796.02C795.996 203.617 795.609 202.404 794.859 201.584C794.109 200.752 793.078 200.336 791.766 200.336ZM821.156 217H817.008V205.012C817.008 203.523 816.727 202.416 816.164 201.689C815.602 200.951 814.723 200.582 813.527 200.582C811.934 200.582 810.762 201.104 810.012 202.146C809.273 203.178 808.904 204.9 808.904 207.314V217H804.773V197.559H808.008L808.588 200.107H808.799C809.338 199.182 810.117 198.467 811.137 197.963C812.168 197.459 813.299 197.207 814.529 197.207C817.518 197.207 819.498 198.227 820.471 200.266H820.752C821.326 199.305 822.135 198.555 823.178 198.016C824.221 197.477 825.416 197.207 826.764 197.207C829.084 197.207 830.771 197.793 831.826 198.965C832.893 200.137 833.426 201.924 833.426 204.326V217H829.295V205.012C829.295 203.523 829.008 202.416 828.434 201.689C827.871 200.951 826.992 200.582 825.797 200.582C824.191 200.582 823.014 201.086 822.264 202.094C821.525 203.09 821.156 204.625 821.156 206.699V217ZM847.682 217.352C844.658 217.352 842.291 216.473 840.58 214.715C838.881 212.945 838.031 210.514 838.031 207.42C838.031 204.244 838.822 201.748 840.404 199.932C841.986 198.115 844.16 197.207 846.926 197.207C849.492 197.207 851.52 197.986 853.008 199.545C854.496 201.104 855.24 203.248 855.24 205.979V208.211H842.285C842.344 210.098 842.854 211.551 843.814 212.57C844.775 213.578 846.129 214.082 847.875 214.082C849.023 214.082 850.09 213.977 851.074 213.766C852.07 213.543 853.137 213.18 854.273 212.676V216.033C853.266 216.514 852.246 216.854 851.215 217.053C850.184 217.252 849.006 217.352 847.682 217.352ZM846.926 200.336C845.613 200.336 844.559 200.752 843.762 201.584C842.977 202.416 842.508 203.629 842.355 205.223H851.18C851.156 203.617 850.77 202.404 850.02 201.584C849.27 200.752 848.238 200.336 846.926 200.336ZM877.037 217H872.889V205.047C872.889 203.547 872.584 202.428 871.975 201.689C871.377 200.951 870.422 200.582 869.109 200.582C867.363 200.582 866.086 201.098 865.277 202.129C864.469 203.16 864.064 204.889 864.064 207.314V217H859.934V197.559H863.168L863.748 200.107H863.959C864.545 199.182 865.377 198.467 866.455 197.963C867.533 197.459 868.729 197.207 870.041 197.207C874.705 197.207 877.037 199.58 877.037 204.326V217ZM890.027 214.012C891.035 214.012 892.043 213.854 893.051 213.537V216.648C892.594 216.848 892.002 217.012 891.275 217.141C890.561 217.281 889.816 217.352 889.043 217.352C885.129 217.352 883.172 215.289 883.172 211.164V200.688H880.518V198.859L883.365 197.348L884.771 193.234H887.32V197.559H892.857V200.688H887.32V211.094C887.32 212.09 887.566 212.828 888.059 213.309C888.562 213.777 889.219 214.012 890.027 214.012Z" fill="#4B2F83"/>
<g filter="url(#filter7_d)">
<path d="M279 375C279 370.582 282.582 367 287 367H474C478.418 367 482 370.582 482 375V422C482 426.418 478.418 430 474 430H287C282.582 430 279 426.418 279 422V375Z" fill="#EEEEFF"/>
<path d="M342.273 400.391C342.133 401.594 341.688 402.523 340.938 403.18C340.193 403.831 339.201 404.156 337.961 404.156C336.617 404.156 335.539 403.674 334.727 402.711C333.919 401.747 333.516 400.458 333.516 398.844V397.75C333.516 396.693 333.703 395.763 334.078 394.961C334.458 394.159 334.995 393.544 335.688 393.117C336.38 392.685 337.182 392.469 338.094 392.469C339.302 392.469 340.271 392.807 341 393.484C341.729 394.156 342.154 395.089 342.273 396.281H340.766C340.635 395.375 340.352 394.719 339.914 394.312C339.482 393.906 338.875 393.703 338.094 393.703C337.135 393.703 336.383 394.057 335.836 394.766C335.294 395.474 335.023 396.482 335.023 397.789V398.891C335.023 400.125 335.281 401.107 335.797 401.836C336.312 402.565 337.034 402.93 337.961 402.93C338.794 402.93 339.432 402.742 339.875 402.367C340.323 401.987 340.62 401.328 340.766 400.391H342.273ZM348.188 396.844C347.969 396.807 347.732 396.789 347.477 396.789C346.529 396.789 345.885 397.193 345.547 398V404H344.102V395.547H345.508L345.531 396.523C346.005 395.768 346.677 395.391 347.547 395.391C347.828 395.391 348.042 395.427 348.188 395.5V396.844ZM352.875 404.156C351.729 404.156 350.797 403.781 350.078 403.031C349.359 402.276 349 401.268 349 400.008V399.742C349 398.904 349.159 398.156 349.477 397.5C349.799 396.839 350.247 396.323 350.82 395.953C351.398 395.578 352.023 395.391 352.695 395.391C353.794 395.391 354.648 395.753 355.258 396.477C355.867 397.201 356.172 398.237 356.172 399.586V400.188H350.445C350.466 401.021 350.708 401.695 351.172 402.211C351.641 402.721 352.234 402.977 352.953 402.977C353.464 402.977 353.896 402.872 354.25 402.664C354.604 402.456 354.914 402.18 355.18 401.836L356.062 402.523C355.354 403.612 354.292 404.156 352.875 404.156ZM352.695 396.578C352.112 396.578 351.622 396.792 351.227 397.219C350.831 397.641 350.586 398.234 350.492 399H354.727V398.891C354.685 398.156 354.487 397.589 354.133 397.188C353.779 396.781 353.299 396.578 352.695 396.578ZM363.07 404C362.987 403.833 362.919 403.536 362.867 403.109C362.195 403.807 361.393 404.156 360.461 404.156C359.628 404.156 358.943 403.922 358.406 403.453C357.875 402.979 357.609 402.38 357.609 401.656C357.609 400.776 357.943 400.094 358.609 399.609C359.281 399.12 360.224 398.875 361.438 398.875H362.844V398.211C362.844 397.706 362.693 397.305 362.391 397.008C362.089 396.706 361.643 396.555 361.055 396.555C360.539 396.555 360.107 396.685 359.758 396.945C359.409 397.206 359.234 397.521 359.234 397.891H357.781C357.781 397.469 357.93 397.062 358.227 396.672C358.529 396.276 358.935 395.964 359.445 395.734C359.961 395.505 360.526 395.391 361.141 395.391C362.115 395.391 362.878 395.635 363.43 396.125C363.982 396.609 364.268 397.279 364.289 398.133V402.023C364.289 402.799 364.388 403.417 364.586 403.875V404H363.07ZM360.672 402.898C361.125 402.898 361.555 402.781 361.961 402.547C362.367 402.312 362.661 402.008 362.844 401.633V399.898H361.711C359.94 399.898 359.055 400.417 359.055 401.453C359.055 401.906 359.206 402.26 359.508 402.516C359.81 402.771 360.198 402.898 360.672 402.898ZM368.516 393.5V395.547H370.094V396.664H368.516V401.906C368.516 402.245 368.586 402.5 368.727 402.672C368.867 402.839 369.107 402.922 369.445 402.922C369.612 402.922 369.841 402.891 370.133 402.828V404C369.753 404.104 369.383 404.156 369.023 404.156C368.378 404.156 367.891 403.961 367.562 403.57C367.234 403.18 367.07 402.625 367.07 401.906V396.664H365.531V395.547H367.07V393.5H368.516ZM375.297 404.156C374.151 404.156 373.219 403.781 372.5 403.031C371.781 402.276 371.422 401.268 371.422 400.008V399.742C371.422 398.904 371.581 398.156 371.898 397.5C372.221 396.839 372.669 396.323 373.242 395.953C373.82 395.578 374.445 395.391 375.117 395.391C376.216 395.391 377.07 395.753 377.68 396.477C378.289 397.201 378.594 398.237 378.594 399.586V400.188H372.867C372.888 401.021 373.13 401.695 373.594 402.211C374.062 402.721 374.656 402.977 375.375 402.977C375.885 402.977 376.318 402.872 376.672 402.664C377.026 402.456 377.336 402.18 377.602 401.836L378.484 402.523C377.776 403.612 376.714 404.156 375.297 404.156ZM375.117 396.578C374.534 396.578 374.044 396.792 373.648 397.219C373.253 397.641 373.008 398.234 372.914 399H377.148V398.891C377.107 398.156 376.909 397.589 376.555 397.188C376.201 396.781 375.721 396.578 375.117 396.578ZM389.461 404C389.378 403.833 389.31 403.536 389.258 403.109C388.586 403.807 387.784 404.156 386.852 404.156C386.018 404.156 385.333 403.922 384.797 403.453C384.266 402.979 384 402.38 384 401.656C384 400.776 384.333 400.094 385 399.609C385.672 399.12 386.615 398.875 387.828 398.875H389.234V398.211C389.234 397.706 389.083 397.305 388.781 397.008C388.479 396.706 388.034 396.555 387.445 396.555C386.93 396.555 386.497 396.685 386.148 396.945C385.799 397.206 385.625 397.521 385.625 397.891H384.172C384.172 397.469 384.32 397.062 384.617 396.672C384.919 396.276 385.326 395.964 385.836 395.734C386.352 395.505 386.917 395.391 387.531 395.391C388.505 395.391 389.268 395.635 389.82 396.125C390.372 396.609 390.659 397.279 390.68 398.133V402.023C390.68 402.799 390.779 403.417 390.977 403.875V404H389.461ZM387.062 402.898C387.516 402.898 387.945 402.781 388.352 402.547C388.758 402.312 389.052 402.008 389.234 401.633V399.898H388.102C386.331 399.898 385.445 400.417 385.445 401.453C385.445 401.906 385.596 402.26 385.898 402.516C386.201 402.771 386.589 402.898 387.062 402.898ZM398.641 399.547V404H397.141V392.625H401.336C402.581 392.625 403.555 392.943 404.258 393.578C404.966 394.214 405.32 395.055 405.32 396.102C405.32 397.206 404.974 398.057 404.281 398.656C403.594 399.25 402.607 399.547 401.32 399.547H398.641ZM398.641 398.32H401.336C402.138 398.32 402.753 398.133 403.18 397.758C403.607 397.378 403.82 396.831 403.82 396.117C403.82 395.44 403.607 394.898 403.18 394.492C402.753 394.086 402.167 393.875 401.422 393.859H398.641V398.32ZM406.516 399.695C406.516 398.867 406.677 398.122 407 397.461C407.328 396.799 407.781 396.289 408.359 395.93C408.943 395.57 409.607 395.391 410.352 395.391C411.503 395.391 412.432 395.789 413.141 396.586C413.854 397.383 414.211 398.443 414.211 399.766V399.867C414.211 400.69 414.052 401.43 413.734 402.086C413.422 402.737 412.971 403.245 412.383 403.609C411.799 403.974 411.128 404.156 410.367 404.156C409.221 404.156 408.292 403.758 407.578 402.961C406.87 402.164 406.516 401.109 406.516 399.797V399.695ZM407.969 399.867C407.969 400.805 408.185 401.557 408.617 402.125C409.055 402.693 409.638 402.977 410.367 402.977C411.102 402.977 411.685 402.69 412.117 402.117C412.549 401.539 412.766 400.732 412.766 399.695C412.766 398.768 412.544 398.018 412.102 397.445C411.664 396.867 411.081 396.578 410.352 396.578C409.638 396.578 409.062 396.862 408.625 397.43C408.188 397.997 407.969 398.81 407.969 399.867ZM420.945 401.758C420.945 401.367 420.797 401.065 420.5 400.852C420.208 400.633 419.695 400.445 418.961 400.289C418.232 400.133 417.651 399.945 417.219 399.727C416.792 399.508 416.474 399.247 416.266 398.945C416.062 398.643 415.961 398.284 415.961 397.867C415.961 397.174 416.253 396.589 416.836 396.109C417.424 395.63 418.174 395.391 419.086 395.391C420.044 395.391 420.82 395.638 421.414 396.133C422.013 396.628 422.312 397.26 422.312 398.031H420.859C420.859 397.635 420.69 397.294 420.352 397.008C420.018 396.721 419.596 396.578 419.086 396.578C418.56 396.578 418.148 396.693 417.852 396.922C417.555 397.151 417.406 397.451 417.406 397.82C417.406 398.169 417.544 398.432 417.82 398.609C418.096 398.786 418.594 398.956 419.312 399.117C420.036 399.279 420.622 399.471 421.07 399.695C421.518 399.919 421.849 400.19 422.062 400.508C422.281 400.82 422.391 401.203 422.391 401.656C422.391 402.411 422.089 403.018 421.484 403.477C420.88 403.93 420.096 404.156 419.133 404.156C418.456 404.156 417.857 404.036 417.336 403.797C416.815 403.557 416.406 403.224 416.109 402.797C415.818 402.365 415.672 401.898 415.672 401.398H417.117C417.143 401.883 417.336 402.268 417.695 402.555C418.06 402.836 418.539 402.977 419.133 402.977C419.68 402.977 420.117 402.867 420.445 402.648C420.779 402.424 420.945 402.128 420.945 401.758ZM426.234 393.5V395.547H427.812V396.664H426.234V401.906C426.234 402.245 426.305 402.5 426.445 402.672C426.586 402.839 426.826 402.922 427.164 402.922C427.331 402.922 427.56 402.891 427.852 402.828V404C427.471 404.104 427.102 404.156 426.742 404.156C426.096 404.156 425.609 403.961 425.281 403.57C424.953 403.18 424.789 402.625 424.789 401.906V396.664H423.25V395.547H424.789V393.5H426.234Z" fill="#4B2F83"/>
<path d="M287 368H474V366H287V368ZM481 375V422H483V375H481ZM474 429H287V431H474V429ZM280 422V375H278V422H280ZM287 429C283.134 429 280 425.866 280 422H278C278 426.971 282.029 431 287 431V429ZM481 422C481 425.866 477.866 429 474 429V431C478.971 431 483 426.971 483 422H481ZM474 368C477.866 368 481 371.134 481 375H483C483 370.029 478.971 366 474 366V368ZM287 366C282.029 366 278 370.029 278 375H280C280 371.134 283.134 368 287 368V366Z" fill="#4B2F83"/>
</g>
<g filter="url(#filter8_d)">
<path d="M503 601C503 589.954 511.954 581 523 581H579C590.046 581 599 589.954 599 601C599 612.046 590.046 621 579 621H523C511.954 621 503 612.046 503 601Z" fill="#EEEEFF"/>
<path d="M545.647 597.441H542.544V606H540.828V597.441H537.752V596.047H545.647V597.441ZM549.441 606.137C548.389 606.137 547.534 605.806 546.878 605.146C546.226 604.48 545.9 603.596 545.9 602.493V602.288C545.9 601.55 546.042 600.891 546.324 600.312C546.611 599.729 547.012 599.276 547.527 598.952C548.042 598.629 548.617 598.467 549.25 598.467C550.257 598.467 551.034 598.788 551.581 599.431C552.132 600.073 552.408 600.982 552.408 602.158V602.828H547.575C547.625 603.439 547.828 603.922 548.184 604.277C548.544 604.633 548.995 604.811 549.537 604.811C550.298 604.811 550.918 604.503 551.396 603.888L552.292 604.742C551.996 605.184 551.599 605.528 551.103 605.774C550.61 606.016 550.057 606.137 549.441 606.137ZM549.243 599.8C548.787 599.8 548.418 599.959 548.136 600.278C547.858 600.597 547.68 601.042 547.603 601.611H550.768V601.488C550.731 600.932 550.583 600.513 550.323 600.23C550.063 599.943 549.703 599.8 549.243 599.8ZM556.359 601.037L557.768 598.604H559.613L557.351 602.247L559.688 606H557.856L556.38 603.471L554.91 606H553.064L555.402 602.247L553.146 598.604H554.979L556.359 601.037ZM562.826 596.806V598.604H564.132V599.834H562.826V603.963C562.826 604.245 562.881 604.451 562.99 604.578C563.104 604.701 563.305 604.763 563.592 604.763C563.783 604.763 563.977 604.74 564.173 604.694V605.979C563.795 606.084 563.43 606.137 563.079 606.137C561.803 606.137 561.165 605.433 561.165 604.024V599.834H559.948V598.604H561.165V596.806H562.826Z" fill="#4B2F83"/>
<path d="M523 582H579V580H523V582ZM579 620H523V622H579V620ZM523 620C512.507 620 504 611.493 504 601H502C502 612.598 511.402 622 523 622V620ZM598 601C598 611.493 589.493 620 579 620V622C590.598 622 600 612.598 600 601H598ZM579 582C589.493 582 598 590.507 598 601H600C600 589.402 590.598 580 579 580V582ZM523 580C511.402 580 502 589.402 502 601H504C504 590.507 512.507 582 523 582V580Z" fill="#4B2F83"/>
</g>
<g filter="url(#filter9_d)">
<path d="M626 601C626 589.954 634.954 581 646 581H704C715.046 581 724 589.954 724 601C724 612.046 715.046 621 704 621H646C634.954 621 626 612.046 626 601Z" fill="#EEEEFF"/>
<path d="M666.94 601.782H662.935V606H661.205V596.047H667.528V597.441H662.935V600.401H666.94V601.782ZM670.509 606H668.848V598.604H670.509V606ZM668.745 596.683C668.745 596.427 668.825 596.215 668.984 596.047C669.148 595.878 669.381 595.794 669.682 595.794C669.982 595.794 670.215 595.878 670.379 596.047C670.543 596.215 670.625 596.427 670.625 596.683C670.625 596.933 670.543 597.143 670.379 597.312C670.215 597.476 669.982 597.558 669.682 597.558C669.381 597.558 669.148 597.476 668.984 597.312C668.825 597.143 668.745 596.933 668.745 596.683ZM674.091 606H672.43V595.5H674.091V606ZM679.163 606.137C678.11 606.137 677.256 605.806 676.6 605.146C675.948 604.48 675.622 603.596 675.622 602.493V602.288C675.622 601.55 675.763 600.891 676.046 600.312C676.333 599.729 676.734 599.276 677.249 598.952C677.764 598.629 678.338 598.467 678.972 598.467C679.979 598.467 680.756 598.788 681.303 599.431C681.854 600.073 682.13 600.982 682.13 602.158V602.828H677.297C677.347 603.439 677.55 603.922 677.905 604.277C678.265 604.633 678.716 604.811 679.259 604.811C680.02 604.811 680.64 604.503 681.118 603.888L682.014 604.742C681.717 605.184 681.321 605.528 680.824 605.774C680.332 606.016 679.778 606.137 679.163 606.137ZM678.965 599.8C678.509 599.8 678.14 599.959 677.857 600.278C677.579 600.597 677.402 601.042 677.324 601.611H680.489V601.488C680.453 600.932 680.305 600.513 680.045 600.23C679.785 599.943 679.425 599.8 678.965 599.8ZM687.571 603.99C687.571 603.694 687.448 603.468 687.202 603.313C686.961 603.159 686.557 603.022 685.992 602.903C685.427 602.785 684.955 602.634 684.577 602.452C683.748 602.051 683.333 601.47 683.333 600.709C683.333 600.071 683.602 599.538 684.14 599.109C684.677 598.681 685.361 598.467 686.19 598.467C687.075 598.467 687.788 598.686 688.33 599.123C688.877 599.561 689.15 600.128 689.15 600.825H687.489C687.489 600.506 687.371 600.242 687.134 600.032C686.897 599.818 686.582 599.711 686.19 599.711C685.826 599.711 685.527 599.795 685.295 599.964C685.067 600.132 684.953 600.358 684.953 600.641C684.953 600.896 685.06 601.094 685.274 601.235C685.489 601.377 685.922 601.52 686.573 601.666C687.225 601.807 687.735 601.978 688.104 602.179C688.478 602.375 688.754 602.612 688.932 602.89C689.114 603.168 689.205 603.505 689.205 603.901C689.205 604.567 688.929 605.107 688.378 605.521C687.826 605.932 687.104 606.137 686.211 606.137C685.605 606.137 685.065 606.027 684.591 605.809C684.117 605.59 683.748 605.289 683.483 604.906C683.219 604.523 683.087 604.111 683.087 603.669H684.7C684.723 604.061 684.871 604.364 685.145 604.578C685.418 604.788 685.78 604.893 686.231 604.893C686.669 604.893 687.002 604.811 687.229 604.646C687.457 604.478 687.571 604.259 687.571 603.99Z" fill="#4B2F83"/>
<path d="M646 582H704V580H646V582ZM704 620H646V622H704V620ZM646 620C635.507 620 627 611.493 627 601H625C625 612.598 634.402 622 646 622V620ZM723 601C723 611.493 714.493 620 704 620V622C715.598 622 725 612.598 725 601H723ZM704 582C714.493 582 723 590.507 723 601H725C725 589.402 715.598 580 704 580V582ZM646 580C634.402 580 625 589.402 625 601H627C627 590.507 635.507 582 646 582V580Z" fill="#4B2F83"/>
</g>
<g filter="url(#filter10_d)">
<path d="M751 601C751 589.954 759.954 581 771 581H846C857.046 581 866 589.954 866 601C866 612.046 857.046 621 846 621H771C759.954 621 751 612.046 751 601Z" fill="#EEEEFF"/>
<path d="M788.136 606H786.413V596.047H788.136V606ZM791.663 598.604L791.711 599.376C792.23 598.77 792.941 598.467 793.844 598.467C794.833 598.467 795.509 598.845 795.874 599.602C796.412 598.845 797.168 598.467 798.144 598.467C798.959 598.467 799.565 598.692 799.962 599.144C800.363 599.595 800.568 600.26 800.577 601.14V606H798.916V601.188C798.916 600.718 798.813 600.374 798.608 600.155C798.403 599.937 798.064 599.827 797.59 599.827C797.212 599.827 796.902 599.93 796.66 600.135C796.423 600.335 796.257 600.6 796.161 600.928L796.168 606H794.507V601.133C794.484 600.262 794.04 599.827 793.174 599.827C792.508 599.827 792.037 600.098 791.759 600.641V606H790.098V598.604H791.663ZM806.702 606C806.629 605.859 806.565 605.629 806.511 605.31C805.982 605.861 805.335 606.137 804.569 606.137C803.826 606.137 803.22 605.925 802.751 605.501C802.282 605.077 802.047 604.553 802.047 603.929C802.047 603.14 802.339 602.536 802.922 602.117C803.51 601.693 804.348 601.481 805.438 601.481H806.456V600.996C806.456 600.613 806.349 600.308 806.135 600.08C805.921 599.848 805.595 599.731 805.157 599.731C804.779 599.731 804.469 599.827 804.228 600.019C803.986 600.205 803.865 600.445 803.865 600.736H802.204C802.204 600.331 802.339 599.952 802.607 599.602C802.876 599.246 803.241 598.968 803.701 598.768C804.166 598.567 804.683 598.467 805.253 598.467C806.119 598.467 806.809 598.686 807.324 599.123C807.839 599.556 808.104 600.167 808.117 600.955V604.291C808.117 604.956 808.211 605.487 808.397 605.884V606H806.702ZM804.877 604.804C805.205 604.804 805.513 604.724 805.8 604.564C806.091 604.405 806.31 604.191 806.456 603.922V602.527H805.561C804.945 602.527 804.483 602.634 804.173 602.849C803.863 603.063 803.708 603.366 803.708 603.758C803.708 604.077 803.813 604.332 804.022 604.523C804.237 604.71 804.521 604.804 804.877 604.804ZM809.566 602.247C809.566 601.099 809.835 600.183 810.373 599.499C810.915 598.811 811.633 598.467 812.526 598.467C813.369 598.467 814.033 598.761 814.516 599.349L814.591 598.604H816.088V605.774C816.088 606.745 815.785 607.511 815.179 608.071C814.577 608.632 813.764 608.912 812.738 608.912C812.196 608.912 811.665 608.798 811.146 608.57C810.631 608.347 810.239 608.053 809.97 607.688L810.756 606.69C811.266 607.297 811.895 607.6 812.643 607.6C813.194 607.6 813.629 607.449 813.948 607.148C814.267 606.852 814.427 606.415 814.427 605.836V605.337C813.948 605.87 813.31 606.137 812.513 606.137C811.647 606.137 810.938 605.793 810.387 605.104C809.84 604.416 809.566 603.464 809.566 602.247ZM811.221 602.391C811.221 603.133 811.371 603.719 811.672 604.147C811.977 604.571 812.399 604.783 812.937 604.783C813.606 604.783 814.103 604.496 814.427 603.922V600.668C814.112 600.107 813.62 599.827 812.95 599.827C812.403 599.827 811.977 600.044 811.672 600.477C811.371 600.91 811.221 601.548 811.221 602.391ZM821.058 606.137C820.005 606.137 819.15 605.806 818.494 605.146C817.842 604.48 817.517 603.596 817.517 602.493V602.288C817.517 601.55 817.658 600.891 817.94 600.312C818.228 599.729 818.629 599.276 819.144 598.952C819.659 598.629 820.233 598.467 820.866 598.467C821.873 598.467 822.65 598.788 823.197 599.431C823.749 600.073 824.024 600.982 824.024 602.158V602.828H819.191C819.242 603.439 819.444 603.922 819.8 604.277C820.16 604.633 820.611 604.811 821.153 604.811C821.914 604.811 822.534 604.503 823.013 603.888L823.908 604.742C823.612 605.184 823.215 605.528 822.719 605.774C822.227 606.016 821.673 606.137 821.058 606.137ZM820.859 599.8C820.404 599.8 820.035 599.959 819.752 600.278C819.474 600.597 819.296 601.042 819.219 601.611H822.384V601.488C822.347 600.932 822.199 600.513 821.939 600.23C821.68 599.943 821.32 599.8 820.859 599.8ZM829.466 603.99C829.466 603.694 829.343 603.468 829.097 603.313C828.855 603.159 828.452 603.022 827.887 602.903C827.322 602.785 826.85 602.634 826.472 602.452C825.642 602.051 825.228 601.47 825.228 600.709C825.228 600.071 825.496 599.538 826.034 599.109C826.572 598.681 827.256 598.467 828.085 598.467C828.969 598.467 829.682 598.686 830.225 599.123C830.771 599.561 831.045 600.128 831.045 600.825H829.384C829.384 600.506 829.265 600.242 829.028 600.032C828.791 599.818 828.477 599.711 828.085 599.711C827.72 599.711 827.422 599.795 827.189 599.964C826.962 600.132 826.848 600.358 826.848 600.641C826.848 600.896 826.955 601.094 827.169 601.235C827.383 601.377 827.816 601.52 828.468 601.666C829.119 601.807 829.63 601.978 829.999 602.179C830.373 602.375 830.648 602.612 830.826 602.89C831.008 603.168 831.1 603.505 831.1 603.901C831.1 604.567 830.824 605.107 830.272 605.521C829.721 605.932 828.999 606.137 828.105 606.137C827.499 606.137 826.959 606.027 826.485 605.809C826.011 605.59 825.642 605.289 825.378 604.906C825.114 604.523 824.981 604.111 824.981 603.669H826.595C826.618 604.061 826.766 604.364 827.039 604.578C827.312 604.788 827.675 604.893 828.126 604.893C828.563 604.893 828.896 604.811 829.124 604.646C829.352 604.478 829.466 604.259 829.466 603.99Z" fill="#4B2F83"/>
<path d="M771 582H846V580H771V582ZM846 620H771V622H846V620ZM771 620C760.507 620 752 611.493 752 601H750C750 612.598 759.402 622 771 622V620ZM865 601C865 611.493 856.493 620 846 620V622C857.598 622 867 612.598 867 601H865ZM846 582C856.493 582 865 590.507 865 601H867C867 589.402 857.598 580 846 580V582ZM771 580C759.402 580 750 589.402 750 601H752C752 590.507 760.507 582 771 582V580Z" fill="#4B2F83"/>
</g>
<path d="M200 699L200 245C200 222.909 217.909 205 240 205L264.5 205" stroke="#4B2F83" stroke-width="2" stroke-linecap="round" stroke-linejoin="round"/>
<path d="M256 214.474L266 204.731L256 195.5" stroke="#4B2F83" stroke-width="2" stroke-linecap="round" stroke-linejoin="round"/>
<circle r="5.5" transform="matrix(1 -8.74228e-08 -8.74228e-08 -1 199.5 703.5)" fill="#4B2F83"/>
<path d="M200 265L200 803C200 825.091 217.909 843 240 843L264.5 843" stroke="#4B2F83" stroke-width="2" stroke-linecap="round" stroke-linejoin="round"/>
<circle cx="199.5" cy="260.5" r="5.5" fill="#4B2F83"/>
<g filter="url(#filter11_d)">
<path d="M727.843 911.657C730.967 908.533 736.033 908.533 739.157 911.657L801.343 973.843C804.467 976.967 804.467 982.033 801.343 985.157L739.157 1047.34C736.033 1050.47 730.967 1050.47 727.843 1047.34L665.657 985.157C662.533 982.033 662.533 976.967 665.657 973.843L727.843 911.657Z" fill="#BEBEFF"/>
<path d="M728.197 912.01C731.126 909.081 735.874 909.081 738.803 912.01L800.99 974.197C803.919 977.126 803.919 981.874 800.99 984.803L738.803 1046.99C735.874 1049.92 731.126 1049.92 728.197 1046.99L666.01 984.803C663.081 981.874 663.081 977.126 666.01 974.197L728.197 912.01Z" stroke="#4B2F83"/>
</g>
<path d="M684.424 983.991H689.814V985.218H682.916V973.843H684.424V983.991ZM692.869 985.218H691.424V976.765H692.869V985.218ZM691.307 974.523C691.307 974.288 691.377 974.09 691.517 973.929C691.663 973.767 691.877 973.687 692.158 973.687C692.439 973.687 692.653 973.767 692.799 973.929C692.945 974.09 693.017 974.288 693.017 974.523C693.017 974.757 692.945 974.952 692.799 975.109C692.653 975.265 692.439 975.343 692.158 975.343C691.877 975.343 691.663 975.265 691.517 975.109C691.377 974.952 691.307 974.757 691.307 974.523ZM697.549 981.304L696.642 982.249V985.218H695.197V973.218H696.642V980.476L697.416 979.546L700.049 976.765H701.807L698.517 980.296L702.189 985.218H700.494L697.549 981.304ZM706.65 985.374C705.504 985.374 704.572 984.999 703.853 984.249C703.135 983.494 702.775 982.486 702.775 981.226V980.96C702.775 980.122 702.934 979.374 703.252 978.718C703.575 978.056 704.023 977.541 704.596 977.171C705.174 976.796 705.799 976.609 706.471 976.609C707.57 976.609 708.424 976.971 709.033 977.695C709.642 978.418 709.947 979.455 709.947 980.804V981.405H704.221C704.241 982.239 704.484 982.913 704.947 983.429C705.416 983.939 706.01 984.195 706.728 984.195C707.239 984.195 707.671 984.09 708.025 983.882C708.379 983.674 708.689 983.398 708.955 983.054L709.838 983.741C709.129 984.83 708.067 985.374 706.65 985.374ZM706.471 977.796C705.887 977.796 705.398 978.01 705.002 978.437C704.606 978.859 704.361 979.452 704.267 980.218H708.502V980.109C708.46 979.374 708.262 978.806 707.908 978.405C707.554 977.999 707.075 977.796 706.471 977.796ZM711.58 987.484L710.76 986.921C711.249 986.239 711.504 985.536 711.525 984.812V983.507H712.939V984.64C712.939 985.166 712.809 985.692 712.549 986.218C712.293 986.744 711.971 987.166 711.58 987.484ZM722.127 984.195C722.642 984.195 723.093 984.038 723.478 983.726C723.864 983.413 724.077 983.023 724.119 982.554H725.486C725.46 983.038 725.293 983.499 724.986 983.937C724.679 984.374 724.267 984.723 723.752 984.984C723.241 985.244 722.7 985.374 722.127 985.374C720.976 985.374 720.059 984.991 719.377 984.226C718.7 983.455 718.361 982.403 718.361 981.07V980.827C718.361 980.004 718.512 979.273 718.814 978.632C719.116 977.991 719.549 977.494 720.111 977.14C720.679 976.786 721.348 976.609 722.119 976.609C723.067 976.609 723.853 976.892 724.478 977.46C725.109 978.028 725.445 978.765 725.486 979.671H724.119C724.077 979.124 723.869 978.676 723.494 978.327C723.124 977.973 722.666 977.796 722.119 977.796C721.385 977.796 720.814 978.062 720.408 978.593C720.007 979.119 719.807 979.882 719.807 980.882V981.155C719.807 982.129 720.007 982.879 720.408 983.405C720.809 983.931 721.382 984.195 722.127 984.195ZM726.728 980.913C726.728 980.085 726.89 979.34 727.213 978.679C727.541 978.017 727.994 977.507 728.572 977.148C729.155 976.788 729.82 976.609 730.564 976.609C731.715 976.609 732.645 977.007 733.353 977.804C734.067 978.601 734.424 979.661 734.424 980.984V981.085C734.424 981.908 734.265 982.648 733.947 983.304C733.635 983.955 733.184 984.463 732.596 984.827C732.012 985.192 731.34 985.374 730.58 985.374C729.434 985.374 728.504 984.976 727.791 984.179C727.083 983.382 726.728 982.327 726.728 981.015V980.913ZM728.182 981.085C728.182 982.023 728.398 982.775 728.83 983.343C729.267 983.911 729.851 984.195 730.58 984.195C731.314 984.195 731.898 983.908 732.33 983.335C732.762 982.757 732.978 981.95 732.978 980.913C732.978 979.986 732.757 979.236 732.314 978.663C731.877 978.085 731.293 977.796 730.564 977.796C729.851 977.796 729.275 978.08 728.838 978.648C728.4 979.215 728.182 980.028 728.182 981.085ZM737.596 976.765L737.635 977.702C738.254 976.973 739.09 976.609 740.142 976.609C741.325 976.609 742.129 977.062 742.557 977.968C742.838 977.562 743.202 977.234 743.65 976.984C744.103 976.734 744.637 976.609 745.252 976.609C747.106 976.609 748.049 977.59 748.08 979.554V985.218H746.635V979.64C746.635 979.036 746.497 978.585 746.221 978.288C745.945 977.986 745.481 977.835 744.83 977.835C744.293 977.835 743.848 977.997 743.494 978.32C743.14 978.637 742.934 979.067 742.877 979.609V985.218H741.424V979.679C741.424 978.45 740.822 977.835 739.619 977.835C738.671 977.835 738.023 978.239 737.674 979.046V985.218H736.228V976.765H737.596ZM751.627 976.765L751.666 977.702C752.286 976.973 753.122 976.609 754.174 976.609C755.356 976.609 756.161 977.062 756.588 977.968C756.869 977.562 757.234 977.234 757.682 976.984C758.135 976.734 758.668 976.609 759.283 976.609C761.137 976.609 762.08 977.59 762.111 979.554V985.218H760.666V979.64C760.666 979.036 760.528 978.585 760.252 978.288C759.976 977.986 759.512 977.835 758.861 977.835C758.325 977.835 757.879 977.997 757.525 978.32C757.171 978.637 756.965 979.067 756.908 979.609V985.218H755.455V979.679C755.455 978.45 754.853 977.835 753.65 977.835C752.702 977.835 752.054 978.239 751.705 979.046V985.218H750.26V976.765H751.627ZM767.807 985.374C766.661 985.374 765.728 984.999 765.01 984.249C764.291 983.494 763.932 982.486 763.932 981.226V980.96C763.932 980.122 764.09 979.374 764.408 978.718C764.731 978.056 765.179 977.541 765.752 977.171C766.33 976.796 766.955 976.609 767.627 976.609C768.726 976.609 769.58 976.971 770.189 977.695C770.799 978.418 771.103 979.455 771.103 980.804V981.405H765.377C765.398 982.239 765.64 982.913 766.103 983.429C766.572 983.939 767.166 984.195 767.885 984.195C768.395 984.195 768.827 984.09 769.182 983.882C769.536 983.674 769.846 983.398 770.111 983.054L770.994 983.741C770.286 984.83 769.223 985.374 767.807 985.374ZM767.627 977.796C767.043 977.796 766.554 978.01 766.158 978.437C765.762 978.859 765.517 979.452 765.424 980.218H769.658V980.109C769.616 979.374 769.418 978.806 769.064 978.405C768.71 977.999 768.231 977.796 767.627 977.796ZM774.15 976.765L774.197 977.827C774.843 977.015 775.687 976.609 776.728 976.609C778.515 976.609 779.416 977.616 779.432 979.632V985.218H777.986V979.624C777.981 979.015 777.84 978.564 777.564 978.273C777.293 977.981 776.869 977.835 776.291 977.835C775.822 977.835 775.411 977.96 775.057 978.21C774.702 978.46 774.426 978.788 774.228 979.195V985.218H772.783V976.765H774.15ZM783.572 974.718V976.765H785.15V977.882H783.572V983.124C783.572 983.463 783.642 983.718 783.783 983.89C783.924 984.056 784.163 984.14 784.502 984.14C784.668 984.14 784.898 984.109 785.189 984.046V985.218C784.809 985.322 784.439 985.374 784.08 985.374C783.434 985.374 782.947 985.179 782.619 984.788C782.291 984.398 782.127 983.843 782.127 983.124V977.882H780.588V976.765H782.127V974.718H783.572ZM721.752 997.062C721.533 997.025 721.296 997.007 721.041 997.007C720.093 997.007 719.45 997.411 719.111 998.218V1004.22H717.666V995.765H719.072L719.096 996.741C719.57 995.986 720.241 995.609 721.111 995.609C721.392 995.609 721.606 995.645 721.752 995.718V997.062ZM726.439 1004.37C725.293 1004.37 724.361 1004 723.642 1003.25C722.924 1002.49 722.564 1001.49 722.564 1000.23V999.96C722.564 999.122 722.723 998.374 723.041 997.718C723.364 997.056 723.812 996.541 724.385 996.171C724.963 995.796 725.588 995.609 726.26 995.609C727.359 995.609 728.213 995.971 728.822 996.695C729.432 997.418 729.736 998.455 729.736 999.804V1000.41H724.01C724.03 1001.24 724.273 1001.91 724.736 1002.43C725.205 1002.94 725.799 1003.19 726.517 1003.19C727.028 1003.19 727.46 1003.09 727.814 1002.88C728.168 1002.67 728.478 1002.4 728.744 1002.05L729.627 1002.74C728.918 1003.83 727.856 1004.37 726.439 1004.37ZM726.26 996.796C725.676 996.796 725.187 997.01 724.791 997.437C724.395 997.859 724.15 998.452 724.057 999.218H728.291V999.109C728.249 998.374 728.051 997.806 727.697 997.405C727.343 996.999 726.864 996.796 726.26 996.796ZM738.557 1000.09C738.557 1001.37 738.262 1002.41 737.674 1003.19C737.085 1003.98 736.288 1004.37 735.283 1004.37C734.257 1004.37 733.45 1004.05 732.861 1003.4V1007.47H731.416V995.765H732.736L732.807 996.702C733.395 995.973 734.213 995.609 735.26 995.609C736.275 995.609 737.077 995.991 737.666 996.757C738.26 997.523 738.557 998.588 738.557 999.952V1000.09ZM737.111 999.921C737.111 998.968 736.908 998.215 736.502 997.663C736.096 997.111 735.538 996.835 734.83 996.835C733.955 996.835 733.299 997.223 732.861 997.999V1002.04C733.293 1002.81 733.955 1003.19 734.846 1003.19C735.538 1003.19 736.088 1002.92 736.494 1002.37C736.905 1001.82 737.111 1001 737.111 999.921ZM741.971 1004.22H740.525V992.218H741.971V1004.22ZM747.057 1002.1L749.025 995.765H750.572L747.174 1005.52C746.648 1006.93 745.812 1007.63 744.666 1007.63L744.392 1007.61L743.853 1007.51V1006.34L744.244 1006.37C744.734 1006.37 745.114 1006.27 745.385 1006.07C745.661 1005.87 745.887 1005.51 746.064 1004.98L746.385 1004.12L743.369 995.765H744.947L747.057 1002.1Z" fill="#4B2F83"/>
<defs>
<filter id="filter0_d" x="629" y="806" width="207" height="67" filterUnits="userSpaceOnUse" color-interpolation-filters="sRGB">
<feFlood flood-opacity="0" result="BackgroundImageFix"/>
<feColorMatrix in="SourceAlpha" type="matrix" values="0 0 0 0 0 0 0 0 0 0 0 0 0 0 0 0 0 0 127 0"/>
<feOffset dx="4" dy="4"/>
<feColorMatrix type="matrix" values="0 0 0 0 0.674908 0 0 0 0 0.662083 0 0 0 0 0.945833 0 0 0 1 0"/>
<feBlend mode="normal" in2="BackgroundImageFix" result="effect1_dropShadow"/>
<feBlend mode="normal" in="SourceGraphic" in2="effect1_dropShadow" result="shape"/>
</filter>
<filter id="filter1_d" x="291" y="131" width="184" height="28" filterUnits="userSpaceOnUse" color-interpolation-filters="sRGB">
<feFlood flood-opacity="0" result="BackgroundImageFix"/>
<feColorMatrix in="SourceAlpha" type="matrix" values="0 0 0 0 0 0 0 0 0 0 0 0 0 0 0 0 0 0 127 0"/>
<feOffset dx="4" dy="4"/>
<feColorMatrix type="matrix" values="0 0 0 0 0.674908 0 0 0 0 0.662083 0 0 0 0 0.945833 0 0 0 1 0"/>
<feBlend mode="normal" in2="BackgroundImageFix" result="effect1_dropShadow"/>
<feBlend mode="normal" in="SourceGraphic" in2="effect1_dropShadow" result="shape"/>
</filter>
<filter id="filter2_d" x="291" y="154" width="184" height="107" filterUnits="userSpaceOnUse" color-interpolation-filters="sRGB">
<feFlood flood-opacity="0" result="BackgroundImageFix"/>
<feColorMatrix in="SourceAlpha" type="matrix" values="0 0 0 0 0 0 0 0 0 0 0 0 0 0 0 0 0 0 127 0"/>
<feOffset dx="4" dy="4"/>
<feColorMatrix type="matrix" values="0 0 0 0 0.674908 0 0 0 0 0.662083 0 0 0 0 0.945833 0 0 0 1 0"/>
<feBlend mode="normal" in2="BackgroundImageFix" result="effect1_dropShadow"/>
<feBlend mode="normal" in="SourceGraphic" in2="effect1_dropShadow" result="shape"/>
</filter>
<filter id="filter3_d" x="292" y="526" width="184" height="28" filterUnits="userSpaceOnUse" color-interpolation-filters="sRGB">
<feFlood flood-opacity="0" result="BackgroundImageFix"/>
<feColorMatrix in="SourceAlpha" type="matrix" values="0 0 0 0 0 0 0 0 0 0 0 0 0 0 0 0 0 0 127 0"/>
<feOffset dx="4" dy="4"/>
<feColorMatrix type="matrix" values="0 0 0 0 0.674908 0 0 0 0 0.662083 0 0 0 0 0.945833 0 0 0 1 0"/>
<feBlend mode="normal" in2="BackgroundImageFix" result="effect1_dropShadow"/>
<feBlend mode="normal" in="SourceGraphic" in2="effect1_dropShadow" result="shape"/>
</filter>
<filter id="filter4_d" x="292" y="549" width="184" height="107" filterUnits="userSpaceOnUse" color-interpolation-filters="sRGB">
<feFlood flood-opacity="0" result="BackgroundImageFix"/>
<feColorMatrix in="SourceAlpha" type="matrix" values="0 0 0 0 0 0 0 0 0 0 0 0 0 0 0 0 0 0 127 0"/>
<feOffset dx="4" dy="4"/>
<feColorMatrix type="matrix" values="0 0 0 0 0.674908 0 0 0 0 0.662083 0 0 0 0 0.945833 0 0 0 1 0"/>
<feBlend mode="normal" in2="BackgroundImageFix" result="effect1_dropShadow"/>
<feBlend mode="normal" in="SourceGraphic" in2="effect1_dropShadow" result="shape"/>
</filter>
<filter id="filter5_d" x="294" y="768" width="184" height="28" filterUnits="userSpaceOnUse" color-interpolation-filters="sRGB">
<feFlood flood-opacity="0" result="BackgroundImageFix"/>
<feColorMatrix in="SourceAlpha" type="matrix" values="0 0 0 0 0 0 0 0 0 0 0 0 0 0 0 0 0 0 127 0"/>
<feOffset dx="4" dy="4"/>
<feColorMatrix type="matrix" values="0 0 0 0 0.674908 0 0 0 0 0.662083 0 0 0 0 0.945833 0 0 0 1 0"/>
<feBlend mode="normal" in2="BackgroundImageFix" result="effect1_dropShadow"/>
<feBlend mode="normal" in="SourceGraphic" in2="effect1_dropShadow" result="shape"/>
</filter>
<filter id="filter6_d" x="294" y="791" width="184" height="107" filterUnits="userSpaceOnUse" color-interpolation-filters="sRGB">
<feFlood flood-opacity="0" result="BackgroundImageFix"/>
<feColorMatrix in="SourceAlpha" type="matrix" values="0 0 0 0 0 0 0 0 0 0 0 0 0 0 0 0 0 0 127 0"/>
<feOffset dx="4" dy="4"/>
<feColorMatrix type="matrix" values="0 0 0 0 0.674908 0 0 0 0 0.662083 0 0 0 0 0.945833 0 0 0 1 0"/>
<feBlend mode="normal" in2="BackgroundImageFix" result="effect1_dropShadow"/>
<feBlend mode="normal" in="SourceGraphic" in2="effect1_dropShadow" result="shape"/>
</filter>
<filter id="filter7_d" x="279" y="367" width="207" height="67" filterUnits="userSpaceOnUse" color-interpolation-filters="sRGB">
<feFlood flood-opacity="0" result="BackgroundImageFix"/>
<feColorMatrix in="SourceAlpha" type="matrix" values="0 0 0 0 0 0 0 0 0 0 0 0 0 0 0 0 0 0 127 0"/>
<feOffset dx="4" dy="4"/>
<feColorMatrix type="matrix" values="0 0 0 0 0.674908 0 0 0 0 0.662083 0 0 0 0 0.945833 0 0 0 1 0"/>
<feBlend mode="normal" in2="BackgroundImageFix" result="effect1_dropShadow"/>
<feBlend mode="normal" in="SourceGraphic" in2="effect1_dropShadow" result="shape"/>
</filter>
<filter id="filter8_d" x="503" y="581" width="100" height="44" filterUnits="userSpaceOnUse" color-interpolation-filters="sRGB">
<feFlood flood-opacity="0" result="BackgroundImageFix"/>
<feColorMatrix in="SourceAlpha" type="matrix" values="0 0 0 0 0 0 0 0 0 0 0 0 0 0 0 0 0 0 127 0"/>
<feOffset dx="4" dy="4"/>
<feColorMatrix type="matrix" values="0 0 0 0 0.674908 0 0 0 0 0.662083 0 0 0 0 0.945833 0 0 0 1 0"/>
<feBlend mode="normal" in2="BackgroundImageFix" result="effect1_dropShadow"/>
<feBlend mode="normal" in="SourceGraphic" in2="effect1_dropShadow" result="shape"/>
</filter>
<filter id="filter9_d" x="626" y="581" width="102" height="44" filterUnits="userSpaceOnUse" color-interpolation-filters="sRGB">
<feFlood flood-opacity="0" result="BackgroundImageFix"/>
<feColorMatrix in="SourceAlpha" type="matrix" values="0 0 0 0 0 0 0 0 0 0 0 0 0 0 0 0 0 0 127 0"/>
<feOffset dx="4" dy="4"/>
<feColorMatrix type="matrix" values="0 0 0 0 0.674908 0 0 0 0 0.662083 0 0 0 0 0.945833 0 0 0 1 0"/>
<feBlend mode="normal" in2="BackgroundImageFix" result="effect1_dropShadow"/>
<feBlend mode="normal" in="SourceGraphic" in2="effect1_dropShadow" result="shape"/>
</filter>
<filter id="filter10_d" x="751" y="581" width="119" height="44" filterUnits="userSpaceOnUse" color-interpolation-filters="sRGB">
<feFlood flood-opacity="0" result="BackgroundImageFix"/>
<feColorMatrix in="SourceAlpha" type="matrix" values="0 0 0 0 0 0 0 0 0 0 0 0 0 0 0 0 0 0 127 0"/>
<feOffset dx="4" dy="4"/>
<feColorMatrix type="matrix" values="0 0 0 0 0.674908 0 0 0 0 0.662083 0 0 0 0 0.945833 0 0 0 1 0"/>
<feBlend mode="normal" in2="BackgroundImageFix" result="effect1_dropShadow"/>
<feBlend mode="normal" in="SourceGraphic" in2="effect1_dropShadow" result="shape"/>
</filter>
<filter id="filter11_d" x="663.314" y="909.314" width="144.373" height="144.373" filterUnits="userSpaceOnUse" color-interpolation-filters="sRGB">
<feFlood flood-opacity="0" result="BackgroundImageFix"/>
<feColorMatrix in="SourceAlpha" type="matrix" values="0 0 0 0 0 0 0 0 0 0 0 0 0 0 0 0 0 0 127 0"/>
<feOffset dx="4" dy="4"/>
<feColorMatrix type="matrix" values="0 0 0 0 0.674908 0 0 0 0 0.662083 0 0 0 0 0.945833 0 0 0 1 0"/>
<feBlend mode="normal" in2="BackgroundImageFix" result="effect1_dropShadow"/>
<feBlend mode="normal" in="SourceGraphic" in2="effect1_dropShadow" result="shape"/>
</filter>
<clipPath id="clip0">
<rect width="110" height="19" fill="white" transform="translate(394 631) rotate(90)"/>
</clipPath>
<clipPath id="clip1">
<rect width="110" height="19" fill="white" transform="translate(393 230) rotate(90)"/>
</clipPath>
<clipPath id="clip2">
<rect width="110" height="19" fill="white" transform="translate(392 389) rotate(90)"/>
</clipPath>
</defs>
</svg>
