<svg version="1.1" viewBox="0.0 0.0 850.0 525.0" fill="none" stroke="none" stroke-linecap="square" stroke-miterlimit="10" width="850" height="525" xmlns:xlink="http://www.w3.org/1999/xlink" xmlns="http://www.w3.org/2000/svg"><path fill="#ffffff" d="M0 0L850.0 0L850.0 525.0L0 525.0L0 0Z" fill-rule="nonzero"/><path stroke="#333333" stroke-width="1.0" stroke-linecap="butt" d="M53.5 478.5L823.5 478.5" fill-rule="nonzero"/><path stroke="#cccccc" stroke-width="1.0" stroke-linecap="butt" d="M53.5 404.5L823.5 404.5" fill-rule="nonzero"/><path stroke="#cccccc" stroke-width="1.0" stroke-linecap="butt" d="M53.5 329.5L823.5 329.5" fill-rule="nonzero"/><path stroke="#cccccc" stroke-width="1.0" stroke-linecap="butt" d="M53.5 255.5L823.5 255.5" fill-rule="nonzero"/><path stroke="#cccccc" stroke-width="1.0" stroke-linecap="butt" d="M53.5 180.5L823.5 180.5" fill-rule="nonzero"/><path stroke="#cccccc" stroke-width="1.0" stroke-linecap="butt" d="M53.5 106.5L823.5 106.5" fill-rule="nonzero"/><clipPath id="id_0"><path d="M53.25 106.25L823.75 106.25L823.75 478.75L53.25 478.75L53.25 106.25Z" clip-rule="nonzero"/></clipPath><path stroke="#000000" stroke-width="0.0" stroke-linecap="butt" stroke-opacity="0.0" clip-path="url(#id_0)" d="M121.0 479.0L103.0 479.0L103.0 220.0C103.0 218.89543 103.89543 218.0 105.0 218.0L119.0 218.0C120.10457 218.0 121.0 218.89543 121.0 220.0Z" fill-rule="nonzero"/><path fill="#4285f4" clip-path="url(#id_0)" d="M121.0 479.0L103.0 479.0L103.0 220.0C103.0 218.89543 103.89543 218.0 105.0 218.0L119.0 218.0C120.10457 218.0 121.0 218.89543 121.0 220.0Z" fill-rule="nonzero"/><path stroke="#000000" stroke-width="0.0" stroke-linecap="butt" stroke-opacity="0.0" clip-path="url(#id_0)" d="M265.0 479.0L247.0 479.0L247.0 183.0C247.0 181.89543 247.89543 181.0 249.0 181.0L263.0 181.0C264.10458 181.0 265.0 181.89543 265.0 183.0Z" fill-rule="nonzero"/><path fill="#4285f4" clip-path="url(#id_0)" d="M265.0 479.0L247.0 479.0L247.0 183.0C247.0 181.89543 247.89543 181.0 249.0 181.0L263.0 181.0C264.10458 181.0 265.0 181.89543 265.0 183.0Z" fill-rule="nonzero"/><path stroke="#000000" stroke-width="0.0" stroke-linecap="butt" stroke-opacity="0.0" clip-path="url(#id_0)" d="M410.0 479.0L392.0 479.0L392.0 220.0C392.0 218.89543 392.89542 218.0 394.0 218.0L408.0 218.0C409.10458 218.0 410.0 218.89543 410.0 220.0Z" fill-rule="nonzero"/><path fill="#4285f4" clip-path="url(#id_0)" d="M410.0 479.0L392.0 479.0L392.0 220.0C392.0 218.89543 392.89542 218.0 394.0 218.0L408.0 218.0C409.10458 218.0 410.0 218.89543 410.0 220.0Z" fill-rule="nonzero"/><path stroke="#000000" stroke-width="0.0" stroke-linecap="butt" stroke-opacity="0.0" clip-path="url(#id_0)" d="M554.0 479.0L536.0 479.0L536.0 295.0C536.0 293.89542 536.89545 293.0 538.0 293.0L552.0 293.0C553.10455 293.0 554.0 293.89542 554.0 295.0Z" fill-rule="nonzero"/><path fill="#4285f4" clip-path="url(#id_0)" d="M554.0 479.0L536.0 479.0L536.0 295.0C536.0 293.89542 536.89545 293.0 538.0 293.0L552.0 293.0C553.10455 293.0 554.0 293.89542 554.0 295.0Z" fill-rule="nonzero"/><path stroke="#000000" stroke-width="0.0" stroke-linecap="butt" stroke-opacity="0.0" clip-path="url(#id_0)" d="M698.0 479.0L680.0 479.0L680.0 257.0C680.0 255.89543 680.89545 255.0 682.0 255.0L696.0 255.0C697.10455 255.0 698.0 255.89543 698.0 257.0Z" fill-rule="nonzero"/><path fill="#4285f4" clip-path="url(#id_0)" d="M698.0 479.0L680.0 479.0L680.0 257.0C680.0 255.89543 680.89545 255.0 682.0 255.0L696.0 255.0C697.10455 255.0 698.0 255.89543 698.0 257.0Z" fill-rule="nonzero"/><path stroke="#000000" stroke-width="0.0" stroke-linecap="butt" stroke-opacity="0.0" clip-path="url(#id_0)" d="M140.0 479.0L122.0 479.0L122.0 183.0C122.0 181.89543 122.89543 181.0 124.0 181.0L138.0 181.0C139.10457 181.0 140.0 181.89543 140.0 183.0Z" fill-rule="nonzero"/><path fill="#ea4335" clip-path="url(#id_0)" d="M140.0 479.0L122.0 479.0L122.0 183.0C122.0 181.89543 122.89543 181.0 124.0 181.0L138.0 181.0C139.10457 181.0 140.0 181.89543 140.0 183.0Z" fill-rule="nonzero"/><path stroke="#000000" stroke-width="0.0" stroke-linecap="butt" stroke-opacity="0.0" clip-path="url(#id_0)" d="M284.0 479.0L266.0 479.0L266.0 220.0C266.0 218.89543 266.89542 218.0 268.0 218.0L282.0 218.0C283.10458 218.0 284.0 218.89543 284.0 220.0Z" fill-rule="nonzero"/><path fill="#ea4335" clip-path="url(#id_0)" d="M284.0 479.0L266.0 479.0L266.0 220.0C266.0 218.89543 266.89542 218.0 268.0 218.0L282.0 218.0C283.10458 218.0 284.0 218.89543 284.0 220.0Z" fill-rule="nonzero"/><path stroke="#000000" stroke-width="0.0" stroke-linecap="butt" stroke-opacity="0.0" clip-path="url(#id_0)" d="M429.0 479.0L411.0 479.0L411.0 108.0C411.0 106.89543 411.89542 106.0 413.0 106.0L427.0 106.0C428.10458 106.0 429.0 106.89543 429.0 108.0Z" fill-rule="nonzero"/><path fill="#ea4335" clip-path="url(#id_0)" d="M429.0 479.0L411.0 479.0L411.0 108.0C411.0 106.89543 411.89542 106.0 413.0 106.0L427.0 106.0C428.10458 106.0 429.0 106.89543 429.0 108.0Z" fill-rule="nonzero"/><path stroke="#000000" stroke-width="0.0" stroke-linecap="butt" stroke-opacity="0.0" clip-path="url(#id_0)" d="M573.0 479.0L555.0 479.0L555.0 220.0C555.0 218.89543 555.89545 218.0 557.0 218.0L571.0 218.0C572.10455 218.0 573.0 218.89543 573.0 220.0Z" fill-rule="nonzero"/><path fill="#ea4335" clip-path="url(#id_0)" d="M573.0 479.0L555.0 479.0L555.0 220.0C555.0 218.89543 555.89545 218.0 557.0 218.0L571.0 218.0C572.10455 218.0 573.0 218.89543 573.0 220.0Z" fill-rule="nonzero"/><path stroke="#000000" stroke-width="0.0" stroke-linecap="butt" stroke-opacity="0.0" clip-path="url(#id_0)" d="M717.0 479.0L699.0 479.0L699.0 332.0C699.0 330.89542 699.89545 330.0 701.0 330.0L715.0 330.0C716.10455 330.0 717.0 330.89542 717.0 332.0Z" fill-rule="nonzero"/><path fill="#ea4335" clip-path="url(#id_0)" d="M717.0 479.0L699.0 479.0L699.0 332.0C699.0 330.89542 699.89545 330.0 701.0 330.0L715.0 330.0C716.10455 330.0 717.0 330.89542 717.0 332.0Z" fill-rule="nonzero"/><path stroke="#000000" stroke-width="0.0" stroke-linecap="butt" stroke-opacity="0.0" clip-path="url(#id_0)" d="M159.0 479.0L141.0 479.0L141.0 332.0C141.0 330.89542 141.89543 330.0 143.0 330.0L157.0 330.0C158.10457 330.0 159.0 330.89542 159.0 332.0Z" fill-rule="nonzero"/><path fill="#fbbc04" clip-path="url(#id_0)" d="M159.0 479.0L141.0 479.0L141.0 332.0C141.0 330.89542 141.89543 330.0 143.0 330.0L157.0 330.0C158.10457 330.0 159.0 330.89542 159.0 332.0Z" fill-rule="nonzero"/><path stroke="#000000" stroke-width="0.0" stroke-linecap="butt" stroke-opacity="0.0" clip-path="url(#id_0)" d="M303.0 479.0L285.0 479.0L285.0 146.0C285.0 144.89543 285.89542 144.0 287.0 144.0L301.0 144.0C302.10458 144.0 303.0 144.89543 303.0 146.0Z" fill-rule="nonzero"/><path fill="#fbbc04" clip-path="url(#id_0)" d="M303.0 479.0L285.0 479.0L285.0 146.0C285.0 144.89543 285.89542 144.0 287.0 144.0L301.0 144.0C302.10458 144.0 303.0 144.89543 303.0 146.0Z" fill-rule="nonzero"/><path stroke="#000000" stroke-width="0.0" stroke-linecap="butt" stroke-opacity="0.0" clip-path="url(#id_0)" d="M448.0 479.0L430.0 479.0L430.0 295.0C430.0 293.89542 430.89542 293.0 432.0 293.0L446.0 293.0C447.10458 293.0 448.0 293.89542 448.0 295.0Z" fill-rule="nonzero"/><path fill="#fbbc04" clip-path="url(#id_0)" d="M448.0 479.0L430.0 479.0L430.0 295.0C430.0 293.89542 430.89542 293.0 432.0 293.0L446.0 293.0C447.10458 293.0 448.0 293.89542 448.0 295.0Z" fill-rule="nonzero"/><path stroke="#000000" stroke-width="0.0" stroke-linecap="butt" stroke-opacity="0.0" clip-path="url(#id_0)" d="M592.0 479.0L574.0 479.0L574.0 257.0C574.0 255.89543 574.89545 255.0 576.0 255.0L590.0 255.0C591.10455 255.0 592.0 255.89543 592.0 257.0Z" fill-rule="nonzero"/><path fill="#fbbc04" clip-path="url(#id_0)" d="M592.0 479.0L574.0 479.0L574.0 257.0C574.0 255.89543 574.89545 255.0 576.0 255.0L590.0 255.0C591.10455 255.0 592.0 255.89543 592.0 257.0Z" fill-rule="nonzero"/><path stroke="#000000" stroke-width="0.0" stroke-linecap="butt" stroke-opacity="0.0" clip-path="url(#id_0)" d="M736.0 479.0L718.0 479.0L718.0 332.0C718.0 330.89542 718.89545 330.0 720.0 330.0L734.0 330.0C735.10455 330.0 736.0 330.89542 736.0 332.0Z" fill-rule="nonzero"/><path fill="#fbbc04" clip-path="url(#id_0)" d="M736.0 479.0L718.0 479.0L718.0 332.0C718.0 330.89542 718.89545 330.0 720.0 330.0L734.0 330.0C735.10455 330.0 736.0 330.89542 736.0 332.0Z" fill-rule="nonzero"/><path stroke="#000000" stroke-width="0.0" stroke-linecap="butt" stroke-opacity="0.0" clip-path="url(#id_0)" d="M178.0 479.0L160.0 479.0L160.0 280.0C160.0 278.89542 160.89543 278.0 162.0 278.0L176.0 278.0C177.10457 278.0 178.0 278.89542 178.0 280.0Z" fill-rule="nonzero"/><path fill="#34a853" clip-path="url(#id_0)" d="M178.0 479.0L160.0 479.0L160.0 280.0C160.0 278.89542 160.89543 278.0 162.0 278.0L176.0 278.0C177.10457 278.0 178.0 278.89542 178.0 280.0Z" fill-rule="nonzero"/><path stroke="#000000" stroke-width="0.0" stroke-linecap="butt" stroke-opacity="0.0" clip-path="url(#id_0)" d="M322.0 479.0L304.0 479.0L304.0 295.0C304.0 293.89542 304.89542 293.0 306.0 293.0L320.0 293.0C321.10458 293.0 322.0 293.89542 322.0 295.0Z" fill-rule="nonzero"/><path fill="#34a853" clip-path="url(#id_0)" d="M322.0 479.0L304.0 479.0L304.0 295.0C304.0 293.89542 304.89542 293.0 306.0 293.0L320.0 293.0C321.10458 293.0 322.0 293.89542 322.0 295.0Z" fill-rule="nonzero"/><path stroke="#000000" stroke-width="0.0" stroke-linecap="butt" stroke-opacity="0.0" clip-path="url(#id_0)" d="M467.0 479.0L449.0 479.0L449.0 332.0C449.0 330.89542 449.89542 330.0 451.0 330.0L465.0 330.0C466.10458 330.0 467.0 330.89542 467.0 332.0Z" fill-rule="nonzero"/><path fill="#34a853" clip-path="url(#id_0)" d="M467.0 479.0L449.0 479.0L449.0 332.0C449.0 330.89542 449.89542 330.0 451.0 330.0L465.0 330.0C466.10458 330.0 467.0 330.89542 467.0 332.0Z" fill-rule="nonzero"/><path stroke="#000000" stroke-width="0.0" stroke-linecap="butt" stroke-opacity="0.0" clip-path="url(#id_0)" d="M611.0 479.0L593.0 479.0L593.0 146.0C593.0 144.89543 593.89545 144.0 595.0 144.0L609.0 144.0C610.10455 144.0 611.0 144.89543 611.0 146.0Z" fill-rule="nonzero"/><path fill="#34a853" clip-path="url(#id_0)" d="M611.0 479.0L593.0 479.0L593.0 146.0C593.0 144.89543 593.89545 144.0 595.0 144.0L609.0 144.0C610.10455 144.0 611.0 144.89543 611.0 146.0Z" fill-rule="nonzero"/><path stroke="#000000" stroke-width="0.0" stroke-linecap="butt" stroke-opacity="0.0" clip-path="url(#id_0)" d="M755.0 479.0L737.0 479.0L737.0 183.0C737.0 181.89543 737.89545 181.0 739.0 181.0L753.0 181.0C754.10455 181.0 755.0 181.89543 755.0 183.0Z" fill-rule="nonzero"/><path fill="#34a853" clip-path="url(#id_0)" d="M755.0 479.0L737.0 479.0L737.0 183.0C737.0 181.89543 737.89545 181.0 739.0 181.0L753.0 181.0C754.10455 181.0 755.0 181.89543 755.0 183.0Z" fill-rule="nonzero"/><path stroke="#000000" stroke-width="0.0" stroke-linecap="butt" stroke-opacity="0.0" clip-path="url(#id_0)" d="M197.0 479.0L179.0 479.0L179.0 391.0C179.0 389.89542 179.89543 389.0 181.0 389.0L195.0 389.0C196.10457 389.0 197.0 389.89542 197.0 391.0Z" fill-rule="nonzero"/><path fill="#ff6d01" clip-path="url(#id_0)" d="M197.0 479.0L179.0 479.0L179.0 391.0C179.0 389.89542 179.89543 389.0 181.0 389.0L195.0 389.0C196.10457 389.0 197.0 389.89542 197.0 391.0Z" fill-rule="nonzero"/><path stroke="#000000" stroke-width="0.0" stroke-linecap="butt" stroke-opacity="0.0" clip-path="url(#id_0)" d="M341.0 479.0L323.0 479.0L323.0 295.0C323.0 293.89542 323.89542 293.0 325.0 293.0L339.0 293.0C340.10458 293.0 341.0 293.89542 341.0 295.0Z" fill-rule="nonzero"/><path fill="#ff6d01" clip-path="url(#id_0)" d="M341.0 479.0L323.0 479.0L323.0 295.0C323.0 293.89542 323.89542 293.0 325.0 293.0L339.0 293.0C340.10458 293.0 341.0 293.89542 341.0 295.0Z" fill-rule="nonzero"/><path stroke="#000000" stroke-width="0.0" stroke-linecap="butt" stroke-opacity="0.0" clip-path="url(#id_0)" d="M486.0 479.0L468.0 479.0L468.0 369.0C468.0 367.89542 468.89542 367.0 470.0 367.0L484.0 367.0C485.10458 367.0 486.0 367.89542 486.0 369.0Z" fill-rule="nonzero"/><path fill="#ff6d01" clip-path="url(#id_0)" d="M486.0 479.0L468.0 479.0L468.0 369.0C468.0 367.89542 468.89542 367.0 470.0 367.0L484.0 367.0C485.10458 367.0 486.0 367.89542 486.0 369.0Z" fill-rule="nonzero"/><path stroke="#000000" stroke-width="0.0" stroke-linecap="butt" stroke-opacity="0.0" clip-path="url(#id_0)" d="M630.0 479.0L612.0 479.0L612.0 295.0C612.0 293.89542 612.89545 293.0 614.0 293.0L628.0 293.0C629.10455 293.0 630.0 293.89542 630.0 295.0Z" fill-rule="nonzero"/><path fill="#ff6d01" clip-path="url(#id_0)" d="M630.0 479.0L612.0 479.0L612.0 295.0C612.0 293.89542 612.89545 293.0 614.0 293.0L628.0 293.0C629.10455 293.0 630.0 293.89542 630.0 295.0Z" fill-rule="nonzero"/><path stroke="#000000" stroke-width="0.0" stroke-linecap="butt" stroke-opacity="0.0" clip-path="url(#id_0)" d="M774.0 479.0L756.0 479.0L756.0 183.0C756.0 181.89543 756.89545 181.0 758.0 181.0L772.0 181.0C773.10455 181.0 774.0 181.89543 774.0 183.0Z" fill-rule="nonzero"/><path fill="#ff6d01" clip-path="url(#id_0)" d="M774.0 479.0L756.0 479.0L756.0 183.0C756.0 181.89543 756.89545 181.0 758.0 181.0L772.0 181.0C773.10455 181.0 774.0 181.89543 774.0 183.0Z" fill-rule="nonzero"/><path fill="#000000" d="M40.75 478.51562Q40.75 476.98438 41.0625 476.0625Q41.375 475.125 41.984375 474.625Q42.609375 474.125 43.546875 474.125Q44.234375 474.125 44.75 474.40625Q45.28125 474.6875 45.625 475.21875Q45.96875 475.73438 46.15625 476.48438Q46.34375 477.23438 46.34375 478.51562Q46.34375 480.03125 46.03125 480.95312Q45.734375 481.875 45.109375 482.39062Q44.5 482.89062 43.546875 482.89062Q42.3125 482.89062 41.59375 482.0Q40.75 480.9375 40.75 478.51562ZM41.828125 478.51562Q41.828125 480.625 42.328125 481.32812Q42.828125 482.03125 43.546875 482.03125Q44.28125 482.03125 44.765625 481.32812Q45.265625 480.625 45.265625 478.51562Q45.265625 476.39062 44.765625 475.70312Q44.28125 475.0 43.53125 475.0Q42.8125 475.0 42.375 475.60938Q41.828125 476.39062 41.828125 478.51562Z" fill-rule="nonzero"/><path fill="#000000" d="M44.71875 408.25L43.671875 408.25L43.671875 401.53125Q43.28125 401.89062 42.65625 402.26562Q42.046875 402.625 41.5625 402.79688L41.5625 401.78125Q42.4375 401.35938 43.09375 400.78125Q43.765625 400.1875 44.046875 399.625L44.71875 399.625L44.71875 408.25Z" fill-rule="nonzero"/><path fill="#000000" d="M46.296875 332.73438L46.296875 333.75L40.609375 333.75Q40.609375 333.375 40.734375 333.01562Q40.953125 332.4375 41.421875 331.875Q41.90625 331.3125 42.8125 330.57812Q44.21875 329.42188 44.703125 328.75Q45.203125 328.07812 45.203125 327.48438Q45.203125 326.85938 44.75 326.4375Q44.296875 326.0 43.578125 326.0Q42.8125 326.0 42.359375 326.45312Q41.90625 326.90625 41.890625 327.71875L40.8125 327.60938Q40.921875 326.39062 41.640625 325.76562Q42.375 325.125 43.609375 325.125Q44.84375 325.125 45.5625 325.8125Q46.28125 326.5 46.28125 327.51562Q46.28125 328.03125 46.0625 328.53125Q45.859375 329.01562 45.359375 329.57812Q44.875 330.125 43.75 331.07812Q42.796875 331.875 42.515625 332.17188Q42.25 332.45312 42.078125 332.73438L46.296875 332.73438Z" fill-rule="nonzero"/><path fill="#000000" d="M40.75 256.98438L41.8125 256.84375Q41.984375 257.73438 42.421875 258.14062Q42.859375 258.53125 43.484375 258.53125Q44.234375 258.53125 44.75 258.01562Q45.265625 257.5 45.265625 256.73438Q45.265625 256.01562 44.78125 255.54688Q44.3125 255.0625 43.578125 255.0625Q43.28125 255.0625 42.828125 255.1875L42.953125 254.25Q43.0625 254.26562 43.125 254.26562Q43.796875 254.26562 44.328125 253.92188Q44.875 253.5625 44.875 252.82812Q44.875 252.25 44.484375 251.875Q44.09375 251.48438 43.46875 251.48438Q42.859375 251.48438 42.4375 251.875Q42.03125 252.26562 41.921875 253.03125L40.859375 252.84375Q41.046875 251.79688 41.734375 251.21875Q42.421875 250.625 43.4375 250.625Q44.140625 250.625 44.734375 250.9375Q45.328125 251.23438 45.640625 251.75Q45.953125 252.26562 45.953125 252.85938Q45.953125 253.40625 45.65625 253.875Q45.359375 254.32812 44.78125 254.59375Q45.53125 254.76562 45.953125 255.32812Q46.375 255.875 46.375 256.71875Q46.375 257.84375 45.546875 258.625Q44.734375 259.40625 43.484375 259.40625Q42.359375 259.40625 41.609375 258.73438Q40.859375 258.04688 40.75 256.98438Z" fill-rule="nonzero"/><path fill="#000000" d="M44.125 184.75L44.125 182.6875L40.40625 182.6875L40.40625 181.71875L44.328125 176.15625L45.1875 176.15625L45.1875 181.71875L46.34375 181.71875L46.34375 182.6875L45.1875 182.6875L45.1875 184.75L44.125 184.75ZM44.125 181.71875L44.125 177.85938L41.4375 181.71875L44.125 181.71875Z" fill-rule="nonzero"/><path fill="#000000" d="M40.75 108.0L41.859375 107.90625Q41.984375 108.71875 42.421875 109.125Q42.875 109.53125 43.515625 109.53125Q44.265625 109.53125 44.796875 108.953125Q45.328125 108.375 45.328125 107.4375Q45.328125 106.53125 44.8125 106.015625Q44.3125 105.484375 43.484375 105.484375Q42.984375 105.484375 42.5625 105.71875Q42.15625 105.953125 41.921875 106.3125L40.9375 106.1875L41.765625 101.78125L46.046875 101.78125L46.046875 102.78125L42.609375 102.78125L42.15625 105.09375Q42.921875 104.546875 43.765625 104.546875Q44.890625 104.546875 45.65625 105.328125Q46.4375 106.109375 46.4375 107.34375Q46.4375 108.5 45.765625 109.359375Q44.9375 110.390625 43.515625 110.390625Q42.34375 110.390625 41.59375 109.734375Q40.859375 109.078125 40.75 108.0Z" fill-rule="nonzero"/><path fill="#000000" d="M136.52512 492.73438L137.65012 493.03125Q137.29074 494.42188 136.36887 495.15625Q135.44699 495.89062 134.10324 495.89062Q132.71262 495.89062 131.83762 495.32812Q130.96262 494.76562 130.50949 493.70312Q130.05637 492.625 130.05637 491.39062Q130.05637 490.04688 130.57199 489.04688Q131.08762 488.04688 132.02512 487.53125Q132.97824 487.01562 134.11887 487.01562Q135.40012 487.01562 136.27512 487.67188Q137.16574 488.32812 137.50949 489.51562L136.38449 489.78125Q136.08762 488.84375 135.50949 488.42188Q134.94699 487.98438 134.08762 487.98438Q133.10324 487.98438 132.43137 488.46875Q131.77512 488.9375 131.49387 489.73438Q131.22824 490.53125 131.22824 491.39062Q131.22824 492.48438 131.54074 493.29688Q131.86887 494.10938 132.54074 494.51562Q133.21262 494.92188 134.00949 494.92188Q134.96262 494.92188 135.61887 494.375Q136.29074 493.82812 136.52512 492.73438ZM143.32199 494.98438Q142.72824 495.48438 142.18137 495.6875Q141.65012 495.89062 141.02512 495.89062Q139.99387 495.89062 139.44699 495.39062Q138.90012 494.89062 138.90012 494.10938Q138.90012 493.65625 139.10324 493.28125Q139.30637 492.89062 139.65012 492.67188Q139.99387 492.4375 140.41574 492.32812Q140.71262 492.23438 141.35324 492.15625Q142.61887 492.01562 143.22824 491.79688Q143.22824 491.57812 143.22824 491.53125Q143.22824 490.875 142.93137 490.60938Q142.52512 490.26562 141.72824 490.26562Q140.99387 490.26562 140.63449 490.53125Q140.27512 490.78125 140.10324 491.4375L139.07199 491.29688Q139.21262 490.64062 139.54074 490.23438Q139.86887 489.82812 140.47824 489.60938Q141.08762 489.39062 141.88449 489.39062Q142.68137 489.39062 143.18137 489.57812Q143.68137 489.76562 143.91574 490.04688Q144.15012 490.32812 144.24387 490.76562Q144.29074 491.03125 144.29074 491.73438L144.29074 493.14062Q144.29074 494.60938 144.35324 495.0Q144.43137 495.39062 144.63449 495.75L143.52512 495.75Q143.36887 495.42188 143.32199 494.98438ZM143.22824 492.625Q142.65012 492.85938 141.50949 493.03125Q140.85324 493.125 140.58762 493.25Q140.32199 493.35938 140.16574 493.57812Q140.02512 493.79688 140.02512 494.07812Q140.02512 494.5 140.33762 494.78125Q140.66574 495.0625 141.27512 495.0625Q141.88449 495.0625 142.35324 494.79688Q142.83762 494.53125 143.05637 494.0625Q143.22824 493.70312 143.22824 493.01562L143.22824 492.625ZM146.25949 495.75L146.25949 489.53125L147.19699 489.53125L147.19699 490.40625Q147.88449 489.39062 149.18137 489.39062Q149.74387 489.39062 150.21262 489.59375Q150.69699 489.79688 150.93137 490.125Q151.16574 490.45312 151.25949 490.89062Q151.30637 491.1875 151.30637 491.92188L151.30637 495.75L150.25949 495.75L150.25949 491.96875Q150.25949 491.3125 150.13449 491.0Q150.00949 490.6875 149.69699 490.5Q149.38449 490.29688 148.96262 490.29688Q148.29074 490.29688 147.79074 490.73438Q147.30637 491.15625 147.30637 492.34375L147.30637 495.75L146.25949 495.75ZM154.97824 495.75L152.61887 489.53125L153.72824 489.53125L155.07199 493.25Q155.27512 493.85938 155.46262 494.5Q155.60324 494.01562 155.85324 493.32812L157.24387 489.53125L158.32199 489.53125L155.96262 495.75L154.97824 495.75ZM163.32199 494.98438Q162.72824 495.48438 162.18137 495.6875Q161.65012 495.89062 161.02512 495.89062Q159.99387 495.89062 159.44699 495.39062Q158.90012 494.89062 158.90012 494.10938Q158.90012 493.65625 159.10324 493.28125Q159.30637 492.89062 159.65012 492.67188Q159.99387 492.4375 160.41574 492.32812Q160.71262 492.23438 161.35324 492.15625Q162.61887 492.01562 163.22824 491.79688Q163.22824 491.57812 163.22824 491.53125Q163.22824 490.875 162.93137 490.60938Q162.52512 490.26562 161.72824 490.26562Q160.99387 490.26562 160.63449 490.53125Q160.27512 490.78125 160.10324 491.4375L159.07199 491.29688Q159.21262 490.64062 159.54074 490.23438Q159.86887 489.82812 160.47824 489.60938Q161.08762 489.39062 161.88449 489.39062Q162.68137 489.39062 163.18137 489.57812Q163.68137 489.76562 163.91574 490.04688Q164.15012 490.32812 164.24387 490.76562Q164.29074 491.03125 164.29074 491.73438L164.29074 493.14062Q164.29074 494.60938 164.35324 495.0Q164.43137 495.39062 164.63449 495.75L163.52512 495.75Q163.36887 495.42188 163.32199 494.98438ZM163.22824 492.625Q162.65012 492.85938 161.50949 493.03125Q160.85324 493.125 160.58762 493.25Q160.32199 493.35938 160.16574 493.57812Q160.02512 493.79688 160.02512 494.07812Q160.02512 494.5 160.33762 494.78125Q160.66574 495.0625 161.27512 495.0625Q161.88449 495.0625 162.35324 494.79688Q162.83762 494.53125 163.05637 494.0625Q163.22824 493.70312 163.22824 493.01562L163.22824 492.625ZM165.83762 493.89062L166.86887 493.73438Q166.96262 494.35938 167.35324 494.6875Q167.75949 495.01562 168.49387 495.01562Q169.21262 495.01562 169.55637 494.73438Q169.91574 494.4375 169.91574 494.03125Q169.91574 493.67188 169.60324 493.46875Q169.38449 493.32812 168.52512 493.10938Q167.36887 492.8125 166.91574 492.60938Q166.47824 492.39062 166.24387 492.01562Q166.00949 491.64062 166.00949 491.17188Q166.00949 490.76562 166.19699 490.40625Q166.38449 490.04688 166.71262 489.8125Q166.96262 489.64062 167.38449 489.51562Q167.80637 489.39062 168.30637 489.39062Q169.02512 489.39062 169.57199 489.60938Q170.13449 489.8125 170.40012 490.17188Q170.66574 490.53125 170.75949 491.125L169.72824 491.26562Q169.66574 490.79688 169.32199 490.53125Q168.99387 490.25 168.36887 490.25Q167.65012 490.25 167.33762 490.5Q167.02512 490.73438 167.02512 491.0625Q167.02512 491.26562 167.15012 491.42188Q167.29074 491.59375 167.55637 491.70312Q167.71262 491.76562 168.49387 491.96875Q169.61887 492.28125 170.05637 492.46875Q170.49387 492.65625 170.74387 493.01562Q170.99387 493.375 170.99387 493.92188Q170.99387 494.45312 170.68137 494.92188Q170.38449 495.375 169.80637 495.64062Q169.22824 495.89062 168.49387 495.89062Q167.27512 495.89062 166.63449 495.39062Q166.00949 494.875 165.83762 493.89062Z" fill-rule="nonzero"/><path fill="#000000" d="M246.85631 495.75L246.85631 487.15625L250.09068 487.15625Q251.07506 487.15625 251.66881 487.42188Q252.26256 487.6875 252.59068 488.23438Q252.93443 488.76562 252.93443 489.35938Q252.93443 489.90625 252.63756 490.39062Q252.34068 490.875 251.73131 491.17188Q252.51256 491.40625 252.91881 491.96875Q253.34068 492.51562 253.34068 493.26562Q253.34068 493.85938 253.09068 494.39062Q252.84068 494.90625 252.46568 495.1875Q252.09068 495.46875 251.51256 495.60938Q250.95006 495.75 250.13756 495.75L246.85631 495.75ZM247.99693 490.76562L249.85631 490.76562Q250.60631 490.76562 250.93443 490.67188Q251.37193 490.54688 251.59068 490.25Q251.80943 489.9375 251.80943 489.48438Q251.80943 489.0625 251.60631 488.73438Q251.40318 488.40625 251.01256 488.29688Q250.63756 488.17188 249.71568 488.17188L247.99693 488.17188L247.99693 490.76562ZM247.99693 494.73438L250.13756 494.73438Q250.68443 494.73438 250.90318 494.6875Q251.30943 494.625 251.55943 494.46875Q251.82506 494.29688 251.99693 493.98438Q252.16881 493.67188 252.16881 493.26562Q252.16881 492.78125 251.91881 492.42188Q251.68443 492.0625 251.24693 491.92188Q250.80943 491.78125 249.98131 491.78125L247.99693 491.78125L247.99693 494.73438ZM254.74693 495.75L254.74693 487.15625L255.80943 487.15625L255.80943 495.75L254.74693 495.75ZM261.8407 494.98438Q261.24695 495.48438 260.70007 495.6875Q260.16882 495.89062 259.54382 495.89062Q258.51257 495.89062 257.9657 495.39062Q257.41882 494.89062 257.41882 494.10938Q257.41882 493.65625 257.62195 493.28125Q257.82507 492.89062 258.16882 492.67188Q258.51257 492.4375 258.93445 492.32812Q259.23132 492.23438 259.87195 492.15625Q261.13757 492.01562 261.74695 491.79688Q261.74695 491.57812 261.74695 491.53125Q261.74695 490.875 261.45007 490.60938Q261.04382 490.26562 260.24695 490.26562Q259.51257 490.26562 259.1532 490.53125Q258.79382 490.78125 258.62195 491.4375L257.5907 491.29688Q257.73132 490.64062 258.05945 490.23438Q258.38757 489.82812 258.99695 489.60938Q259.60632 489.39062 260.4032 489.39062Q261.20007 489.39062 261.70007 489.57812Q262.20007 489.76562 262.43445 490.04688Q262.66882 490.32812 262.76257 490.76562Q262.80945 491.03125 262.80945 491.73438L262.80945 493.14062Q262.80945 494.60938 262.87195 495.0Q262.95007 495.39062 263.1532 495.75L262.04382 495.75Q261.88757 495.42188 261.8407 494.98438ZM261.74695 492.625Q261.16882 492.85938 260.0282 493.03125Q259.37195 493.125 259.10632 493.25Q258.8407 493.35938 258.68445 493.57812Q258.54382 493.79688 258.54382 494.07812Q258.54382 494.5 258.85632 494.78125Q259.18445 495.0625 259.79382 495.0625Q260.4032 495.0625 260.87195 494.79688Q261.35632 494.53125 261.57507 494.0625Q261.74695 493.70312 261.74695 493.01562L261.74695 492.625ZM268.8407 493.46875L269.87195 493.60938Q269.70007 494.67188 268.99695 495.28125Q268.29382 495.89062 267.2782 495.89062Q265.99695 495.89062 265.2157 495.0625Q264.45007 494.21875 264.45007 492.65625Q264.45007 491.65625 264.7782 490.90625Q265.12195 490.14062 265.79382 489.76562Q266.48132 489.39062 267.29382 489.39062Q268.29382 489.39062 268.93445 489.90625Q269.5907 490.40625 269.7782 491.35938L268.74695 491.51562Q268.60632 490.89062 268.23132 490.57812Q267.85632 490.25 267.32507 490.25Q266.5282 490.25 266.0282 490.82812Q265.5282 491.39062 265.5282 492.625Q265.5282 493.89062 266.01257 494.45312Q266.49695 495.01562 267.26257 495.01562Q267.88757 495.01562 268.29382 494.64062Q268.7157 494.26562 268.8407 493.46875ZM270.7782 495.75L270.7782 487.15625L271.8407 487.15625L271.8407 492.0625L274.32507 489.53125L275.70007 489.53125L273.30945 491.82812L275.93445 495.75L274.63757 495.75L272.57507 492.5625L271.8407 493.28125L271.8407 495.75L270.7782 495.75ZM277.74695 495.75L276.76257 495.75L276.76257 487.15625L277.82507 487.15625L277.82507 490.21875Q278.49695 489.39062 279.5282 489.39062Q280.10632 489.39062 280.60632 489.625Q281.12195 489.84375 281.45007 490.26562Q281.79382 490.6875 281.98132 491.28125Q282.16882 491.875 282.16882 492.54688Q282.16882 494.14062 281.37195 495.01562Q280.57507 495.89062 279.48132 495.89062Q278.37195 495.89062 277.74695 494.96875L277.74695 495.75ZM277.73132 492.59375Q277.73132 493.70312 278.04382 494.20312Q278.54382 495.01562 279.38757 495.01562Q280.07507 495.01562 280.57507 494.42188Q281.0907 493.82812 281.0907 492.625Q281.0907 491.40625 280.60632 490.82812Q280.12195 490.25 279.43445 490.25Q278.74695 490.25 278.23132 490.85938Q277.73132 491.45312 277.73132 492.59375ZM283.38757 492.64062Q283.38757 490.90625 284.3407 490.07812Q285.13757 489.39062 286.29382 489.39062Q287.57507 489.39062 288.38757 490.23438Q289.2157 491.0625 289.2157 492.54688Q289.2157 493.75 288.85632 494.4375Q288.49695 495.125 287.79382 495.51562Q287.10632 495.89062 286.29382 495.89062Q284.99695 495.89062 284.18445 495.0625Q283.38757 494.21875 283.38757 492.64062ZM284.4657 492.64062Q284.4657 493.82812 284.98132 494.42188Q285.51257 495.01562 286.29382 495.01562Q287.0907 495.01562 287.60632 494.42188Q288.12195 493.82812 288.12195 492.60938Q288.12195 491.45312 287.5907 490.85938Q287.07507 490.26562 286.29382 490.26562Q285.51257 490.26562 284.98132 490.85938Q284.4657 491.4375 284.4657 492.64062ZM294.8407 494.98438Q294.24695 495.48438 293.70007 495.6875Q293.16882 495.89062 292.54382 495.89062Q291.51257 495.89062 290.9657 495.39062Q290.41882 494.89062 290.41882 494.10938Q290.41882 493.65625 290.62195 493.28125Q290.82507 492.89062 291.16882 492.67188Q291.51257 492.4375 291.93445 492.32812Q292.23132 492.23438 292.87195 492.15625Q294.13757 492.01562 294.74695 491.79688Q294.74695 491.57812 294.74695 491.53125Q294.74695 490.875 294.45007 490.60938Q294.04382 490.26562 293.24695 490.26562Q292.51257 490.26562 292.1532 490.53125Q291.79382 490.78125 291.62195 491.4375L290.5907 491.29688Q290.73132 490.64062 291.05945 490.23438Q291.38757 489.82812 291.99695 489.60938Q292.60632 489.39062 293.4032 489.39062Q294.20007 489.39062 294.70007 489.57812Q295.20007 489.76562 295.43445 490.04688Q295.66882 490.32812 295.76257 490.76562Q295.80945 491.03125 295.80945 491.73438L295.80945 493.14062Q295.80945 494.60938 295.87195 495.0Q295.95007 495.39062 296.1532 495.75L295.04382 495.75Q294.88757 495.42188 294.8407 494.98438ZM294.74695 492.625Q294.16882 492.85938 293.0282 493.03125Q292.37195 493.125 292.10632 493.25Q291.8407 493.35938 291.68445 493.57812Q291.54382 493.79688 291.54382 494.07812Q291.54382 494.5 291.85632 494.78125Q292.18445 495.0625 292.79382 495.0625Q293.4032 495.0625 293.87195 494.79688Q294.35632 494.53125 294.57507 494.0625Q294.74695 493.70312 294.74695 493.01562L294.74695 492.625ZM297.76257 495.75L297.76257 489.53125L298.7157 489.53125L298.7157 490.46875Q299.07507 489.8125 299.37195 489.60938Q299.68445 489.39062 300.05945 489.39062Q300.5907 489.39062 301.13757 489.71875L300.7782 490.70312Q300.38757 490.46875 300.01257 490.46875Q299.6532 490.46875 299.37195 490.6875Q299.10632 490.89062 298.99695 491.26562Q298.80945 491.82812 298.80945 492.48438L298.80945 495.75L297.76257 495.75ZM305.80945 495.75L305.80945 494.96875Q305.2157 495.89062 304.07507 495.89062Q303.32507 495.89062 302.70007 495.48438Q302.07507 495.0625 301.73132 494.32812Q301.38757 493.59375 301.38757 492.64062Q301.38757 491.71875 301.70007 490.95312Q302.01257 490.1875 302.63757 489.79688Q303.26257 489.39062 304.0282 489.39062Q304.5907 489.39062 305.0282 489.625Q305.4657 489.85938 305.74695 490.23438L305.74695 487.15625L306.79382 487.15625L306.79382 495.75L305.80945 495.75ZM302.48132 492.64062Q302.48132 493.84375 302.98132 494.4375Q303.48132 495.01562 304.16882 495.01562Q304.85632 495.01562 305.3407 494.45312Q305.82507 493.89062 305.82507 492.73438Q305.82507 491.45312 305.32507 490.85938Q304.8407 490.26562 304.12195 490.26562Q303.41882 490.26562 302.95007 490.84375Q302.48132 491.40625 302.48132 492.64062ZM311.85632 495.75L311.85632 487.15625L312.99695 487.15625L312.99695 494.73438L317.23132 494.73438L317.23132 495.75L311.85632 495.75ZM323.0282 493.75L324.12195 493.875Q323.87195 494.82812 323.16882 495.35938Q322.4657 495.89062 321.38757 495.89062Q320.0282 495.89062 319.2157 495.04688Q318.41882 494.20312 318.41882 492.6875Q318.41882 491.125 319.23132 490.26562Q320.04382 489.39062 321.32507 489.39062Q322.57507 489.39062 323.35632 490.23438Q324.1532 491.07812 324.1532 492.625Q324.1532 492.71875 324.1532 492.90625L319.51257 492.90625Q319.57507 493.9375 320.0907 494.48438Q320.60632 495.01562 321.38757 495.01562Q321.9657 495.01562 322.37195 494.71875Q322.79382 494.40625 323.0282 493.75ZM319.57507 492.04688L323.04382 492.04688Q322.98132 491.25 322.6532 490.85938Q322.13757 490.25 321.3407 490.25Q320.60632 490.25 320.10632 490.73438Q319.62195 491.21875 319.57507 492.04688ZM329.8407 494.98438Q329.24695 495.48438 328.70007 495.6875Q328.16882 495.89062 327.54382 495.89062Q326.51257 495.89062 325.9657 495.39062Q325.41882 494.89062 325.41882 494.10938Q325.41882 493.65625 325.62195 493.28125Q325.82507 492.89062 326.16882 492.67188Q326.51257 492.4375 326.93445 492.32812Q327.23132 492.23438 327.87195 492.15625Q329.13757 492.01562 329.74695 491.79688Q329.74695 491.57812 329.74695 491.53125Q329.74695 490.875 329.45007 490.60938Q329.04382 490.26562 328.24695 490.26562Q327.51257 490.26562 327.1532 490.53125Q326.79382 490.78125 326.62195 491.4375L325.5907 491.29688Q325.73132 490.64062 326.05945 490.23438Q326.38757 489.82812 326.99695 489.60938Q327.60632 489.39062 328.4032 489.39062Q329.20007 489.39062 329.70007 489.57812Q330.20007 489.76562 330.43445 490.04688Q330.66882 490.32812 330.76257 490.76562Q330.80945 491.03125 330.80945 491.73438L330.80945 493.14062Q330.80945 494.60938 330.87195 495.0Q330.95007 495.39062 331.1532 495.75L330.04382 495.75Q329.88757 495.42188 329.8407 494.98438ZM329.74695 492.625Q329.16882 492.85938 328.0282 493.03125Q327.37195 493.125 327.10632 493.25Q326.8407 493.35938 326.68445 493.57812Q326.54382 493.79688 326.54382 494.07812Q326.54382 494.5 326.85632 494.78125Q327.18445 495.0625 327.79382 495.0625Q328.4032 495.0625 328.87195 494.79688Q329.35632 494.53125 329.57507 494.0625Q329.74695 493.70312 329.74695 493.01562L329.74695 492.625ZM332.76257 495.75L332.76257 489.53125L333.7157 489.53125L333.7157 490.46875Q334.07507 489.8125 334.37195 489.60938Q334.68445 489.39062 335.05945 489.39062Q335.5907 489.39062 336.13757 489.71875L335.7782 490.70312Q335.38757 490.46875 335.01257 490.46875Q334.6532 490.46875 334.37195 490.6875Q334.10632 490.89062 333.99695 491.26562Q333.80945 491.82812 333.80945 492.48438L333.80945 495.75L332.76257 495.75ZM336.7782 495.75L336.7782 489.53125L337.7157 489.53125L337.7157 490.40625Q338.4032 489.39062 339.70007 489.39062Q340.26257 489.39062 340.73132 489.59375Q341.2157 489.79688 341.45007 490.125Q341.68445 490.45312 341.7782 490.89062Q341.82507 491.1875 341.82507 491.92188L341.82507 495.75L340.7782 495.75L340.7782 491.96875Q340.7782 491.3125 340.6532 491.0Q340.5282 490.6875 340.2157 490.5Q339.9032 490.29688 339.48132 490.29688Q338.80945 490.29688 338.30945 490.73438Q337.82507 491.15625 337.82507 492.34375L337.82507 495.75L336.7782 495.75Z" fill-rule="nonzero"/><path fill="#000000" d="M418.89062 495.75L418.89062 487.15625L420.60938 487.15625L422.64062 493.23438Q422.92188 494.09375 423.04688 494.51562Q423.1875 494.04688 423.5 493.14062L425.5625 487.15625L427.09375 487.15625L427.09375 495.75L426.0 495.75L426.0 488.5625L423.5 495.75L422.46875 495.75L419.98438 488.4375L419.98438 495.75L418.89062 495.75ZM428.40625 492.64062Q428.40625 490.90625 429.35938 490.07812Q430.15625 489.39062 431.3125 489.39062Q432.59375 489.39062 433.40625 490.23438Q434.23438 491.0625 434.23438 492.54688Q434.23438 493.75 433.875 494.4375Q433.51562 495.125 432.8125 495.51562Q432.125 495.89062 431.3125 495.89062Q430.01562 495.89062 429.20312 495.0625Q428.40625 494.21875 428.40625 492.64062ZM429.48438 492.64062Q429.48438 493.82812 430.0 494.42188Q430.53125 495.01562 431.3125 495.01562Q432.10938 495.01562 432.625 494.42188Q433.14062 493.82812 433.14062 492.60938Q433.14062 491.45312 432.60938 490.85938Q432.09375 490.26562 431.3125 490.26562Q430.53125 490.26562 430.0 490.85938Q429.48438 491.4375 429.48438 492.64062ZM435.40625 492.64062Q435.40625 490.90625 436.35938 490.07812Q437.15625 489.39062 438.3125 489.39062Q439.59375 489.39062 440.40625 490.23438Q441.23438 491.0625 441.23438 492.54688Q441.23438 493.75 440.875 494.4375Q440.51562 495.125 439.8125 495.51562Q439.125 495.89062 438.3125 495.89062Q437.01562 495.89062 436.20312 495.0625Q435.40625 494.21875 435.40625 492.64062ZM436.48438 492.64062Q436.48438 493.82812 437.0 494.42188Q437.53125 495.01562 438.3125 495.01562Q439.10938 495.01562 439.625 494.42188Q440.14062 493.82812 440.14062 492.60938Q440.14062 491.45312 439.60938 490.85938Q439.09375 490.26562 438.3125 490.26562Q437.53125 490.26562 437.0 490.85938Q436.48438 491.4375 436.48438 492.64062ZM446.82812 495.75L446.82812 494.96875Q446.23438 495.89062 445.09375 495.89062Q444.34375 495.89062 443.71875 495.48438Q443.09375 495.0625 442.75 494.32812Q442.40625 493.59375 442.40625 492.64062Q442.40625 491.71875 442.71875 490.95312Q443.03125 490.1875 443.65625 489.79688Q444.28125 489.39062 445.04688 489.39062Q445.60938 489.39062 446.04688 489.625Q446.48438 489.85938 446.76562 490.23438L446.76562 487.15625L447.8125 487.15625L447.8125 495.75L446.82812 495.75ZM443.5 492.64062Q443.5 493.84375 444.0 494.4375Q444.5 495.01562 445.1875 495.01562Q445.875 495.01562 446.35938 494.45312Q446.84375 493.89062 446.84375 492.73438Q446.84375 491.45312 446.34375 490.85938Q445.85938 490.26562 445.14062 490.26562Q444.4375 490.26562 443.96875 490.84375Q443.5 491.40625 443.5 492.64062ZM449.76562 495.75L449.76562 487.15625L450.82812 487.15625L450.82812 495.75L449.76562 495.75ZM457.04688 493.75L458.14062 493.875Q457.89062 494.82812 457.1875 495.35938Q456.48438 495.89062 455.40625 495.89062Q454.04688 495.89062 453.23438 495.04688Q452.4375 494.20312 452.4375 492.6875Q452.4375 491.125 453.25 490.26562Q454.0625 489.39062 455.34375 489.39062Q456.59375 489.39062 457.375 490.23438Q458.17188 491.07812 458.17188 492.625Q458.17188 492.71875 458.17188 492.90625L453.53125 492.90625Q453.59375 493.9375 454.10938 494.48438Q454.625 495.01562 455.40625 495.01562Q455.98438 495.01562 456.39062 494.71875Q456.8125 494.40625 457.04688 493.75ZM453.59375 492.04688L457.0625 492.04688Q457.0 491.25 456.67188 490.85938Q456.15625 490.25 455.35938 490.25Q454.625 490.25 454.125 490.73438Q453.64062 491.21875 453.59375 492.04688Z" fill-rule="nonzero"/><path fill="#000000" d="M561.94055 495.75L561.94055 487.15625L564.9093 487.15625Q565.9093 487.15625 566.44055 487.28125Q567.1749 487.45312 567.69055 487.89062Q568.37805 488.46875 568.7062 489.375Q569.0499 490.26562 569.0499 491.40625Q569.0499 492.39062 568.81555 493.14062Q568.5968 493.89062 568.2374 494.39062Q567.87805 494.89062 567.44055 495.17188Q567.0187 495.45312 566.4249 495.60938Q565.8312 495.75 565.0499 495.75L561.94055 495.75ZM563.0812 494.73438L564.9093 494.73438Q565.7687 494.73438 566.25305 494.57812Q566.7374 494.42188 567.0187 494.125Q567.4249 493.73438 567.6437 493.04688Q567.87805 492.35938 567.87805 491.39062Q567.87805 490.04688 567.4249 489.32812Q566.9874 488.59375 566.3624 488.34375Q565.8937 488.17188 564.8937 488.17188L563.0812 488.17188L563.0812 494.73438ZM576.06555 494.73438L576.06555 495.75L570.37805 495.75Q570.37805 495.375 570.50305 495.01562Q570.7218 494.4375 571.19055 493.875Q571.6749 493.3125 572.5812 492.57812Q573.9874 491.42188 574.4718 490.75Q574.9718 490.07812 574.9718 489.48438Q574.9718 488.85938 574.5187 488.4375Q574.06555 488.0 573.3468 488.0Q572.5812 488.0 572.12805 488.45312Q571.6749 488.90625 571.6593 489.71875L570.5812 489.60938Q570.69055 488.39062 571.4093 487.76562Q572.1437 487.125 573.37805 487.125Q574.6124 487.125 575.3312 487.8125Q576.0499 488.5 576.0499 489.51562Q576.0499 490.03125 575.8312 490.53125Q575.62805 491.01562 575.12805 491.57812Q574.6437 492.125 573.5187 493.07812Q572.56555 493.875 572.2843 494.17188Q572.0187 494.45312 571.8468 494.73438L576.06555 494.73438ZM577.8937 495.75L577.8937 487.15625L579.0343 487.15625L579.0343 494.73438L583.2687 494.73438L583.2687 495.75L577.8937 495.75ZM594.0812 492.73438L595.2062 493.03125Q594.8468 494.42188 593.9249 495.15625Q593.00305 495.89062 591.6593 495.89062Q590.2687 495.89062 589.3937 495.32812Q588.5187 494.76562 588.06555 493.70312Q587.6124 492.625 587.6124 491.39062Q587.6124 490.04688 588.12805 489.04688Q588.6437 488.04688 589.5812 487.53125Q590.5343 487.01562 591.6749 487.01562Q592.9562 487.01562 593.8312 487.67188Q594.7218 488.32812 595.06555 489.51562L593.94055 489.78125Q593.6437 488.84375 593.06555 488.42188Q592.50305 487.98438 591.6437 487.98438Q590.6593 487.98438 589.9874 488.46875Q589.3312 488.9375 589.0499 489.73438Q588.7843 490.53125 588.7843 491.39062Q588.7843 492.48438 589.0968 493.29688Q589.4249 494.10938 590.0968 494.51562Q590.7687 494.92188 591.56555 494.92188Q592.5187 494.92188 593.1749 494.375Q593.8468 493.82812 594.0812 492.73438ZM596.00305 495.75L599.2999 487.15625L600.5187 487.15625L604.0343 495.75L602.75305 495.75L601.7374 493.14062L598.1593 493.14062L597.2062 495.75L596.00305 495.75ZM598.4874 492.21875L601.3937 492.21875L600.50305 489.84375Q600.0812 488.76562 599.8937 488.0625Q599.7218 488.89062 599.4249 489.70312L598.4874 492.21875Z" fill-rule="nonzero"/><path fill="#000000" d="M680.4905 492.375L680.4905 491.375L684.1155 491.35938L684.1155 494.54688Q683.28735 495.21875 682.3967 495.5625Q681.5061 495.89062 680.5686 495.89062Q679.303 495.89062 678.2561 495.35938Q677.22485 494.8125 676.6936 493.79688Q676.178 492.76562 676.178 491.5Q676.178 490.23438 676.6936 489.15625Q677.22485 488.0625 678.2092 487.54688Q679.1936 487.01562 680.47485 487.01562Q681.41235 487.01562 682.16235 487.3125Q682.91235 487.60938 683.3342 488.15625Q683.7717 488.6875 683.9905 489.5625L682.97485 489.84375Q682.7717 489.1875 682.47485 488.8125Q682.1936 488.4375 681.66235 488.21875Q681.1311 487.98438 680.4905 487.98438Q679.7092 487.98438 679.1311 488.21875Q678.5686 488.45312 678.2092 488.84375Q677.8655 489.23438 677.678 489.70312Q677.34985 490.5 677.34985 491.42188Q677.34985 492.57812 677.7405 493.35938Q678.1467 494.125 678.8967 494.5Q679.6467 494.875 680.5061 494.875Q681.2405 494.875 681.9436 494.59375Q682.6467 494.29688 683.0061 493.98438L683.0061 492.375L680.4905 492.375ZM684.9436 492.64062Q684.9436 490.90625 685.8967 490.07812Q686.6936 489.39062 687.84985 489.39062Q689.1311 489.39062 689.9436 490.23438Q690.7717 491.0625 690.7717 492.54688Q690.7717 493.75 690.41235 494.4375Q690.053 495.125 689.34985 495.51562Q688.66235 495.89062 687.84985 495.89062Q686.553 495.89062 685.7405 495.0625Q684.9436 494.21875 684.9436 492.64062ZM686.0217 492.64062Q686.0217 493.82812 686.53735 494.42188Q687.0686 495.01562 687.84985 495.01562Q688.6467 495.01562 689.16235 494.42188Q689.678 493.82812 689.678 492.60938Q689.678 491.45312 689.1467 490.85938Q688.6311 490.26562 687.84985 490.26562Q687.0686 490.26562 686.53735 490.85938Q686.0217 491.4375 686.0217 492.64062ZM691.9436 492.64062Q691.9436 490.90625 692.8967 490.07812Q693.6936 489.39062 694.84985 489.39062Q696.1311 489.39062 696.9436 490.23438Q697.7717 491.0625 697.7717 492.54688Q697.7717 493.75 697.41235 494.4375Q697.053 495.125 696.34985 495.51562Q695.66235 495.89062 694.84985 495.89062Q693.553 495.89062 692.7405 495.0625Q691.9436 494.21875 691.9436 492.64062ZM693.0217 492.64062Q693.0217 493.82812 693.53735 494.42188Q694.0686 495.01562 694.84985 495.01562Q695.6467 495.01562 696.16235 494.42188Q696.678 493.82812 696.678 492.60938Q696.678 491.45312 696.1467 490.85938Q695.6311 490.26562 694.84985 490.26562Q694.0686 490.26562 693.53735 490.85938Q693.0217 491.4375 693.0217 492.64062ZM699.1311 496.26562L700.16235 496.42188Q700.22485 496.89062 700.5217 497.10938Q700.91235 497.40625 701.5842 497.40625Q702.3186 497.40625 702.7092 497.10938Q703.1155 496.8125 703.2561 496.29688Q703.34985 495.96875 703.3342 494.9375Q702.6467 495.75 701.6155 495.75Q700.3342 495.75 699.6311 494.82812Q698.928 493.89062 698.928 492.60938Q698.928 491.71875 699.2405 490.96875Q699.5686 490.20312 700.178 489.79688Q700.78735 489.39062 701.6155 489.39062Q702.72485 489.39062 703.4436 490.28125L703.4436 489.53125L704.41235 489.53125L704.41235 494.90625Q704.41235 496.35938 704.1155 496.96875Q703.8186 497.57812 703.178 497.92188Q702.53735 498.28125 701.59985 498.28125Q700.4905 498.28125 699.803 497.78125Q699.1155 497.28125 699.1311 496.26562ZM700.0061 492.53125Q700.0061 493.75 700.4905 494.3125Q700.97485 494.875 701.7092 494.875Q702.4436 494.875 702.928 494.3125Q703.428 493.75 703.428 492.5625Q703.428 491.42188 702.91235 490.84375Q702.41235 490.26562 701.6936 490.26562Q700.9905 490.26562 700.4905 490.84375Q700.0061 491.40625 700.0061 492.53125ZM706.303 495.75L706.303 487.15625L707.3655 487.15625L707.3655 495.75L706.303 495.75ZM713.5842 493.75L714.678 493.875Q714.428 494.82812 713.72485 495.35938Q713.0217 495.89062 711.9436 495.89062Q710.5842 495.89062 709.7717 495.04688Q708.97485 494.20312 708.97485 492.6875Q708.97485 491.125 709.78735 490.26562Q710.59985 489.39062 711.8811 489.39062Q713.1311 489.39062 713.91235 490.23438Q714.7092 491.07812 714.7092 492.625Q714.7092 492.71875 714.7092 492.90625L710.0686 492.90625Q710.1311 493.9375 710.6467 494.48438Q711.16235 495.01562 711.9436 495.01562Q712.5217 495.01562 712.928 494.71875Q713.34985 494.40625 713.5842 493.75ZM710.1311 492.04688L713.59985 492.04688Q713.53735 491.25 713.2092 490.85938Q712.6936 490.25 711.8967 490.25Q711.16235 490.25 710.66235 490.73438Q710.178 491.21875 710.1311 492.04688ZM725.59985 492.73438L726.72485 493.03125Q726.3655 494.42188 725.4436 495.15625Q724.5217 495.89062 723.178 495.89062Q721.78735 495.89062 720.91235 495.32812Q720.03735 494.76562 719.5842 493.70312Q719.1311 492.625 719.1311 491.39062Q719.1311 490.04688 719.6467 489.04688Q720.16235 488.04688 721.09985 487.53125Q722.053 487.01562 723.1936 487.01562Q724.47485 487.01562 725.34985 487.67188Q726.2405 488.32812 726.5842 489.51562L725.4592 489.78125Q725.16235 488.84375 724.5842 488.42188Q724.0217 487.98438 723.16235 487.98438Q722.178 487.98438 721.5061 488.46875Q720.84985 488.9375 720.5686 489.73438Q720.303 490.53125 720.303 491.39062Q720.303 492.48438 720.6155 493.29688Q720.9436 494.10938 721.6155 494.51562Q722.28735 494.92188 723.0842 494.92188Q724.03735 494.92188 724.6936 494.375Q725.3655 493.82812 725.59985 492.73438ZM728.303 495.75L728.303 487.15625L729.3655 487.15625L729.3655 495.75L728.303 495.75ZM735.3967 494.98438Q734.803 495.48438 734.2561 495.6875Q733.72485 495.89062 733.09985 495.89062Q732.0686 495.89062 731.5217 495.39062Q730.97485 494.89062 730.97485 494.10938Q730.97485 493.65625 731.178 493.28125Q731.3811 492.89062 731.72485 492.67188Q732.0686 492.4375 732.4905 492.32812Q732.78735 492.23438 733.428 492.15625Q734.6936 492.01562 735.303 491.79688Q735.303 491.57812 735.303 491.53125Q735.303 490.875 735.0061 490.60938Q734.59985 490.26562 733.803 490.26562Q733.0686 490.26562 732.7092 490.53125Q732.34985 490.78125 732.178 491.4375L731.1467 491.29688Q731.28735 490.64062 731.6155 490.23438Q731.9436 489.82812 732.553 489.60938Q733.16235 489.39062 733.9592 489.39062Q734.7561 489.39062 735.2561 489.57812Q735.7561 489.76562 735.9905 490.04688Q736.22485 490.32812 736.3186 490.76562Q736.3655 491.03125 736.3655 491.73438L736.3655 493.14062Q736.3655 494.60938 736.428 495.0Q736.5061 495.39062 736.7092 495.75L735.59985 495.75Q735.4436 495.42188 735.3967 494.98438ZM735.303 492.625Q734.72485 492.85938 733.5842 493.03125Q732.928 493.125 732.66235 493.25Q732.3967 493.35938 732.2405 493.57812Q732.09985 493.79688 732.09985 494.07812Q732.09985 494.5 732.41235 494.78125Q732.7405 495.0625 733.34985 495.0625Q733.9592 495.0625 734.428 494.79688Q734.91235 494.53125 735.1311 494.0625Q735.303 493.70312 735.303 493.01562L735.303 492.625ZM737.91235 493.89062L738.9436 493.73438Q739.03735 494.35938 739.428 494.6875Q739.8342 495.01562 740.5686 495.01562Q741.28735 495.01562 741.6311 494.73438Q741.9905 494.4375 741.9905 494.03125Q741.9905 493.67188 741.678 493.46875Q741.4592 493.32812 740.59985 493.10938Q739.4436 492.8125 738.9905 492.60938Q738.553 492.39062 738.3186 492.01562Q738.0842 491.64062 738.0842 491.17188Q738.0842 490.76562 738.2717 490.40625Q738.4592 490.04688 738.78735 489.8125Q739.03735 489.64062 739.4592 489.51562Q739.8811 489.39062 740.3811 489.39062Q741.09985 489.39062 741.6467 489.60938Q742.2092 489.8125 742.47485 490.17188Q742.7405 490.53125 742.8342 491.125L741.803 491.26562Q741.7405 490.79688 741.3967 490.53125Q741.0686 490.25 740.4436 490.25Q739.72485 490.25 739.41235 490.5Q739.09985 490.73438 739.09985 491.0625Q739.09985 491.26562 739.22485 491.42188Q739.3655 491.59375 739.6311 491.70312Q739.78735 491.76562 740.5686 491.96875Q741.6936 492.28125 742.1311 492.46875Q742.5686 492.65625 742.8186 493.01562Q743.0686 493.375 743.0686 493.92188Q743.0686 494.45312 742.7561 494.92188Q742.4592 495.375 741.8811 495.64062Q741.303 495.89062 740.5686 495.89062Q739.34985 495.89062 738.7092 495.39062Q738.0842 494.875 737.91235 493.89062ZM743.91235 493.89062L744.9436 493.73438Q745.03735 494.35938 745.428 494.6875Q745.8342 495.01562 746.5686 495.01562Q747.28735 495.01562 747.6311 494.73438Q747.9905 494.4375 747.9905 494.03125Q747.9905 493.67188 747.678 493.46875Q747.4592 493.32812 746.59985 493.10938Q745.4436 492.8125 744.9905 492.60938Q744.553 492.39062 744.3186 492.01562Q744.0842 491.64062 744.0842 491.17188Q744.0842 490.76562 744.2717 490.40625Q744.4592 490.04688 744.78735 489.8125Q745.03735 489.64062 745.4592 489.51562Q745.8811 489.39062 746.3811 489.39062Q747.09985 489.39062 747.6467 489.60938Q748.2092 489.8125 748.47485 490.17188Q748.7405 490.53125 748.8342 491.125L747.803 491.26562Q747.7405 490.79688 747.3967 490.53125Q747.0686 490.25 746.4436 490.25Q745.72485 490.25 745.41235 490.5Q745.09985 490.73438 745.09985 491.0625Q745.09985 491.26562 745.22485 491.42188Q745.3655 491.59375 745.6311 491.70312Q745.78735 491.76562 746.5686 491.96875Q747.6936 492.28125 748.1311 492.46875Q748.5686 492.65625 748.8186 493.01562Q749.0686 493.375 749.0686 493.92188Q749.0686 494.45312 748.7561 494.92188Q748.4592 495.375 747.8811 495.64062Q747.303 495.89062 746.5686 495.89062Q745.34985 495.89062 744.7092 495.39062Q744.0842 494.875 743.91235 493.89062ZM750.3186 495.75L750.3186 489.53125L751.2717 489.53125L751.2717 490.46875Q751.6311 489.8125 751.928 489.60938Q752.2405 489.39062 752.6155 489.39062Q753.1467 489.39062 753.6936 489.71875L753.3342 490.70312Q752.9436 490.46875 752.5686 490.46875Q752.2092 490.46875 751.928 490.6875Q751.66235 490.89062 751.553 491.26562Q751.3655 491.82812 751.3655 492.48438L751.3655 495.75L750.3186 495.75ZM753.9436 492.64062Q753.9436 490.90625 754.8967 490.07812Q755.6936 489.39062 756.84985 489.39062Q758.1311 489.39062 758.9436 490.23438Q759.7717 491.0625 759.7717 492.54688Q759.7717 493.75 759.41235 494.4375Q759.053 495.125 758.34985 495.51562Q757.66235 495.89062 756.84985 495.89062Q755.553 495.89062 754.7405 495.0625Q753.9436 494.21875 753.9436 492.64062ZM755.0217 492.64062Q755.0217 493.82812 755.53735 494.42188Q756.0686 495.01562 756.84985 495.01562Q757.6467 495.01562 758.16235 494.42188Q758.678 493.82812 758.678 492.60938Q758.678 491.45312 758.1467 490.85938Q757.6311 490.26562 756.84985 490.26562Q756.0686 490.26562 755.53735 490.85938Q755.0217 491.4375 755.0217 492.64062ZM760.9436 492.64062Q760.9436 490.90625 761.8967 490.07812Q762.6936 489.39062 763.84985 489.39062Q765.1311 489.39062 765.9436 490.23438Q766.7717 491.0625 766.7717 492.54688Q766.7717 493.75 766.41235 494.4375Q766.053 495.125 765.34985 495.51562Q764.66235 495.89062 763.84985 495.89062Q762.553 495.89062 761.7405 495.0625Q760.9436 494.21875 760.9436 492.64062ZM762.0217 492.64062Q762.0217 493.82812 762.53735 494.42188Q763.0686 495.01562 763.84985 495.01562Q764.6467 495.01562 765.16235 494.42188Q765.678 493.82812 765.678 492.60938Q765.678 491.45312 765.1467 490.85938Q764.6311 490.26562 763.84985 490.26562Q763.0686 490.26562 762.53735 490.85938Q762.0217 491.4375 762.0217 492.64062ZM768.3342 495.75L768.3342 489.53125L769.2717 489.53125L769.2717 490.40625Q769.5686 489.9375 770.053 489.67188Q770.53735 489.39062 771.16235 489.39062Q771.84985 489.39062 772.28735 489.67188Q772.7405 489.95312 772.91235 490.46875Q773.66235 489.39062 774.8342 489.39062Q775.7717 489.39062 776.2561 489.90625Q776.7561 490.40625 776.7561 491.48438L776.7561 495.75L775.7092 495.75L775.7092 491.82812Q775.7092 491.20312 775.59985 490.92188Q775.5061 490.64062 775.2405 490.46875Q774.97485 490.29688 774.59985 490.29688Q773.9436 490.29688 773.5061 490.73438Q773.0842 491.17188 773.0842 492.14062L773.0842 495.75L772.0217 495.75L772.0217 491.70312Q772.0217 491.0 771.7561 490.65625Q771.5061 490.29688 770.928 490.29688Q770.47485 490.29688 770.09985 490.53125Q769.72485 490.76562 769.553 491.21875Q769.3811 491.67188 769.3811 492.51562L769.3811 495.75L768.3342 495.75Z" fill-rule="nonzero"/><path fill="#4285f4" d="M198.0 69.75C198.0 69.197716 198.44771 68.75 199.0 68.75L209.0 68.75C209.55229 68.75 210.0 69.197716 210.0 69.75L210.0 79.75C210.0 80.302284 209.55229 80.75 209.0 80.75L199.0 80.75C198.44771 80.75 198.0 80.302284 198.0 79.75Z" fill-rule="nonzero"/><path fill="#1a1a1a" d="M221.10938 78.75L221.10938 71.171875L218.28125 71.171875L218.28125 70.15625L225.09375 70.15625L225.09375 71.171875L222.25 71.171875L222.25 78.75L221.10938 78.75ZM230.04688 76.75L231.14062 76.875Q230.89062 77.828125 230.1875 78.359375Q229.48438 78.890625 228.40625 78.890625Q227.04688 78.890625 226.23438 78.046875Q225.4375 77.203125 225.4375 75.6875Q225.4375 74.125 226.25 73.265625Q227.0625 72.390625 228.34375 72.390625Q229.59375 72.390625 230.375 73.234375Q231.17188 74.078125 231.17188 75.625Q231.17188 75.71875 231.17188 75.90625L226.53125 75.90625Q226.59375 76.9375 227.10938 77.484375Q227.625 78.015625 228.40625 78.015625Q228.98438 78.015625 229.39062 77.71875Q229.8125 77.40625 230.04688 76.75ZM226.59375 75.046875L230.0625 75.046875Q230.0 74.25 229.67188 73.859375Q229.15625 73.25 228.35938 73.25Q227.625 73.25 227.125 73.734375Q226.64062 74.21875 226.59375 75.046875ZM236.85938 77.984375Q236.26562 78.484375 235.71875 78.6875Q235.1875 78.890625 234.5625 78.890625Q233.53125 78.890625 232.98438 78.390625Q232.4375 77.890625 232.4375 77.109375Q232.4375 76.65625 232.64062 76.28125Q232.84375 75.890625 233.1875 75.671875Q233.53125 75.4375 233.95312 75.328125Q234.25 75.234375 234.89062 75.15625Q236.15625 75.015625 236.76562 74.796875Q236.76562 74.578125 236.76562 74.53125Q236.76562 73.875 236.46875 73.609375Q236.0625 73.265625 235.26562 73.265625Q234.53125 73.265625 234.17188 73.53125Q233.8125 73.78125 233.64062 74.4375L232.60938 74.296875Q232.75 73.640625 233.07812 73.234375Q233.40625 72.828125 234.01562 72.609375Q234.625 72.390625 235.42188 72.390625Q236.21875 72.390625 236.71875 72.578125Q237.21875 72.765625 237.45312 73.046875Q237.6875 73.328125 237.78125 73.765625Q237.82812 74.03125 237.82812 74.734375L237.82812 76.140625Q237.82812 77.609375 237.89062 78.0Q237.96875 78.390625 238.17188 78.75L237.0625 78.75Q236.90625 78.421875 236.85938 77.984375ZM236.76562 75.625Q236.1875 75.859375 235.04688 76.03125Q234.39062 76.125 234.125 76.25Q233.85938 76.359375 233.70312 76.578125Q233.5625 76.796875 233.5625 77.078125Q233.5625 77.5 233.875 77.78125Q234.20312 78.0625 234.8125 78.0625Q235.42188 78.0625 235.89062 77.796875Q236.375 77.53125 236.59375 77.0625Q236.76562 76.703125 236.76562 76.015625L236.76562 75.625ZM243.85938 76.46875L244.89062 76.609375Q244.71875 77.671875 244.01562 78.28125Q243.3125 78.890625 242.29688 78.890625Q241.01562 78.890625 240.23438 78.0625Q239.46875 77.21875 239.46875 75.65625Q239.46875 74.65625 239.79688 73.90625Q240.14062 73.140625 240.8125 72.765625Q241.5 72.390625 242.3125 72.390625Q243.3125 72.390625 243.95312 72.90625Q244.60938 73.40625 244.79688 74.359375L243.76562 74.515625Q243.625 73.890625 243.25 73.578125Q242.875 73.25 242.34375 73.25Q241.54688 73.25 241.04688 73.828125Q240.54688 74.390625 240.54688 75.625Q240.54688 76.890625 241.03125 77.453125Q241.51562 78.015625 242.28125 78.015625Q242.90625 78.015625 243.3125 77.640625Q243.73438 77.265625 243.85938 76.46875ZM245.79688 78.75L245.79688 70.15625L246.84375 70.15625L246.84375 73.234375Q247.57812 72.390625 248.70312 72.390625Q249.40625 72.390625 249.90625 72.671875Q250.42188 72.9375 250.64062 73.421875Q250.85938 73.890625 250.85938 74.8125L250.85938 78.75L249.8125 78.75L249.8125 74.8125Q249.8125 74.015625 249.46875 73.65625Q249.125 73.296875 248.5 73.296875Q248.03125 73.296875 247.60938 73.546875Q247.20312 73.78125 247.01562 74.203125Q246.84375 74.609375 246.84375 75.34375L246.84375 78.75L245.79688 78.75ZM252.79688 71.375L252.79688 70.15625L253.85938 70.15625L253.85938 71.375L252.79688 71.375ZM252.79688 78.75L252.79688 72.53125L253.85938 72.53125L253.85938 78.75L252.79688 78.75ZM255.79688 78.75L255.79688 72.53125L256.73438 72.53125L256.73438 73.40625Q257.42188 72.390625 258.71875 72.390625Q259.28125 72.390625 259.75 72.59375Q260.23438 72.796875 260.46875 73.125Q260.70312 73.453125 260.79688 73.890625Q260.84375 74.1875 260.84375 74.921875L260.84375 78.75L259.79688 78.75L259.79688 74.96875Q259.79688 74.3125 259.67188 74.0Q259.54688 73.6875 259.23438 73.5Q258.92188 73.296875 258.5 73.296875Q257.82812 73.296875 257.32812 73.734375Q256.84375 74.15625 256.84375 75.34375L256.84375 78.75L255.79688 78.75ZM262.59375 79.265625L263.625 79.421875Q263.6875 79.890625 263.98438 80.109375Q264.375 80.40625 265.04688 80.40625Q265.78125 80.40625 266.17188 80.109375Q266.57812 79.8125 266.71875 79.296875Q266.8125 78.96875 266.79688 77.9375Q266.10938 78.75 265.07812 78.75Q263.79688 78.75 263.09375 77.828125Q262.39062 76.890625 262.39062 75.609375Q262.39062 74.71875 262.70312 73.96875Q263.03125 73.203125 263.64062 72.796875Q264.25 72.390625 265.07812 72.390625Q266.1875 72.390625 266.90625 73.28125L266.90625 72.53125L267.875 72.53125L267.875 77.90625Q267.875 79.359375 267.57812 79.96875Q267.28125 80.578125 266.64062 80.921875Q266.0 81.28125 265.0625 81.28125Q263.95312 81.28125 263.26562 80.78125Q262.57812 80.28125 262.59375 79.265625ZM263.46875 75.53125Q263.46875 76.75 263.95312 77.3125Q264.4375 77.875 265.17188 77.875Q265.90625 77.875 266.39062 77.3125Q266.89062 76.75 266.89062 75.5625Q266.89062 74.421875 266.375 73.84375Q265.875 73.265625 265.15625 73.265625Q264.45312 73.265625 263.95312 73.84375Q263.46875 74.40625 263.46875 75.53125Z" fill-rule="nonzero"/><path fill="#ea4335" d="M285.0 69.75C285.0 69.197716 285.44772 68.75 286.0 68.75L296.0 68.75C296.55228 68.75 297.0 69.197716 297.0 69.75L297.0 79.75C297.0 80.302284 296.55228 80.75 296.0 80.75L286.0 80.75C285.44772 80.75 285.0 80.302284 285.0 79.75Z" fill-rule="nonzero"/><path fill="#1a1a1a" d="M312.4375 77.828125Q313.23438 78.375 313.89062 78.625L313.5625 79.421875Q312.64062 79.078125 311.71875 78.359375Q310.76562 78.890625 309.60938 78.890625Q308.4375 78.890625 307.48438 78.328125Q306.54688 77.765625 306.03125 76.75Q305.51562 75.734375 305.51562 74.453125Q305.51562 73.1875 306.03125 72.140625Q306.54688 71.09375 307.5 70.546875Q308.45312 70.0 309.625 70.0Q310.8125 70.0 311.76562 70.578125Q312.73438 71.140625 313.23438 72.15625Q313.73438 73.171875 313.73438 74.453125Q313.73438 75.515625 313.40625 76.359375Q313.09375 77.203125 312.4375 77.828125ZM309.9375 76.375Q310.92188 76.65625 311.5625 77.203125Q312.5625 76.28125 312.5625 74.453125Q312.5625 73.40625 312.20312 72.625Q311.84375 71.84375 311.15625 71.421875Q310.48438 70.984375 309.64062 70.984375Q308.35938 70.984375 307.51562 71.859375Q306.6875 72.71875 306.6875 74.453125Q306.6875 76.125 307.51562 77.03125Q308.34375 77.921875 309.64062 77.921875Q310.25 77.921875 310.78125 77.6875Q310.25 77.34375 309.65625 77.203125L309.9375 76.375ZM318.875 78.75L318.875 77.828125Q318.14062 78.890625 316.89062 78.890625Q316.34375 78.890625 315.85938 78.6875Q315.39062 78.46875 315.15625 78.15625Q314.92188 77.828125 314.82812 77.359375Q314.76562 77.0625 314.76562 76.375L314.76562 72.53125L315.82812 72.53125L315.82812 75.984375Q315.82812 76.796875 315.89062 77.09375Q315.98438 77.5 316.29688 77.75Q316.625 77.984375 317.10938 77.984375Q317.57812 77.984375 317.98438 77.75Q318.40625 77.5 318.57812 77.078125Q318.76562 76.65625 318.76562 75.859375L318.76562 72.53125L319.8125 72.53125L319.8125 78.75L318.875 78.75ZM321.79688 71.375L321.79688 70.15625L322.85938 70.15625L322.85938 71.375L321.79688 71.375ZM321.79688 78.75L321.79688 72.53125L322.85938 72.53125L322.85938 78.75L321.79688 78.75ZM324.23438 78.75L324.23438 77.890625L328.20312 73.34375Q327.51562 73.375 327.0 73.375L324.46875 73.375L324.46875 72.53125L329.5625 72.53125L329.5625 73.21875L326.1875 77.171875L325.53125 77.890625Q326.25 77.84375 326.85938 77.84375L329.75 77.84375L329.75 78.75L324.23438 78.75ZM330.23438 78.75L330.23438 77.890625L334.20312 73.34375Q333.51562 73.375 333.0 73.375L330.46875 73.375L330.46875 72.53125L335.5625 72.53125L335.5625 73.21875L332.1875 77.171875L331.53125 77.890625Q332.25 77.84375 332.85938 77.84375L335.75 77.84375L335.75 78.75L330.23438 78.75ZM341.04688 76.75L342.14062 76.875Q341.89062 77.828125 341.1875 78.359375Q340.48438 78.890625 339.40625 78.890625Q338.04688 78.890625 337.23438 78.046875Q336.4375 77.203125 336.4375 75.6875Q336.4375 74.125 337.25 73.265625Q338.0625 72.390625 339.34375 72.390625Q340.59375 72.390625 341.375 73.234375Q342.17188 74.078125 342.17188 75.625Q342.17188 75.71875 342.17188 75.90625L337.53125 75.90625Q337.59375 76.9375 338.10938 77.484375Q338.625 78.015625 339.40625 78.015625Q339.98438 78.015625 340.39062 77.71875Q340.8125 77.40625 341.04688 76.75ZM337.59375 75.046875L341.0625 75.046875Q341.0 74.25 340.67188 73.859375Q340.15625 73.25 339.35938 73.25Q338.625 73.25 338.125 73.734375Q337.64062 74.21875 337.59375 75.046875ZM343.375 76.890625L344.40625 76.734375Q344.5 77.359375 344.89062 77.6875Q345.29688 78.015625 346.03125 78.015625Q346.75 78.015625 347.09375 77.734375Q347.45312 77.4375 347.45312 77.03125Q347.45312 76.671875 347.14062 76.46875Q346.92188 76.328125 346.0625 76.109375Q344.90625 75.8125 344.45312 75.609375Q344.01562 75.390625 343.78125 75.015625Q343.54688 74.640625 343.54688 74.171875Q343.54688 73.765625 343.73438 73.40625Q343.92188 73.046875 344.25 72.8125Q344.5 72.640625 344.92188 72.515625Q345.34375 72.390625 345.84375 72.390625Q346.5625 72.390625 347.10938 72.609375Q347.67188 72.8125 347.9375 73.171875Q348.20312 73.53125 348.29688 74.125L347.26562 74.265625Q347.20312 73.796875 346.85938 73.53125Q346.53125 73.25 345.90625 73.25Q345.1875 73.25 344.875 73.5Q344.5625 73.734375 344.5625 74.0625Q344.5625 74.265625 344.6875 74.421875Q344.82812 74.59375 345.09375 74.703125Q345.25 74.765625 346.03125 74.96875Q347.15625 75.28125 347.59375 75.46875Q348.03125 75.65625 348.28125 76.015625Q348.53125 76.375 348.53125 76.921875Q348.53125 77.453125 348.21875 77.921875Q347.92188 78.375 347.34375 78.640625Q346.76562 78.890625 346.03125 78.890625Q344.8125 78.890625 344.17188 78.390625Q343.54688 77.875 343.375 76.890625Z" fill-rule="nonzero"/><path fill="#fbbc04" d="M365.0 69.75C365.0 69.197716 365.44772 68.75 366.0 68.75L376.0 68.75C376.55228 68.75 377.0 69.197716 377.0 69.75L377.0 79.75C377.0 80.302284 376.55228 80.75 376.0 80.75L366.0 80.75C365.44772 80.75 365.0 80.302284 365.0 79.75Z" fill-rule="nonzero"/><path fill="#1a1a1a" d="M385.92188 78.75L385.92188 70.15625L388.89062 70.15625Q389.89062 70.15625 390.42188 70.28125Q391.15625 70.453125 391.67188 70.890625Q392.35938 71.46875 392.6875 72.375Q393.03125 73.265625 393.03125 74.40625Q393.03125 75.390625 392.79688 76.140625Q392.57812 76.890625 392.21875 77.390625Q391.85938 77.890625 391.42188 78.171875Q391.0 78.453125 390.40625 78.609375Q389.8125 78.75 389.03125 78.75L385.92188 78.75ZM387.0625 77.734375L388.89062 77.734375Q389.75 77.734375 390.23438 77.578125Q390.71875 77.421875 391.0 77.125Q391.40625 76.734375 391.625 76.046875Q391.85938 75.359375 391.85938 74.390625Q391.85938 73.046875 391.40625 72.328125Q390.96875 71.59375 390.34375 71.34375Q389.875 71.171875 388.875 71.171875L387.0625 71.171875L387.0625 77.734375ZM394.79688 71.375L394.79688 70.15625L395.85938 70.15625L395.85938 71.375L394.79688 71.375ZM394.79688 78.75L394.79688 72.53125L395.85938 72.53125L395.85938 78.75L394.79688 78.75ZM397.375 76.890625L398.40625 76.734375Q398.5 77.359375 398.89062 77.6875Q399.29688 78.015625 400.03125 78.015625Q400.75 78.015625 401.09375 77.734375Q401.45312 77.4375 401.45312 77.03125Q401.45312 76.671875 401.14062 76.46875Q400.92188 76.328125 400.0625 76.109375Q398.90625 75.8125 398.45312 75.609375Q398.01562 75.390625 397.78125 75.015625Q397.54688 74.640625 397.54688 74.171875Q397.54688 73.765625 397.73438 73.40625Q397.92188 73.046875 398.25 72.8125Q398.5 72.640625 398.92188 72.515625Q399.34375 72.390625 399.84375 72.390625Q400.5625 72.390625 401.10938 72.609375Q401.67188 72.8125 401.9375 73.171875Q402.20312 73.53125 402.29688 74.125L401.26562 74.265625Q401.20312 73.796875 400.85938 73.53125Q400.53125 73.25 399.90625 73.25Q399.1875 73.25 398.875 73.5Q398.5625 73.734375 398.5625 74.0625Q398.5625 74.265625 398.6875 74.421875Q398.82812 74.59375 399.09375 74.703125Q399.25 74.765625 400.03125 74.96875Q401.15625 75.28125 401.59375 75.46875Q402.03125 75.65625 402.28125 76.015625Q402.53125 76.375 402.53125 76.921875Q402.53125 77.453125 402.21875 77.921875Q401.92188 78.375 401.34375 78.640625Q400.76562 78.890625 400.03125 78.890625Q398.8125 78.890625 398.17188 78.390625Q397.54688 77.875 397.375 76.890625ZM407.85938 76.46875L408.89062 76.609375Q408.71875 77.671875 408.01562 78.28125Q407.3125 78.890625 406.29688 78.890625Q405.01562 78.890625 404.23438 78.0625Q403.46875 77.21875 403.46875 75.65625Q403.46875 74.65625 403.79688 73.90625Q404.14062 73.140625 404.8125 72.765625Q405.5 72.390625 406.3125 72.390625Q407.3125 72.390625 407.95312 72.90625Q408.60938 73.40625 408.79688 74.359375L407.76562 74.515625Q407.625 73.890625 407.25 73.578125Q406.875 73.25 406.34375 73.25Q405.54688 73.25 405.04688 73.828125Q404.54688 74.390625 404.54688 75.625Q404.54688 76.890625 405.03125 77.453125Q405.51562 78.015625 406.28125 78.015625Q406.90625 78.015625 407.3125 77.640625Q407.73438 77.265625 407.85938 76.46875ZM413.875 78.75L413.875 77.828125Q413.14062 78.890625 411.89062 78.890625Q411.34375 78.890625 410.85938 78.6875Q410.39062 78.46875 410.15625 78.15625Q409.92188 77.828125 409.82812 77.359375Q409.76562 77.0625 409.76562 76.375L409.76562 72.53125L410.82812 72.53125L410.82812 75.984375Q410.82812 76.796875 410.89062 77.09375Q410.98438 77.5 411.29688 77.75Q411.625 77.984375 412.10938 77.984375Q412.57812 77.984375 412.98438 77.75Q413.40625 77.5 413.57812 77.078125Q413.76562 76.65625 413.76562 75.859375L413.76562 72.53125L414.8125 72.53125L414.8125 78.75L413.875 78.75ZM416.375 76.890625L417.40625 76.734375Q417.5 77.359375 417.89062 77.6875Q418.29688 78.015625 419.03125 78.015625Q419.75 78.015625 420.09375 77.734375Q420.45312 77.4375 420.45312 77.03125Q420.45312 76.671875 420.14062 76.46875Q419.92188 76.328125 419.0625 76.109375Q417.90625 75.8125 417.45312 75.609375Q417.01562 75.390625 416.78125 75.015625Q416.54688 74.640625 416.54688 74.171875Q416.54688 73.765625 416.73438 73.40625Q416.92188 73.046875 417.25 72.8125Q417.5 72.640625 417.92188 72.515625Q418.34375 72.390625 418.84375 72.390625Q419.5625 72.390625 420.10938 72.609375Q420.67188 72.8125 420.9375 73.171875Q421.20312 73.53125 421.29688 74.125L420.26562 74.265625Q420.20312 73.796875 419.85938 73.53125Q419.53125 73.25 418.90625 73.25Q418.1875 73.25 417.875 73.5Q417.5625 73.734375 417.5625 74.0625Q417.5625 74.265625 417.6875 74.421875Q417.82812 74.59375 418.09375 74.703125Q418.25 74.765625 419.03125 74.96875Q420.15625 75.28125 420.59375 75.46875Q421.03125 75.65625 421.28125 76.015625Q421.53125 76.375 421.53125 76.921875Q421.53125 77.453125 421.21875 77.921875Q420.92188 78.375 420.34375 78.640625Q419.76562 78.890625 419.03125 78.890625Q417.8125 78.890625 417.17188 78.390625Q416.54688 77.875 416.375 76.890625ZM422.375 76.890625L423.40625 76.734375Q423.5 77.359375 423.89062 77.6875Q424.29688 78.015625 425.03125 78.015625Q425.75 78.015625 426.09375 77.734375Q426.45312 77.4375 426.45312 77.03125Q426.45312 76.671875 426.14062 76.46875Q425.92188 76.328125 425.0625 76.109375Q423.90625 75.8125 423.45312 75.609375Q423.01562 75.390625 422.78125 75.015625Q422.54688 74.640625 422.54688 74.171875Q422.54688 73.765625 422.73438 73.40625Q422.92188 73.046875 423.25 72.8125Q423.5 72.640625 423.92188 72.515625Q424.34375 72.390625 424.84375 72.390625Q425.5625 72.390625 426.10938 72.609375Q426.67188 72.8125 426.9375 73.171875Q427.20312 73.53125 427.29688 74.125L426.26562 74.265625Q426.20312 73.796875 425.85938 73.53125Q425.53125 73.25 424.90625 73.25Q424.1875 73.25 423.875 73.5Q423.5625 73.734375 423.5625 74.0625Q423.5625 74.265625 423.6875 74.421875Q423.82812 74.59375 424.09375 74.703125Q424.25 74.765625 425.03125 74.96875Q426.15625 75.28125 426.59375 75.46875Q427.03125 75.65625 427.28125 76.015625Q427.53125 76.375 427.53125 76.921875Q427.53125 77.453125 427.21875 77.921875Q426.92188 78.375 426.34375 78.640625Q425.76562 78.890625 425.03125 78.890625Q423.8125 78.890625 423.17188 78.390625Q422.54688 77.875 422.375 76.890625ZM428.79688 71.375L428.79688 70.15625L429.85938 70.15625L429.85938 71.375L428.79688 71.375ZM428.79688 78.75L428.79688 72.53125L429.85938 72.53125L429.85938 78.75L428.79688 78.75ZM431.40625 75.640625Q431.40625 73.90625 432.35938 73.078125Q433.15625 72.390625 434.3125 72.390625Q435.59375 72.390625 436.40625 73.234375Q437.23438 74.0625 437.23438 75.546875Q437.23438 76.75 436.875 77.4375Q436.51562 78.125 435.8125 78.515625Q435.125 78.890625 434.3125 78.890625Q433.01562 78.890625 432.20312 78.0625Q431.40625 77.21875 431.40625 75.640625ZM432.48438 75.640625Q432.48438 76.828125 433.0 77.421875Q433.53125 78.015625 434.3125 78.015625Q435.10938 78.015625 435.625 77.421875Q436.14062 76.828125 436.14062 75.609375Q436.14062 74.453125 435.60938 73.859375Q435.09375 73.265625 434.3125 73.265625Q433.53125 73.265625 433.0 73.859375Q432.48438 74.4375 432.48438 75.640625ZM438.79688 78.75L438.79688 72.53125L439.73438 72.53125L439.73438 73.40625Q440.42188 72.390625 441.71875 72.390625Q442.28125 72.390625 442.75 72.59375Q443.23438 72.796875 443.46875 73.125Q443.70312 73.453125 443.79688 73.890625Q443.84375 74.1875 443.84375 74.921875L443.84375 78.75L442.79688 78.75L442.79688 74.96875Q442.79688 74.3125 442.67188 74.0Q442.54688 73.6875 442.23438 73.5Q441.92188 73.296875 441.5 73.296875Q440.82812 73.296875 440.32812 73.734375Q439.84375 74.15625 439.84375 75.34375L439.84375 78.75L438.79688 78.75ZM445.375 76.890625L446.40625 76.734375Q446.5 77.359375 446.89062 77.6875Q447.29688 78.015625 448.03125 78.015625Q448.75 78.015625 449.09375 77.734375Q449.45312 77.4375 449.45312 77.03125Q449.45312 76.671875 449.14062 76.46875Q448.92188 76.328125 448.0625 76.109375Q446.90625 75.8125 446.45312 75.609375Q446.01562 75.390625 445.78125 75.015625Q445.54688 74.640625 445.54688 74.171875Q445.54688 73.765625 445.73438 73.40625Q445.92188 73.046875 446.25 72.8125Q446.5 72.640625 446.92188 72.515625Q447.34375 72.390625 447.84375 72.390625Q448.5625 72.390625 449.10938 72.609375Q449.67188 72.8125 449.9375 73.171875Q450.20312 73.53125 450.29688 74.125L449.26562 74.265625Q449.20312 73.796875 448.85938 73.53125Q448.53125 73.25 447.90625 73.25Q447.1875 73.25 446.875 73.5Q446.5625 73.734375 446.5625 74.0625Q446.5625 74.265625 446.6875 74.421875Q446.82812 74.59375 447.09375 74.703125Q447.25 74.765625 448.03125 74.96875Q449.15625 75.28125 449.59375 75.46875Q450.03125 75.65625 450.28125 76.015625Q450.53125 76.375 450.53125 76.921875Q450.53125 77.453125 450.21875 77.921875Q449.92188 78.375 449.34375 78.640625Q448.76562 78.890625 448.03125 78.890625Q446.8125 78.890625 446.17188 78.390625Q445.54688 77.875 445.375 76.890625Z" fill-rule="nonzero"/><path fill="#34a853" d="M467.0 69.75C467.0 69.197716 467.44772 68.75 468.0 68.75L478.0 68.75C478.55228 68.75 479.0 69.197716 479.0 69.75L479.0 79.75C479.0 80.302284 478.55228 80.75 478.0 80.75L468.0 80.75C467.44772 80.75 467.0 80.302284 467.0 79.75Z" fill-rule="nonzero"/><path fill="#1a1a1a" d="M486.98438 78.75L490.28125 70.15625L491.5 70.15625L495.01562 78.75L493.73438 78.75L492.71875 76.140625L489.14062 76.140625L488.1875 78.75L486.98438 78.75ZM489.46875 75.21875L492.375 75.21875L491.48438 72.84375Q491.0625 71.765625 490.875 71.0625Q490.70312 71.890625 490.40625 72.703125L489.46875 75.21875ZM495.375 76.890625L496.40625 76.734375Q496.5 77.359375 496.89062 77.6875Q497.29688 78.015625 498.03125 78.015625Q498.75 78.015625 499.09375 77.734375Q499.45312 77.4375 499.45312 77.03125Q499.45312 76.671875 499.14062 76.46875Q498.92188 76.328125 498.0625 76.109375Q496.90625 75.8125 496.45312 75.609375Q496.01562 75.390625 495.78125 75.015625Q495.54688 74.640625 495.54688 74.171875Q495.54688 73.765625 495.73438 73.40625Q495.92188 73.046875 496.25 72.8125Q496.5 72.640625 496.92188 72.515625Q497.34375 72.390625 497.84375 72.390625Q498.5625 72.390625 499.10938 72.609375Q499.67188 72.8125 499.9375 73.171875Q500.20312 73.53125 500.29688 74.125L499.26562 74.265625Q499.20312 73.796875 498.85938 73.53125Q498.53125 73.25 497.90625 73.25Q497.1875 73.25 496.875 73.5Q496.5625 73.734375 496.5625 74.0625Q496.5625 74.265625 496.6875 74.421875Q496.82812 74.59375 497.09375 74.703125Q497.25 74.765625 498.03125 74.96875Q499.15625 75.28125 499.59375 75.46875Q500.03125 75.65625 500.28125 76.015625Q500.53125 76.375 500.53125 76.921875Q500.53125 77.453125 500.21875 77.921875Q499.92188 78.375 499.34375 78.640625Q498.76562 78.890625 498.03125 78.890625Q496.8125 78.890625 496.17188 78.390625Q495.54688 77.875 495.375 76.890625ZM501.375 76.890625L502.40625 76.734375Q502.5 77.359375 502.89062 77.6875Q503.29688 78.015625 504.03125 78.015625Q504.75 78.015625 505.09375 77.734375Q505.45312 77.4375 505.45312 77.03125Q505.45312 76.671875 505.14062 76.46875Q504.92188 76.328125 504.0625 76.109375Q502.90625 75.8125 502.45312 75.609375Q502.01562 75.390625 501.78125 75.015625Q501.54688 74.640625 501.54688 74.171875Q501.54688 73.765625 501.73438 73.40625Q501.92188 73.046875 502.25 72.8125Q502.5 72.640625 502.92188 72.515625Q503.34375 72.390625 503.84375 72.390625Q504.5625 72.390625 505.10938 72.609375Q505.67188 72.8125 505.9375 73.171875Q506.20312 73.53125 506.29688 74.125L505.26562 74.265625Q505.20312 73.796875 504.85938 73.53125Q504.53125 73.25 503.90625 73.25Q503.1875 73.25 502.875 73.5Q502.5625 73.734375 502.5625 74.0625Q502.5625 74.265625 502.6875 74.421875Q502.82812 74.59375 503.09375 74.703125Q503.25 74.765625 504.03125 74.96875Q505.15625 75.28125 505.59375 75.46875Q506.03125 75.65625 506.28125 76.015625Q506.53125 76.375 506.53125 76.921875Q506.53125 77.453125 506.21875 77.921875Q505.92188 78.375 505.34375 78.640625Q504.76562 78.890625 504.03125 78.890625Q502.8125 78.890625 502.17188 78.390625Q501.54688 77.875 501.375 76.890625ZM507.79688 71.375L507.79688 70.15625L508.85938 70.15625L508.85938 71.375L507.79688 71.375ZM507.79688 78.75L507.79688 72.53125L508.85938 72.53125L508.85938 78.75L507.79688 78.75ZM510.59375 79.265625L511.625 79.421875Q511.6875 79.890625 511.98438 80.109375Q512.375 80.40625 513.0469 80.40625Q513.78125 80.40625 514.1719 80.109375Q514.5781 79.8125 514.71875 79.296875Q514.8125 78.96875 514.7969 77.9375Q514.1094 78.75 513.0781 78.75Q511.79688 78.75 511.09375 77.828125Q510.39062 76.890625 510.39062 75.609375Q510.39062 74.71875 510.70312 73.96875Q511.03125 73.203125 511.64062 72.796875Q512.25 72.390625 513.0781 72.390625Q514.1875 72.390625 514.90625 73.28125L514.90625 72.53125L515.875 72.53125L515.875 77.90625Q515.875 79.359375 515.5781 79.96875Q515.28125 80.578125 514.6406 80.921875Q514.0 81.28125 513.0625 81.28125Q511.95312 81.28125 511.26562 80.78125Q510.57812 80.28125 510.59375 79.265625ZM511.46875 75.53125Q511.46875 76.75 511.95312 77.3125Q512.4375 77.875 513.1719 77.875Q513.90625 77.875 514.3906 77.3125Q514.8906 76.75 514.8906 75.5625Q514.8906 74.421875 514.375 73.84375Q513.875 73.265625 513.15625 73.265625Q512.4531 73.265625 511.95312 73.84375Q511.46875 74.40625 511.46875 75.53125ZM517.7969 78.75L517.7969 72.53125L518.7344 72.53125L518.7344 73.40625Q519.4219 72.390625 520.71875 72.390625Q521.28125 72.390625 521.75 72.59375Q522.2344 72.796875 522.46875 73.125Q522.7031 73.453125 522.7969 73.890625Q522.84375 74.1875 522.84375 74.921875L522.84375 78.75L521.7969 78.75L521.7969 74.96875Q521.7969 74.3125 521.6719 74.0Q521.5469 73.6875 521.2344 73.5Q520.9219 73.296875 520.5 73.296875Q519.8281 73.296875 519.3281 73.734375Q518.84375 74.15625 518.84375 75.34375L518.84375 78.75L517.7969 78.75ZM524.7969 78.75L524.7969 72.53125L525.7344 72.53125L525.7344 73.40625Q526.03125 72.9375 526.5156 72.671875Q527.0 72.390625 527.625 72.390625Q528.3125 72.390625 528.75 72.671875Q529.2031 72.953125 529.375 73.46875Q530.125 72.390625 531.2969 72.390625Q532.2344 72.390625 532.71875 72.90625Q533.21875 73.40625 533.21875 74.484375L533.21875 78.75L532.1719 78.75L532.1719 74.828125Q532.1719 74.203125 532.0625 73.921875Q531.96875 73.640625 531.7031 73.46875Q531.4375 73.296875 531.0625 73.296875Q530.40625 73.296875 529.96875 73.734375Q529.5469 74.171875 529.5469 75.140625L529.5469 78.75L528.4844 78.75L528.4844 74.703125Q528.4844 74.0 528.21875 73.65625Q527.96875 73.296875 527.3906 73.296875Q526.9375 73.296875 526.5625 73.53125Q526.1875 73.765625 526.0156 74.21875Q525.84375 74.671875 525.84375 75.515625L525.84375 78.75L524.7969 78.75ZM539.0469 76.75L540.1406 76.875Q539.8906 77.828125 539.1875 78.359375Q538.4844 78.890625 537.40625 78.890625Q536.0469 78.890625 535.2344 78.046875Q534.4375 77.203125 534.4375 75.6875Q534.4375 74.125 535.25 73.265625Q536.0625 72.390625 537.34375 72.390625Q538.59375 72.390625 539.375 73.234375Q540.1719 74.078125 540.1719 75.625Q540.1719 75.71875 540.1719 75.90625L535.53125 75.90625Q535.59375 76.9375 536.1094 77.484375Q536.625 78.015625 537.40625 78.015625Q537.9844 78.015625 538.3906 77.71875Q538.8125 77.40625 539.0469 76.75ZM535.59375 75.046875L539.0625 75.046875Q539.0 74.25 538.6719 73.859375Q538.15625 73.25 537.3594 73.25Q536.625 73.25 536.125 73.734375Q535.6406 74.21875 535.59375 75.046875ZM541.7969 78.75L541.7969 72.53125L542.7344 72.53125L542.7344 73.40625Q543.4219 72.390625 544.71875 72.390625Q545.28125 72.390625 545.75 72.59375Q546.2344 72.796875 546.46875 73.125Q546.7031 73.453125 546.7969 73.890625Q546.84375 74.1875 546.84375 74.921875L546.84375 78.75L545.7969 78.75L545.7969 74.96875Q545.7969 74.3125 545.6719 74.0Q545.5469 73.6875 545.2344 73.5Q544.9219 73.296875 544.5 73.296875Q543.8281 73.296875 543.3281 73.734375Q542.84375 74.15625 542.84375 75.34375L542.84375 78.75L541.7969 78.75ZM551.09375 77.8125L551.25 78.734375Q550.7969 78.828125 550.4531 78.828125Q549.875 78.828125 549.5625 78.65625Q549.25 78.46875 549.1094 78.171875Q548.9844 77.875 548.9844 76.921875L548.9844 73.34375L548.21875 73.34375L548.21875 72.53125L548.9844 72.53125L548.9844 70.984375L550.03125 70.359375L550.03125 72.53125L551.09375 72.53125L551.09375 73.34375L550.03125 73.34375L550.03125 76.984375Q550.03125 77.4375 550.0781 77.5625Q550.1406 77.6875 550.2656 77.765625Q550.3906 77.84375 550.625 77.84375Q550.8125 77.84375 551.09375 77.8125ZM551.375 76.890625L552.40625 76.734375Q552.5 77.359375 552.8906 77.6875Q553.2969 78.015625 554.03125 78.015625Q554.75 78.015625 555.09375 77.734375Q555.4531 77.4375 555.4531 77.03125Q555.4531 76.671875 555.1406 76.46875Q554.9219 76.328125 554.0625 76.109375Q552.90625 75.8125 552.4531 75.609375Q552.0156 75.390625 551.78125 75.015625Q551.5469 74.640625 551.5469 74.171875Q551.5469 73.765625 551.7344 73.40625Q551.9219 73.046875 552.25 72.8125Q552.5 72.640625 552.9219 72.515625Q553.34375 72.390625 553.84375 72.390625Q554.5625 72.390625 555.1094 72.609375Q555.6719 72.8125 555.9375 73.171875Q556.2031 73.53125 556.2969 74.125L555.2656 74.265625Q555.2031 73.796875 554.8594 73.53125Q554.53125 73.25 553.90625 73.25Q553.1875 73.25 552.875 73.5Q552.5625 73.734375 552.5625 74.0625Q552.5625 74.265625 552.6875 74.421875Q552.8281 74.59375 553.09375 74.703125Q553.25 74.765625 554.03125 74.96875Q555.15625 75.28125 555.59375 75.46875Q556.03125 75.65625 556.28125 76.015625Q556.53125 76.375 556.53125 76.921875Q556.53125 77.453125 556.21875 77.921875Q555.9219 78.375 555.34375 78.640625Q554.7656 78.890625 554.03125 78.890625Q552.8125 78.890625 552.1719 78.390625Q551.5469 77.875 551.375 76.890625Z" fill-rule="nonzero"/><path fill="#ff6d01" d="M573.0 69.75C573.0 69.197716 573.4477 68.75 574.0 68.75L584.0 68.75C584.5523 68.75 585.0 69.197716 585.0 69.75L585.0 79.75C585.0 80.302284 584.5523 80.75 584.0 80.75L574.0 80.75C573.4477 80.75 573.0 80.302284 573.0 79.75Z" fill-rule="nonzero"/><path fill="#1a1a1a" d="M593.9219 78.75L593.9219 70.15625L595.0781 70.15625L599.59375 76.90625L599.59375 70.15625L600.6875 70.15625L600.6875 78.75L599.5156 78.75L595.0 72.0L595.0 78.75L593.9219 78.75ZM606.8594 77.984375Q606.2656 78.484375 605.71875 78.6875Q605.1875 78.890625 604.5625 78.890625Q603.53125 78.890625 602.9844 78.390625Q602.4375 77.890625 602.4375 77.109375Q602.4375 76.65625 602.6406 76.28125Q602.84375 75.890625 603.1875 75.671875Q603.53125 75.4375 603.9531 75.328125Q604.25 75.234375 604.8906 75.15625Q606.15625 75.015625 606.7656 74.796875Q606.7656 74.578125 606.7656 74.53125Q606.7656 73.875 606.46875 73.609375Q606.0625 73.265625 605.2656 73.265625Q604.53125 73.265625 604.1719 73.53125Q603.8125 73.78125 603.6406 74.4375L602.6094 74.296875Q602.75 73.640625 603.0781 73.234375Q603.40625 72.828125 604.0156 72.609375Q604.625 72.390625 605.4219 72.390625Q606.21875 72.390625 606.71875 72.578125Q607.21875 72.765625 607.4531 73.046875Q607.6875 73.328125 607.78125 73.765625Q607.8281 74.03125 607.8281 74.734375L607.8281 76.140625Q607.8281 77.609375 607.8906 78.0Q607.96875 78.390625 608.1719 78.75L607.0625 78.75Q606.90625 78.421875 606.8594 77.984375ZM606.7656 75.625Q606.1875 75.859375 605.0469 76.03125Q604.3906 76.125 604.125 76.25Q603.8594 76.359375 603.7031 76.578125Q603.5625 76.796875 603.5625 77.078125Q603.5625 77.5 603.875 77.78125Q604.2031 78.0625 604.8125 78.0625Q605.4219 78.0625 605.8906 77.796875Q606.375 77.53125 606.59375 77.0625Q606.7656 76.703125 606.7656 76.015625L606.7656 75.625ZM611.5156 78.75L609.15625 72.53125L610.2656 72.53125L611.6094 76.25Q611.8125 76.859375 612.0 77.5Q612.1406 77.015625 612.3906 76.328125L613.78125 72.53125L614.8594 72.53125L612.5 78.75L611.5156 78.75ZM615.7969 71.375L615.7969 70.15625L616.8594 70.15625L616.8594 71.375L615.7969 71.375ZM615.7969 78.75L615.7969 72.53125L616.8594 72.53125L616.8594 78.75L615.7969 78.75ZM618.59375 79.265625L619.625 79.421875Q619.6875 79.890625 619.9844 80.109375Q620.375 80.40625 621.0469 80.40625Q621.78125 80.40625 622.1719 80.109375Q622.5781 79.8125 622.71875 79.296875Q622.8125 78.96875 622.7969 77.9375Q622.1094 78.75 621.0781 78.75Q619.7969 78.75 619.09375 77.828125Q618.3906 76.890625 618.3906 75.609375Q618.3906 74.71875 618.7031 73.96875Q619.03125 73.203125 619.6406 72.796875Q620.25 72.390625 621.0781 72.390625Q622.1875 72.390625 622.90625 73.28125L622.90625 72.53125L623.875 72.53125L623.875 77.90625Q623.875 79.359375 623.5781 79.96875Q623.28125 80.578125 622.6406 80.921875Q622.0 81.28125 621.0625 81.28125Q619.9531 81.28125 619.2656 80.78125Q618.5781 80.28125 618.59375 79.265625ZM619.46875 75.53125Q619.46875 76.75 619.9531 77.3125Q620.4375 77.875 621.1719 77.875Q621.90625 77.875 622.3906 77.3125Q622.8906 76.75 622.8906 75.5625Q622.8906 74.421875 622.375 73.84375Q621.875 73.265625 621.15625 73.265625Q620.4531 73.265625 619.9531 73.84375Q619.46875 74.40625 619.46875 75.53125ZM629.8594 77.984375Q629.2656 78.484375 628.71875 78.6875Q628.1875 78.890625 627.5625 78.890625Q626.53125 78.890625 625.9844 78.390625Q625.4375 77.890625 625.4375 77.109375Q625.4375 76.65625 625.6406 76.28125Q625.84375 75.890625 626.1875 75.671875Q626.53125 75.4375 626.9531 75.328125Q627.25 75.234375 627.8906 75.15625Q629.15625 75.015625 629.7656 74.796875Q629.7656 74.578125 629.7656 74.53125Q629.7656 73.875 629.46875 73.609375Q629.0625 73.265625 628.2656 73.265625Q627.53125 73.265625 627.1719 73.53125Q626.8125 73.78125 626.6406 74.4375L625.6094 74.296875Q625.75 73.640625 626.0781 73.234375Q626.40625 72.828125 627.0156 72.609375Q627.625 72.390625 628.4219 72.390625Q629.21875 72.390625 629.71875 72.578125Q630.21875 72.765625 630.4531 73.046875Q630.6875 73.328125 630.78125 73.765625Q630.8281 74.03125 630.8281 74.734375L630.8281 76.140625Q630.8281 77.609375 630.8906 78.0Q630.96875 78.390625 631.1719 78.75L630.0625 78.75Q629.90625 78.421875 629.8594 77.984375ZM629.7656 75.625Q629.1875 75.859375 628.0469 76.03125Q627.3906 76.125 627.125 76.25Q626.8594 76.359375 626.7031 76.578125Q626.5625 76.796875 626.5625 77.078125Q626.5625 77.5 626.875 77.78125Q627.2031 78.0625 627.8125 78.0625Q628.4219 78.0625 628.8906 77.796875Q629.375 77.53125 629.59375 77.0625Q629.7656 76.703125 629.7656 76.015625L629.7656 75.625ZM635.09375 77.8125L635.25 78.734375Q634.7969 78.828125 634.4531 78.828125Q633.875 78.828125 633.5625 78.65625Q633.25 78.46875 633.1094 78.171875Q632.9844 77.875 632.9844 76.921875L632.9844 73.34375L632.21875 73.34375L632.21875 72.53125L632.9844 72.53125L632.9844 70.984375L634.03125 70.359375L634.03125 72.53125L635.09375 72.53125L635.09375 73.34375L634.03125 73.34375L634.03125 76.984375Q634.03125 77.4375 634.0781 77.5625Q634.1406 77.6875 634.2656 77.765625Q634.3906 77.84375 634.625 77.84375Q634.8125 77.84375 635.09375 77.8125ZM635.7969 71.375L635.7969 70.15625L636.8594 70.15625L636.8594 71.375L635.7969 71.375ZM635.7969 78.75L635.7969 72.53125L636.8594 72.53125L636.8594 78.75L635.7969 78.75ZM638.40625 75.640625Q638.40625 73.90625 639.3594 73.078125Q640.15625 72.390625 641.3125 72.390625Q642.59375 72.390625 643.40625 73.234375Q644.2344 74.0625 644.2344 75.546875Q644.2344 76.75 643.875 77.4375Q643.5156 78.125 642.8125 78.515625Q642.125 78.890625 641.3125 78.890625Q640.0156 78.890625 639.2031 78.0625Q638.40625 77.21875 638.40625 75.640625ZM639.4844 75.640625Q639.4844 76.828125 640.0 77.421875Q640.53125 78.015625 641.3125 78.015625Q642.1094 78.015625 642.625 77.421875Q643.1406 76.828125 643.1406 75.609375Q643.1406 74.453125 642.6094 73.859375Q642.09375 73.265625 641.3125 73.265625Q640.53125 73.265625 640.0 73.859375Q639.4844 74.4375 639.4844 75.640625ZM645.7969 78.75L645.7969 72.53125L646.7344 72.53125L646.7344 73.40625Q647.4219 72.390625 648.71875 72.390625Q649.28125 72.390625 649.75 72.59375Q650.2344 72.796875 650.46875 73.125Q650.7031 73.453125 650.7969 73.890625Q650.84375 74.1875 650.84375 74.921875L650.84375 78.75L649.7969 78.75L649.7969 74.96875Q649.7969 74.3125 649.6719 74.0Q649.5469 73.6875 649.2344 73.5Q648.9219 73.296875 648.5 73.296875Q647.8281 73.296875 647.3281 73.734375Q646.84375 74.15625 646.84375 75.34375L646.84375 78.75L645.7969 78.75Z" fill-rule="nonzero"/><path fill="#757575" d="M309.76562 40.234375L311.65625 40.703125Q311.0625 43.046875 309.51562 44.28125Q307.96875 45.5 305.71875 45.5Q303.40625 45.5 301.95312 44.5625Q300.51562 43.609375 299.75 41.828125Q299.0 40.03125 299.0 37.984375Q299.0 35.75 299.84375 34.09375Q300.70312 32.421875 302.28125 31.5625Q303.85938 30.6875 305.75 30.6875Q307.90625 30.6875 309.35938 31.78125Q310.82812 32.875 311.40625 34.859375L309.54688 35.296875Q309.04688 33.734375 308.09375 33.03125Q307.15625 32.3125 305.71875 32.3125Q304.0625 32.3125 302.95312 33.109375Q301.84375 33.890625 301.39062 35.234375Q300.95312 36.5625 300.95312 37.96875Q300.95312 39.796875 301.48438 41.171875Q302.01562 42.53125 303.14062 43.203125Q304.26562 43.875 305.5625 43.875Q307.15625 43.875 308.26562 42.953125Q309.375 42.03125 309.76562 40.234375ZM312.67188 40.0625Q312.67188 37.1875 314.26562 35.796875Q315.60938 34.640625 317.53125 34.640625Q319.67188 34.640625 321.01562 36.046875Q322.375 37.453125 322.375 39.921875Q322.375 41.921875 321.78125 43.078125Q321.1875 44.21875 320.03125 44.859375Q318.89062 45.484375 317.53125 45.484375Q315.34375 45.484375 314.0 44.09375Q312.67188 42.6875 312.67188 40.0625ZM314.46875 40.0625Q314.46875 42.0625 315.32812 43.046875Q316.20312 44.03125 317.53125 44.03125Q318.84375 44.03125 319.70312 43.046875Q320.57812 42.046875 320.57812 40.0Q320.57812 38.078125 319.70312 37.09375Q318.82812 36.09375 317.53125 36.09375Q316.20312 36.09375 315.32812 37.09375Q314.46875 38.078125 314.46875 40.0625ZM324.3125 45.25L324.3125 34.875L325.89062 34.875L325.89062 36.328125Q326.375 35.578125 327.1875 35.109375Q328.0 34.640625 329.03125 34.640625Q330.1875 34.640625 330.92188 35.125Q331.65625 35.59375 331.96875 36.453125Q333.20312 34.640625 335.17188 34.640625Q336.71875 34.640625 337.54688 35.5Q338.375 36.359375 338.375 38.125L338.375 45.25L336.625 45.25L336.625 38.71875Q336.625 37.65625 336.45312 37.203125Q336.28125 36.734375 335.82812 36.453125Q335.39062 36.171875 334.78125 36.171875Q333.6875 36.171875 332.95312 36.90625Q332.23438 37.625 332.23438 39.21875L332.23438 45.25L330.48438 45.25L330.48438 38.515625Q330.48438 37.34375 330.04688 36.765625Q329.625 36.171875 328.64062 36.171875Q327.90625 36.171875 327.26562 36.5625Q326.64062 36.953125 326.35938 37.703125Q326.07812 38.453125 326.07812 39.875L326.07812 45.25L324.3125 45.25ZM341.3125 49.21875L341.3125 34.875L342.92188 34.875L342.92188 36.21875Q343.48438 35.4375 344.1875 35.046875Q344.90625 34.640625 345.92188 34.640625Q347.25 34.640625 348.26562 35.328125Q349.28125 36.015625 349.79688 37.265625Q350.32812 38.5 350.32812 39.984375Q350.32812 41.578125 349.75 42.859375Q349.1875 44.125 348.09375 44.8125Q347.0 45.484375 345.79688 45.484375Q344.92188 45.484375 344.21875 45.109375Q343.53125 44.734375 343.07812 44.171875L343.07812 49.21875L341.3125 49.21875ZM342.90625 40.125Q342.90625 42.125 343.71875 43.078125Q344.53125 44.03125 345.6875 44.03125Q346.85938 44.03125 347.6875 43.046875Q348.53125 42.0625 348.53125 39.96875Q348.53125 38.0 347.70312 37.015625Q346.89062 36.015625 345.76562 36.015625Q344.64062 36.015625 343.76562 37.078125Q342.90625 38.125 342.90625 40.125ZM359.42188 41.90625L361.23438 42.140625Q360.8125 43.71875 359.64062 44.609375Q358.48438 45.484375 356.67188 45.484375Q354.40625 45.484375 353.0625 44.09375Q351.73438 42.6875 351.73438 40.15625Q351.73438 37.53125 353.07812 36.09375Q354.42188 34.640625 356.57812 34.640625Q358.65625 34.640625 359.96875 36.0625Q361.29688 37.46875 361.29688 40.046875Q361.29688 40.203125 361.28125 40.515625L353.54688 40.515625Q353.64062 42.21875 354.51562 43.125Q355.39062 44.03125 356.6875 44.03125Q357.65625 44.03125 358.32812 43.53125Q359.01562 43.015625 359.42188 41.90625ZM353.64062 39.0625L359.4375 39.0625Q359.32812 37.765625 358.78125 37.109375Q357.9375 36.09375 356.59375 36.09375Q355.39062 36.09375 354.5625 36.90625Q353.73438 37.703125 353.64062 39.0625ZM367.15625 43.671875L367.40625 45.234375Q366.67188 45.390625 366.07812 45.390625Q365.125 45.390625 364.59375 45.09375Q364.07812 44.78125 363.85938 44.296875Q363.64062 43.796875 363.64062 42.21875L363.64062 36.25L362.35938 36.25L362.35938 34.875L363.64062 34.875L363.64062 32.3125L365.39062 31.25L365.39062 34.875L367.15625 34.875L367.15625 36.25L365.39062 36.25L365.39062 42.3125Q365.39062 43.0625 365.48438 43.28125Q365.57812 43.484375 365.78125 43.625Q366.0 43.75 366.39062 43.75Q366.67188 43.75 367.15625 43.671875ZM369.32812 32.953125L369.32812 30.9375L371.09375 30.9375L371.09375 32.953125L369.32812 32.953125ZM369.32812 45.25L369.32812 34.875L371.09375 34.875L371.09375 45.25L369.32812 45.25ZM377.15625 43.671875L377.40625 45.234375Q376.67188 45.390625 376.07812 45.390625Q375.125 45.390625 374.59375 45.09375Q374.07812 44.78125 373.85938 44.296875Q373.64062 43.796875 373.64062 42.21875L373.64062 36.25L372.35938 36.25L372.35938 34.875L373.64062 34.875L373.64062 32.3125L375.39062 31.25L375.39062 34.875L377.15625 34.875L377.15625 36.25L375.39062 36.25L375.39062 42.3125Q375.39062 43.0625 375.48438 43.28125Q375.57812 43.484375 375.78125 43.625Q376.0 43.75 376.39062 43.75Q376.67188 43.75 377.15625 43.671875ZM379.32812 32.953125L379.32812 30.9375L381.09375 30.9375L381.09375 32.953125L379.32812 32.953125ZM379.32812 45.25L379.32812 34.875L381.09375 34.875L381.09375 45.25L379.32812 45.25ZM386.20312 45.25L382.25 34.875L384.10938 34.875L386.34375 41.09375Q386.70312 42.09375 387.0 43.171875Q387.23438 42.359375 387.65625 41.203125L389.95312 34.875L391.76562 34.875L387.84375 45.25L386.20312 45.25ZM400.42188 41.90625L402.23438 42.140625Q401.8125 43.71875 400.64062 44.609375Q399.48438 45.484375 397.67188 45.484375Q395.40625 45.484375 394.0625 44.09375Q392.73438 42.6875 392.73438 40.15625Q392.73438 37.53125 394.07812 36.09375Q395.42188 34.640625 397.57812 34.640625Q399.65625 34.640625 400.96875 36.0625Q402.29688 37.46875 402.29688 40.046875Q402.29688 40.203125 402.28125 40.515625L394.54688 40.515625Q394.64062 42.21875 395.51562 43.125Q396.39062 44.03125 397.6875 44.03125Q398.65625 44.03125 399.32812 43.53125Q400.01562 43.015625 400.42188 41.90625ZM394.64062 39.0625L400.4375 39.0625Q400.32812 37.765625 399.78125 37.109375Q398.9375 36.09375 397.59375 36.09375Q396.39062 36.09375 395.5625 36.90625Q394.73438 37.703125 394.64062 39.0625ZM408.96875 45.25L414.46875 30.9375L416.51562 30.9375L422.375 45.25L420.21875 45.25L418.54688 40.90625L412.5625 40.90625L410.98438 45.25L408.96875 45.25ZM413.10938 39.375L417.95312 39.375L416.46875 35.40625Q415.78125 33.59375 415.45312 32.4375Q415.17188 33.8125 414.67188 35.171875L413.10938 39.375ZM423.3125 45.25L423.3125 34.875L424.90625 34.875L424.90625 36.359375Q426.04688 34.640625 428.20312 34.640625Q429.14062 34.640625 429.92188 34.984375Q430.71875 35.3125 431.10938 35.859375Q431.5 36.40625 431.65625 37.15625Q431.75 37.65625 431.75 38.875L431.75 45.25L429.98438 45.25L429.98438 38.9375Q429.98438 37.859375 429.78125 37.328125Q429.57812 36.796875 429.04688 36.484375Q428.53125 36.171875 427.82812 36.171875Q426.70312 36.171875 425.89062 36.890625Q425.07812 37.59375 425.07812 39.578125L425.07812 45.25L423.3125 45.25ZM441.09375 43.96875Q440.10938 44.796875 439.20312 45.140625Q438.29688 45.484375 437.26562 45.484375Q435.5625 45.484375 434.64062 44.65625Q433.71875 43.8125 433.71875 42.515625Q433.71875 41.75 434.0625 41.125Q434.42188 40.5 434.98438 40.125Q435.54688 39.734375 436.25 39.53125Q436.76562 39.40625 437.8125 39.265625Q439.9375 39.015625 440.9375 38.671875Q440.95312 38.3125 440.95312 38.203125Q440.95312 37.140625 440.45312 36.6875Q439.78125 36.09375 438.45312 36.09375Q437.20312 36.09375 436.60938 36.53125Q436.03125 36.96875 435.75 38.078125L434.03125 37.84375Q434.26562 36.734375 434.79688 36.0625Q435.32812 35.375 436.34375 35.015625Q437.35938 34.640625 438.70312 34.640625Q440.03125 34.640625 440.85938 34.953125Q441.6875 35.265625 442.07812 35.75Q442.46875 36.21875 442.625 36.9375Q442.71875 37.390625 442.71875 38.5625L442.71875 40.90625Q442.71875 43.359375 442.82812 44.015625Q442.9375 44.65625 443.28125 45.25L441.4375 45.25Q441.17188 44.703125 441.09375 43.96875ZM440.9375 40.046875Q439.98438 40.4375 438.0625 40.703125Q436.98438 40.859375 436.53125 41.0625Q436.09375 41.25 435.84375 41.625Q435.59375 42.0 435.59375 42.46875Q435.59375 43.171875 436.125 43.640625Q436.65625 44.109375 437.6875 44.109375Q438.70312 44.109375 439.48438 43.671875Q440.28125 43.21875 440.65625 42.453125Q440.9375 41.84375 440.9375 40.6875L440.9375 40.046875ZM445.28125 45.25L445.28125 30.9375L447.03125 30.9375L447.03125 45.25L445.28125 45.25ZM449.23438 49.25L449.04688 47.59375Q449.625 47.75 450.04688 47.75Q450.64062 47.75 450.98438 47.546875Q451.34375 47.359375 451.5625 47.015625Q451.73438 46.75 452.10938 45.703125Q452.15625 45.546875 452.26562 45.265625L448.32812 34.875L450.21875 34.875L452.375 40.890625Q452.79688 42.03125 453.125 43.28125Q453.4375 42.078125 453.84375 40.921875L456.0625 34.875L457.82812 34.875L453.875 45.421875Q453.25 47.140625 452.89062 47.78125Q452.42188 48.65625 451.8125 49.046875Q451.21875 49.453125 450.375 49.453125Q449.85938 49.453125 449.23438 49.25ZM458.60938 42.15625L460.35938 41.875Q460.5 42.921875 461.17188 43.484375Q461.84375 44.03125 463.04688 44.03125Q464.25 44.03125 464.82812 43.546875Q465.42188 43.046875 465.42188 42.390625Q465.42188 41.796875 464.90625 41.453125Q464.54688 41.21875 463.10938 40.859375Q461.17188 40.359375 460.42188 40.015625Q459.6875 39.65625 459.29688 39.03125Q458.90625 38.390625 458.90625 37.625Q458.90625 36.9375 459.21875 36.34375Q459.54688 35.75 460.09375 35.359375Q460.5 35.0625 461.20312 34.859375Q461.92188 34.640625 462.73438 34.640625Q463.95312 34.640625 464.875 35.0Q465.79688 35.34375 466.23438 35.953125Q466.67188 36.546875 466.84375 37.546875L465.125 37.78125Q465.0 36.984375 464.4375 36.546875Q463.875 36.09375 462.85938 36.09375Q461.64062 36.09375 461.125 36.5Q460.60938 36.890625 460.60938 37.421875Q460.60938 37.765625 460.82812 38.046875Q461.03125 38.328125 461.5 38.515625Q461.76562 38.609375 463.04688 38.953125Q464.92188 39.453125 465.65625 39.78125Q466.39062 40.09375 466.8125 40.703125Q467.23438 41.296875 467.23438 42.203125Q467.23438 43.078125 466.71875 43.859375Q466.20312 44.640625 465.23438 45.0625Q464.26562 45.484375 463.04688 45.484375Q461.03125 45.484375 459.96875 44.640625Q458.90625 43.796875 458.60938 42.15625ZM469.32812 32.953125L469.32812 30.9375L471.09375 30.9375L471.09375 32.953125L469.32812 32.953125ZM469.32812 45.25L469.32812 34.875L471.09375 34.875L471.09375 45.25L469.32812 45.25ZM472.60938 42.15625L474.35938 41.875Q474.5 42.921875 475.17188 43.484375Q475.84375 44.03125 477.04688 44.03125Q478.25 44.03125 478.82812 43.546875Q479.42188 43.046875 479.42188 42.390625Q479.42188 41.796875 478.90625 41.453125Q478.54688 41.21875 477.10938 40.859375Q475.17188 40.359375 474.42188 40.015625Q473.6875 39.65625 473.29688 39.03125Q472.90625 38.390625 472.90625 37.625Q472.90625 36.9375 473.21875 36.34375Q473.54688 35.75 474.09375 35.359375Q474.5 35.0625 475.20312 34.859375Q475.92188 34.640625 476.73438 34.640625Q477.95312 34.640625 478.875 35.0Q479.79688 35.34375 480.23438 35.953125Q480.67188 36.546875 480.84375 37.546875L479.125 37.78125Q479.0 36.984375 478.4375 36.546875Q477.875 36.09375 476.85938 36.09375Q475.64062 36.09375 475.125 36.5Q474.60938 36.890625 474.60938 37.421875Q474.60938 37.765625 474.82812 38.046875Q475.03125 38.328125 475.5 38.515625Q475.76562 38.609375 477.04688 38.953125Q478.92188 39.453125 479.65625 39.78125Q480.39062 40.09375 480.8125 40.703125Q481.23438 41.296875 481.23438 42.203125Q481.23438 43.078125 480.71875 43.859375Q480.20312 44.640625 479.23438 45.0625Q478.26562 45.484375 477.04688 45.484375Q475.03125 45.484375 473.96875 44.640625Q472.90625 43.796875 472.60938 42.15625ZM488.67188 40.0625Q488.67188 37.1875 490.26562 35.796875Q491.60938 34.640625 493.53125 34.640625Q495.67188 34.640625 497.01562 36.046875Q498.375 37.453125 498.375 39.921875Q498.375 41.921875 497.78125 43.078125Q497.1875 44.21875 496.03125 44.859375Q494.89062 45.484375 493.53125 45.484375Q491.34375 45.484375 490.0 44.09375Q488.67188 42.6875 488.67188 40.0625ZM490.46875 40.0625Q490.46875 42.0625 491.32812 43.046875Q492.20312 44.03125 493.53125 44.03125Q494.84375 44.03125 495.70312 43.046875Q496.57812 42.046875 496.57812 40.0Q496.57812 38.078125 495.70312 37.09375Q494.82812 36.09375 493.53125 36.09375Q492.20312 36.09375 491.32812 37.09375Q490.46875 38.078125 490.46875 40.0625ZM500.73438 45.25L500.73438 36.25L499.1875 36.25L499.1875 34.875L500.73438 34.875L500.73438 33.78125Q500.73438 32.734375 500.92188 32.21875Q501.17188 31.53125 501.8125 31.109375Q502.45312 30.6875 503.60938 30.6875Q504.35938 30.6875 505.25 30.859375L504.98438 32.390625Q504.4375 32.296875 503.95312 32.296875Q503.15625 32.296875 502.8125 32.640625Q502.48438 32.984375 502.48438 33.921875L502.48438 34.875L504.51562 34.875L504.51562 36.25L502.48438 36.25L502.48438 45.25L500.73438 45.25ZM512.46875 45.25L512.46875 30.9375L514.3594 30.9375L514.3594 43.5625L521.40625 43.5625L521.40625 45.25L512.46875 45.25ZM523.4844 45.25L523.4844 30.9375L526.34375 30.9375L529.71875 41.0625Q530.1875 42.484375 530.40625 43.1875Q530.65625 42.40625 531.1719 40.890625L534.59375 30.9375L537.1406 30.9375L537.1406 45.25L535.3281 45.25L535.3281 33.265625L531.15625 45.25L529.4531 45.25L525.3125 33.0625L525.3125 45.25L523.4844 45.25ZM539.90625 40.65625L541.6875 40.5Q541.8125 41.5625 542.2656 42.25Q542.7344 42.9375 543.7031 43.375Q544.6875 43.796875 545.9219 43.796875Q547.0 43.796875 547.8281 43.484375Q548.65625 43.15625 549.0625 42.59375Q549.46875 42.03125 549.46875 41.359375Q549.46875 40.6875 549.0781 40.1875Q548.6875 39.6875 547.7969 39.34375Q547.21875 39.109375 545.2344 38.640625Q543.2656 38.171875 542.4844 37.75Q541.4531 37.21875 540.9531 36.421875Q540.4531 35.625 540.4531 34.640625Q540.4531 33.546875 541.0625 32.609375Q541.6719 31.671875 542.8594 31.1875Q544.0469 30.6875 545.4844 30.6875Q547.0781 30.6875 548.2969 31.203125Q549.5156 31.71875 550.15625 32.71875Q550.8125 33.703125 550.8594 34.96875L549.0469 35.109375Q548.90625 33.75 548.0625 33.0625Q547.21875 32.359375 545.5625 32.359375Q543.84375 32.359375 543.0469 33.0Q542.2656 33.625 542.2656 34.5Q542.2656 35.28125 542.8281 35.78125Q543.375 36.28125 545.6875 36.796875Q548.0 37.3125 548.8594 37.703125Q550.1094 38.28125 550.7031 39.171875Q551.2969 40.046875 551.2969 41.203125Q551.2969 42.34375 550.6406 43.359375Q549.9844 44.375 548.75 44.9375Q547.53125 45.5 546.0 45.5Q544.0625 45.5 542.75 44.9375Q541.4375 44.359375 540.6875 43.21875Q539.9375 42.078125 539.90625 40.65625Z" fill-rule="nonzero"/></svg>